%TF.GenerationSoftware,KiCad,Pcbnew,7.0.5*%
%TF.CreationDate,2024-03-20T19:06:25+01:00*%
%TF.ProjectId,anemometer,616e656d-6f6d-4657-9465-722e6b696361,rev?*%
%TF.SameCoordinates,Original*%
%TF.FileFunction,Legend,Bot*%
%TF.FilePolarity,Positive*%
%FSLAX46Y46*%
G04 Gerber Fmt 4.6, Leading zero omitted, Abs format (unit mm)*
G04 Created by KiCad (PCBNEW 7.0.5) date 2024-03-20 19:06:25*
%MOMM*%
%LPD*%
G01*
G04 APERTURE LIST*
%ADD10C,0.160000*%
%ADD11C,0.200000*%
%ADD12C,0.153000*%
%ADD13C,0.120000*%
%ADD14C,0.350000*%
G04 APERTURE END LIST*
D10*
X118799498Y-80039299D02*
X118228070Y-80039299D01*
X118513784Y-81039299D02*
X118513784Y-80039299D01*
X117751879Y-81039299D02*
X117847117Y-80991680D01*
X117847117Y-80991680D02*
X117894736Y-80944060D01*
X117894736Y-80944060D02*
X117942355Y-80848822D01*
X117942355Y-80848822D02*
X117942355Y-80563108D01*
X117942355Y-80563108D02*
X117894736Y-80467870D01*
X117894736Y-80467870D02*
X117847117Y-80420251D01*
X117847117Y-80420251D02*
X117751879Y-80372632D01*
X117751879Y-80372632D02*
X117609022Y-80372632D01*
X117609022Y-80372632D02*
X117513784Y-80420251D01*
X117513784Y-80420251D02*
X117466165Y-80467870D01*
X117466165Y-80467870D02*
X117418546Y-80563108D01*
X117418546Y-80563108D02*
X117418546Y-80848822D01*
X117418546Y-80848822D02*
X117466165Y-80944060D01*
X117466165Y-80944060D02*
X117513784Y-80991680D01*
X117513784Y-80991680D02*
X117609022Y-81039299D01*
X117609022Y-81039299D02*
X117751879Y-81039299D01*
X115847117Y-80991680D02*
X115942355Y-81039299D01*
X115942355Y-81039299D02*
X116132831Y-81039299D01*
X116132831Y-81039299D02*
X116228069Y-80991680D01*
X116228069Y-80991680D02*
X116275688Y-80896441D01*
X116275688Y-80896441D02*
X116275688Y-80515489D01*
X116275688Y-80515489D02*
X116228069Y-80420251D01*
X116228069Y-80420251D02*
X116132831Y-80372632D01*
X116132831Y-80372632D02*
X115942355Y-80372632D01*
X115942355Y-80372632D02*
X115847117Y-80420251D01*
X115847117Y-80420251D02*
X115799498Y-80515489D01*
X115799498Y-80515489D02*
X115799498Y-80610727D01*
X115799498Y-80610727D02*
X116275688Y-80705965D01*
X115370926Y-80372632D02*
X115370926Y-81039299D01*
X115370926Y-80467870D02*
X115323307Y-80420251D01*
X115323307Y-80420251D02*
X115228069Y-80372632D01*
X115228069Y-80372632D02*
X115085212Y-80372632D01*
X115085212Y-80372632D02*
X114989974Y-80420251D01*
X114989974Y-80420251D02*
X114942355Y-80515489D01*
X114942355Y-80515489D02*
X114942355Y-81039299D01*
X114037593Y-81039299D02*
X114037593Y-80515489D01*
X114037593Y-80515489D02*
X114085212Y-80420251D01*
X114085212Y-80420251D02*
X114180450Y-80372632D01*
X114180450Y-80372632D02*
X114370926Y-80372632D01*
X114370926Y-80372632D02*
X114466164Y-80420251D01*
X114037593Y-80991680D02*
X114132831Y-81039299D01*
X114132831Y-81039299D02*
X114370926Y-81039299D01*
X114370926Y-81039299D02*
X114466164Y-80991680D01*
X114466164Y-80991680D02*
X114513783Y-80896441D01*
X114513783Y-80896441D02*
X114513783Y-80801203D01*
X114513783Y-80801203D02*
X114466164Y-80705965D01*
X114466164Y-80705965D02*
X114370926Y-80658346D01*
X114370926Y-80658346D02*
X114132831Y-80658346D01*
X114132831Y-80658346D02*
X114037593Y-80610727D01*
X113561402Y-81039299D02*
X113561402Y-80039299D01*
X113561402Y-80420251D02*
X113466164Y-80372632D01*
X113466164Y-80372632D02*
X113275688Y-80372632D01*
X113275688Y-80372632D02*
X113180450Y-80420251D01*
X113180450Y-80420251D02*
X113132831Y-80467870D01*
X113132831Y-80467870D02*
X113085212Y-80563108D01*
X113085212Y-80563108D02*
X113085212Y-80848822D01*
X113085212Y-80848822D02*
X113132831Y-80944060D01*
X113132831Y-80944060D02*
X113180450Y-80991680D01*
X113180450Y-80991680D02*
X113275688Y-81039299D01*
X113275688Y-81039299D02*
X113466164Y-81039299D01*
X113466164Y-81039299D02*
X113561402Y-80991680D01*
X112513783Y-81039299D02*
X112609021Y-80991680D01*
X112609021Y-80991680D02*
X112656640Y-80896441D01*
X112656640Y-80896441D02*
X112656640Y-80039299D01*
X111751878Y-80991680D02*
X111847116Y-81039299D01*
X111847116Y-81039299D02*
X112037592Y-81039299D01*
X112037592Y-81039299D02*
X112132830Y-80991680D01*
X112132830Y-80991680D02*
X112180449Y-80896441D01*
X112180449Y-80896441D02*
X112180449Y-80515489D01*
X112180449Y-80515489D02*
X112132830Y-80420251D01*
X112132830Y-80420251D02*
X112037592Y-80372632D01*
X112037592Y-80372632D02*
X111847116Y-80372632D01*
X111847116Y-80372632D02*
X111751878Y-80420251D01*
X111751878Y-80420251D02*
X111704259Y-80515489D01*
X111704259Y-80515489D02*
X111704259Y-80610727D01*
X111704259Y-80610727D02*
X112180449Y-80705965D01*
X110180449Y-80515489D02*
X110037592Y-80563108D01*
X110037592Y-80563108D02*
X109989973Y-80610727D01*
X109989973Y-80610727D02*
X109942354Y-80705965D01*
X109942354Y-80705965D02*
X109942354Y-80848822D01*
X109942354Y-80848822D02*
X109989973Y-80944060D01*
X109989973Y-80944060D02*
X110037592Y-80991680D01*
X110037592Y-80991680D02*
X110132830Y-81039299D01*
X110132830Y-81039299D02*
X110513782Y-81039299D01*
X110513782Y-81039299D02*
X110513782Y-80039299D01*
X110513782Y-80039299D02*
X110180449Y-80039299D01*
X110180449Y-80039299D02*
X110085211Y-80086918D01*
X110085211Y-80086918D02*
X110037592Y-80134537D01*
X110037592Y-80134537D02*
X109989973Y-80229775D01*
X109989973Y-80229775D02*
X109989973Y-80325013D01*
X109989973Y-80325013D02*
X110037592Y-80420251D01*
X110037592Y-80420251D02*
X110085211Y-80467870D01*
X110085211Y-80467870D02*
X110180449Y-80515489D01*
X110180449Y-80515489D02*
X110513782Y-80515489D01*
X109085211Y-81039299D02*
X109085211Y-80515489D01*
X109085211Y-80515489D02*
X109132830Y-80420251D01*
X109132830Y-80420251D02*
X109228068Y-80372632D01*
X109228068Y-80372632D02*
X109418544Y-80372632D01*
X109418544Y-80372632D02*
X109513782Y-80420251D01*
X109085211Y-80991680D02*
X109180449Y-81039299D01*
X109180449Y-81039299D02*
X109418544Y-81039299D01*
X109418544Y-81039299D02*
X109513782Y-80991680D01*
X109513782Y-80991680D02*
X109561401Y-80896441D01*
X109561401Y-80896441D02*
X109561401Y-80801203D01*
X109561401Y-80801203D02*
X109513782Y-80705965D01*
X109513782Y-80705965D02*
X109418544Y-80658346D01*
X109418544Y-80658346D02*
X109180449Y-80658346D01*
X109180449Y-80658346D02*
X109085211Y-80610727D01*
X108609020Y-80372632D02*
X108609020Y-81039299D01*
X108609020Y-80467870D02*
X108561401Y-80420251D01*
X108561401Y-80420251D02*
X108466163Y-80372632D01*
X108466163Y-80372632D02*
X108323306Y-80372632D01*
X108323306Y-80372632D02*
X108228068Y-80420251D01*
X108228068Y-80420251D02*
X108180449Y-80515489D01*
X108180449Y-80515489D02*
X108180449Y-81039299D01*
X107275687Y-81039299D02*
X107275687Y-80039299D01*
X107275687Y-80991680D02*
X107370925Y-81039299D01*
X107370925Y-81039299D02*
X107561401Y-81039299D01*
X107561401Y-81039299D02*
X107656639Y-80991680D01*
X107656639Y-80991680D02*
X107704258Y-80944060D01*
X107704258Y-80944060D02*
X107751877Y-80848822D01*
X107751877Y-80848822D02*
X107751877Y-80563108D01*
X107751877Y-80563108D02*
X107704258Y-80467870D01*
X107704258Y-80467870D02*
X107656639Y-80420251D01*
X107656639Y-80420251D02*
X107561401Y-80372632D01*
X107561401Y-80372632D02*
X107370925Y-80372632D01*
X107370925Y-80372632D02*
X107275687Y-80420251D01*
X106799496Y-80372632D02*
X106799496Y-81372632D01*
X106799496Y-80420251D02*
X106704258Y-80372632D01*
X106704258Y-80372632D02*
X106513782Y-80372632D01*
X106513782Y-80372632D02*
X106418544Y-80420251D01*
X106418544Y-80420251D02*
X106370925Y-80467870D01*
X106370925Y-80467870D02*
X106323306Y-80563108D01*
X106323306Y-80563108D02*
X106323306Y-80848822D01*
X106323306Y-80848822D02*
X106370925Y-80944060D01*
X106370925Y-80944060D02*
X106418544Y-80991680D01*
X106418544Y-80991680D02*
X106513782Y-81039299D01*
X106513782Y-81039299D02*
X106704258Y-81039299D01*
X106704258Y-81039299D02*
X106799496Y-80991680D01*
X105466163Y-81039299D02*
X105466163Y-80515489D01*
X105466163Y-80515489D02*
X105513782Y-80420251D01*
X105513782Y-80420251D02*
X105609020Y-80372632D01*
X105609020Y-80372632D02*
X105799496Y-80372632D01*
X105799496Y-80372632D02*
X105894734Y-80420251D01*
X105466163Y-80991680D02*
X105561401Y-81039299D01*
X105561401Y-81039299D02*
X105799496Y-81039299D01*
X105799496Y-81039299D02*
X105894734Y-80991680D01*
X105894734Y-80991680D02*
X105942353Y-80896441D01*
X105942353Y-80896441D02*
X105942353Y-80801203D01*
X105942353Y-80801203D02*
X105894734Y-80705965D01*
X105894734Y-80705965D02*
X105799496Y-80658346D01*
X105799496Y-80658346D02*
X105561401Y-80658346D01*
X105561401Y-80658346D02*
X105466163Y-80610727D01*
X105037591Y-80991680D02*
X104942353Y-81039299D01*
X104942353Y-81039299D02*
X104751877Y-81039299D01*
X104751877Y-81039299D02*
X104656639Y-80991680D01*
X104656639Y-80991680D02*
X104609020Y-80896441D01*
X104609020Y-80896441D02*
X104609020Y-80848822D01*
X104609020Y-80848822D02*
X104656639Y-80753584D01*
X104656639Y-80753584D02*
X104751877Y-80705965D01*
X104751877Y-80705965D02*
X104894734Y-80705965D01*
X104894734Y-80705965D02*
X104989972Y-80658346D01*
X104989972Y-80658346D02*
X105037591Y-80563108D01*
X105037591Y-80563108D02*
X105037591Y-80515489D01*
X105037591Y-80515489D02*
X104989972Y-80420251D01*
X104989972Y-80420251D02*
X104894734Y-80372632D01*
X104894734Y-80372632D02*
X104751877Y-80372632D01*
X104751877Y-80372632D02*
X104656639Y-80420251D01*
X104228067Y-80991680D02*
X104132829Y-81039299D01*
X104132829Y-81039299D02*
X103942353Y-81039299D01*
X103942353Y-81039299D02*
X103847115Y-80991680D01*
X103847115Y-80991680D02*
X103799496Y-80896441D01*
X103799496Y-80896441D02*
X103799496Y-80848822D01*
X103799496Y-80848822D02*
X103847115Y-80753584D01*
X103847115Y-80753584D02*
X103942353Y-80705965D01*
X103942353Y-80705965D02*
X104085210Y-80705965D01*
X104085210Y-80705965D02*
X104180448Y-80658346D01*
X104180448Y-80658346D02*
X104228067Y-80563108D01*
X104228067Y-80563108D02*
X104228067Y-80515489D01*
X104228067Y-80515489D02*
X104180448Y-80420251D01*
X104180448Y-80420251D02*
X104085210Y-80372632D01*
X104085210Y-80372632D02*
X103942353Y-80372632D01*
X103942353Y-80372632D02*
X103847115Y-80420251D01*
X118228070Y-82601680D02*
X118323308Y-82649299D01*
X118323308Y-82649299D02*
X118513784Y-82649299D01*
X118513784Y-82649299D02*
X118609022Y-82601680D01*
X118609022Y-82601680D02*
X118656641Y-82554060D01*
X118656641Y-82554060D02*
X118704260Y-82458822D01*
X118704260Y-82458822D02*
X118704260Y-82173108D01*
X118704260Y-82173108D02*
X118656641Y-82077870D01*
X118656641Y-82077870D02*
X118609022Y-82030251D01*
X118609022Y-82030251D02*
X118513784Y-81982632D01*
X118513784Y-81982632D02*
X118323308Y-81982632D01*
X118323308Y-81982632D02*
X118228070Y-82030251D01*
X117370927Y-81982632D02*
X117370927Y-82649299D01*
X117799498Y-81982632D02*
X117799498Y-82506441D01*
X117799498Y-82506441D02*
X117751879Y-82601680D01*
X117751879Y-82601680D02*
X117656641Y-82649299D01*
X117656641Y-82649299D02*
X117513784Y-82649299D01*
X117513784Y-82649299D02*
X117418546Y-82601680D01*
X117418546Y-82601680D02*
X117370927Y-82554060D01*
X117037593Y-81982632D02*
X116656641Y-81982632D01*
X116894736Y-81649299D02*
X116894736Y-82506441D01*
X116894736Y-82506441D02*
X116847117Y-82601680D01*
X116847117Y-82601680D02*
X116751879Y-82649299D01*
X116751879Y-82649299D02*
X116656641Y-82649299D01*
X115561402Y-82125489D02*
X115228069Y-82125489D01*
X115085212Y-82649299D02*
X115561402Y-82649299D01*
X115561402Y-82649299D02*
X115561402Y-81649299D01*
X115561402Y-81649299D02*
X115085212Y-81649299D01*
X114656640Y-82649299D02*
X114656640Y-81649299D01*
X114656640Y-81649299D02*
X114085212Y-82649299D01*
X114085212Y-82649299D02*
X114085212Y-81649299D01*
X113847117Y-82744537D02*
X113085212Y-82744537D01*
X112513783Y-82125489D02*
X112847116Y-82125489D01*
X112847116Y-82649299D02*
X112847116Y-81649299D01*
X112847116Y-81649299D02*
X112370926Y-81649299D01*
X111989973Y-82649299D02*
X111989973Y-81982632D01*
X111989973Y-81649299D02*
X112037592Y-81696918D01*
X112037592Y-81696918D02*
X111989973Y-81744537D01*
X111989973Y-81744537D02*
X111942354Y-81696918D01*
X111942354Y-81696918D02*
X111989973Y-81649299D01*
X111989973Y-81649299D02*
X111989973Y-81744537D01*
X111370926Y-82649299D02*
X111466164Y-82601680D01*
X111466164Y-82601680D02*
X111513783Y-82506441D01*
X111513783Y-82506441D02*
X111513783Y-81649299D01*
X110609021Y-82601680D02*
X110704259Y-82649299D01*
X110704259Y-82649299D02*
X110894735Y-82649299D01*
X110894735Y-82649299D02*
X110989973Y-82601680D01*
X110989973Y-82601680D02*
X111037592Y-82506441D01*
X111037592Y-82506441D02*
X111037592Y-82125489D01*
X111037592Y-82125489D02*
X110989973Y-82030251D01*
X110989973Y-82030251D02*
X110894735Y-81982632D01*
X110894735Y-81982632D02*
X110704259Y-81982632D01*
X110704259Y-81982632D02*
X110609021Y-82030251D01*
X110609021Y-82030251D02*
X110561402Y-82125489D01*
X110561402Y-82125489D02*
X110561402Y-82220727D01*
X110561402Y-82220727D02*
X111037592Y-82315965D01*
X110132830Y-82649299D02*
X110132830Y-81982632D01*
X110132830Y-82173108D02*
X110085211Y-82077870D01*
X110085211Y-82077870D02*
X110037592Y-82030251D01*
X110037592Y-82030251D02*
X109942354Y-81982632D01*
X109942354Y-81982632D02*
X109847116Y-81982632D01*
X118228070Y-84259299D02*
X118228070Y-83735489D01*
X118228070Y-83735489D02*
X118275689Y-83640251D01*
X118275689Y-83640251D02*
X118370927Y-83592632D01*
X118370927Y-83592632D02*
X118561403Y-83592632D01*
X118561403Y-83592632D02*
X118656641Y-83640251D01*
X118228070Y-84211680D02*
X118323308Y-84259299D01*
X118323308Y-84259299D02*
X118561403Y-84259299D01*
X118561403Y-84259299D02*
X118656641Y-84211680D01*
X118656641Y-84211680D02*
X118704260Y-84116441D01*
X118704260Y-84116441D02*
X118704260Y-84021203D01*
X118704260Y-84021203D02*
X118656641Y-83925965D01*
X118656641Y-83925965D02*
X118561403Y-83878346D01*
X118561403Y-83878346D02*
X118323308Y-83878346D01*
X118323308Y-83878346D02*
X118228070Y-83830727D01*
X117751879Y-83592632D02*
X117751879Y-84259299D01*
X117751879Y-83687870D02*
X117704260Y-83640251D01*
X117704260Y-83640251D02*
X117609022Y-83592632D01*
X117609022Y-83592632D02*
X117466165Y-83592632D01*
X117466165Y-83592632D02*
X117370927Y-83640251D01*
X117370927Y-83640251D02*
X117323308Y-83735489D01*
X117323308Y-83735489D02*
X117323308Y-84259299D01*
X116418546Y-84259299D02*
X116418546Y-83259299D01*
X116418546Y-84211680D02*
X116513784Y-84259299D01*
X116513784Y-84259299D02*
X116704260Y-84259299D01*
X116704260Y-84259299D02*
X116799498Y-84211680D01*
X116799498Y-84211680D02*
X116847117Y-84164060D01*
X116847117Y-84164060D02*
X116894736Y-84068822D01*
X116894736Y-84068822D02*
X116894736Y-83783108D01*
X116894736Y-83783108D02*
X116847117Y-83687870D01*
X116847117Y-83687870D02*
X116799498Y-83640251D01*
X116799498Y-83640251D02*
X116704260Y-83592632D01*
X116704260Y-83592632D02*
X116513784Y-83592632D01*
X116513784Y-83592632D02*
X116418546Y-83640251D01*
X115180450Y-83592632D02*
X115180450Y-84592632D01*
X115180450Y-83640251D02*
X115085212Y-83592632D01*
X115085212Y-83592632D02*
X114894736Y-83592632D01*
X114894736Y-83592632D02*
X114799498Y-83640251D01*
X114799498Y-83640251D02*
X114751879Y-83687870D01*
X114751879Y-83687870D02*
X114704260Y-83783108D01*
X114704260Y-83783108D02*
X114704260Y-84068822D01*
X114704260Y-84068822D02*
X114751879Y-84164060D01*
X114751879Y-84164060D02*
X114799498Y-84211680D01*
X114799498Y-84211680D02*
X114894736Y-84259299D01*
X114894736Y-84259299D02*
X115085212Y-84259299D01*
X115085212Y-84259299D02*
X115180450Y-84211680D01*
X114132831Y-84259299D02*
X114228069Y-84211680D01*
X114228069Y-84211680D02*
X114275688Y-84164060D01*
X114275688Y-84164060D02*
X114323307Y-84068822D01*
X114323307Y-84068822D02*
X114323307Y-83783108D01*
X114323307Y-83783108D02*
X114275688Y-83687870D01*
X114275688Y-83687870D02*
X114228069Y-83640251D01*
X114228069Y-83640251D02*
X114132831Y-83592632D01*
X114132831Y-83592632D02*
X113989974Y-83592632D01*
X113989974Y-83592632D02*
X113894736Y-83640251D01*
X113894736Y-83640251D02*
X113847117Y-83687870D01*
X113847117Y-83687870D02*
X113799498Y-83783108D01*
X113799498Y-83783108D02*
X113799498Y-84068822D01*
X113799498Y-84068822D02*
X113847117Y-84164060D01*
X113847117Y-84164060D02*
X113894736Y-84211680D01*
X113894736Y-84211680D02*
X113989974Y-84259299D01*
X113989974Y-84259299D02*
X114132831Y-84259299D01*
X113370926Y-83592632D02*
X113370926Y-84592632D01*
X113370926Y-83640251D02*
X113275688Y-83592632D01*
X113275688Y-83592632D02*
X113085212Y-83592632D01*
X113085212Y-83592632D02*
X112989974Y-83640251D01*
X112989974Y-83640251D02*
X112942355Y-83687870D01*
X112942355Y-83687870D02*
X112894736Y-83783108D01*
X112894736Y-83783108D02*
X112894736Y-84068822D01*
X112894736Y-84068822D02*
X112942355Y-84164060D01*
X112942355Y-84164060D02*
X112989974Y-84211680D01*
X112989974Y-84211680D02*
X113085212Y-84259299D01*
X113085212Y-84259299D02*
X113275688Y-84259299D01*
X113275688Y-84259299D02*
X113370926Y-84211680D01*
X112037593Y-83592632D02*
X112037593Y-84259299D01*
X112466164Y-83592632D02*
X112466164Y-84116441D01*
X112466164Y-84116441D02*
X112418545Y-84211680D01*
X112418545Y-84211680D02*
X112323307Y-84259299D01*
X112323307Y-84259299D02*
X112180450Y-84259299D01*
X112180450Y-84259299D02*
X112085212Y-84211680D01*
X112085212Y-84211680D02*
X112037593Y-84164060D01*
X111418545Y-84259299D02*
X111513783Y-84211680D01*
X111513783Y-84211680D02*
X111561402Y-84116441D01*
X111561402Y-84116441D02*
X111561402Y-83259299D01*
X110609021Y-84259299D02*
X110609021Y-83735489D01*
X110609021Y-83735489D02*
X110656640Y-83640251D01*
X110656640Y-83640251D02*
X110751878Y-83592632D01*
X110751878Y-83592632D02*
X110942354Y-83592632D01*
X110942354Y-83592632D02*
X111037592Y-83640251D01*
X110609021Y-84211680D02*
X110704259Y-84259299D01*
X110704259Y-84259299D02*
X110942354Y-84259299D01*
X110942354Y-84259299D02*
X111037592Y-84211680D01*
X111037592Y-84211680D02*
X111085211Y-84116441D01*
X111085211Y-84116441D02*
X111085211Y-84021203D01*
X111085211Y-84021203D02*
X111037592Y-83925965D01*
X111037592Y-83925965D02*
X110942354Y-83878346D01*
X110942354Y-83878346D02*
X110704259Y-83878346D01*
X110704259Y-83878346D02*
X110609021Y-83830727D01*
X110275687Y-83592632D02*
X109894735Y-83592632D01*
X110132830Y-83259299D02*
X110132830Y-84116441D01*
X110132830Y-84116441D02*
X110085211Y-84211680D01*
X110085211Y-84211680D02*
X109989973Y-84259299D01*
X109989973Y-84259299D02*
X109894735Y-84259299D01*
X109180449Y-84211680D02*
X109275687Y-84259299D01*
X109275687Y-84259299D02*
X109466163Y-84259299D01*
X109466163Y-84259299D02*
X109561401Y-84211680D01*
X109561401Y-84211680D02*
X109609020Y-84116441D01*
X109609020Y-84116441D02*
X109609020Y-83735489D01*
X109609020Y-83735489D02*
X109561401Y-83640251D01*
X109561401Y-83640251D02*
X109466163Y-83592632D01*
X109466163Y-83592632D02*
X109275687Y-83592632D01*
X109275687Y-83592632D02*
X109180449Y-83640251D01*
X109180449Y-83640251D02*
X109132830Y-83735489D01*
X109132830Y-83735489D02*
X109132830Y-83830727D01*
X109132830Y-83830727D02*
X109609020Y-83925965D01*
X118085213Y-85774060D02*
X118132832Y-85821680D01*
X118132832Y-85821680D02*
X118275689Y-85869299D01*
X118275689Y-85869299D02*
X118370927Y-85869299D01*
X118370927Y-85869299D02*
X118513784Y-85821680D01*
X118513784Y-85821680D02*
X118609022Y-85726441D01*
X118609022Y-85726441D02*
X118656641Y-85631203D01*
X118656641Y-85631203D02*
X118704260Y-85440727D01*
X118704260Y-85440727D02*
X118704260Y-85297870D01*
X118704260Y-85297870D02*
X118656641Y-85107394D01*
X118656641Y-85107394D02*
X118609022Y-85012156D01*
X118609022Y-85012156D02*
X118513784Y-84916918D01*
X118513784Y-84916918D02*
X118370927Y-84869299D01*
X118370927Y-84869299D02*
X118275689Y-84869299D01*
X118275689Y-84869299D02*
X118132832Y-84916918D01*
X118132832Y-84916918D02*
X118085213Y-84964537D01*
X117513784Y-85869299D02*
X117609022Y-85821680D01*
X117609022Y-85821680D02*
X117656641Y-85774060D01*
X117656641Y-85774060D02*
X117704260Y-85678822D01*
X117704260Y-85678822D02*
X117704260Y-85393108D01*
X117704260Y-85393108D02*
X117656641Y-85297870D01*
X117656641Y-85297870D02*
X117609022Y-85250251D01*
X117609022Y-85250251D02*
X117513784Y-85202632D01*
X117513784Y-85202632D02*
X117370927Y-85202632D01*
X117370927Y-85202632D02*
X117275689Y-85250251D01*
X117275689Y-85250251D02*
X117228070Y-85297870D01*
X117228070Y-85297870D02*
X117180451Y-85393108D01*
X117180451Y-85393108D02*
X117180451Y-85678822D01*
X117180451Y-85678822D02*
X117228070Y-85774060D01*
X117228070Y-85774060D02*
X117275689Y-85821680D01*
X117275689Y-85821680D02*
X117370927Y-85869299D01*
X117370927Y-85869299D02*
X117513784Y-85869299D01*
X116751879Y-85869299D02*
X116751879Y-85202632D01*
X116751879Y-85297870D02*
X116704260Y-85250251D01*
X116704260Y-85250251D02*
X116609022Y-85202632D01*
X116609022Y-85202632D02*
X116466165Y-85202632D01*
X116466165Y-85202632D02*
X116370927Y-85250251D01*
X116370927Y-85250251D02*
X116323308Y-85345489D01*
X116323308Y-85345489D02*
X116323308Y-85869299D01*
X116323308Y-85345489D02*
X116275689Y-85250251D01*
X116275689Y-85250251D02*
X116180451Y-85202632D01*
X116180451Y-85202632D02*
X116037594Y-85202632D01*
X116037594Y-85202632D02*
X115942355Y-85250251D01*
X115942355Y-85250251D02*
X115894736Y-85345489D01*
X115894736Y-85345489D02*
X115894736Y-85869299D01*
X115418546Y-85202632D02*
X115418546Y-86202632D01*
X115418546Y-85250251D02*
X115323308Y-85202632D01*
X115323308Y-85202632D02*
X115132832Y-85202632D01*
X115132832Y-85202632D02*
X115037594Y-85250251D01*
X115037594Y-85250251D02*
X114989975Y-85297870D01*
X114989975Y-85297870D02*
X114942356Y-85393108D01*
X114942356Y-85393108D02*
X114942356Y-85678822D01*
X114942356Y-85678822D02*
X114989975Y-85774060D01*
X114989975Y-85774060D02*
X115037594Y-85821680D01*
X115037594Y-85821680D02*
X115132832Y-85869299D01*
X115132832Y-85869299D02*
X115323308Y-85869299D01*
X115323308Y-85869299D02*
X115418546Y-85821680D01*
X114370927Y-85869299D02*
X114466165Y-85821680D01*
X114466165Y-85821680D02*
X114513784Y-85774060D01*
X114513784Y-85774060D02*
X114561403Y-85678822D01*
X114561403Y-85678822D02*
X114561403Y-85393108D01*
X114561403Y-85393108D02*
X114513784Y-85297870D01*
X114513784Y-85297870D02*
X114466165Y-85250251D01*
X114466165Y-85250251D02*
X114370927Y-85202632D01*
X114370927Y-85202632D02*
X114228070Y-85202632D01*
X114228070Y-85202632D02*
X114132832Y-85250251D01*
X114132832Y-85250251D02*
X114085213Y-85297870D01*
X114085213Y-85297870D02*
X114037594Y-85393108D01*
X114037594Y-85393108D02*
X114037594Y-85678822D01*
X114037594Y-85678822D02*
X114085213Y-85774060D01*
X114085213Y-85774060D02*
X114132832Y-85821680D01*
X114132832Y-85821680D02*
X114228070Y-85869299D01*
X114228070Y-85869299D02*
X114370927Y-85869299D01*
X113609022Y-85202632D02*
X113609022Y-85869299D01*
X113609022Y-85297870D02*
X113561403Y-85250251D01*
X113561403Y-85250251D02*
X113466165Y-85202632D01*
X113466165Y-85202632D02*
X113323308Y-85202632D01*
X113323308Y-85202632D02*
X113228070Y-85250251D01*
X113228070Y-85250251D02*
X113180451Y-85345489D01*
X113180451Y-85345489D02*
X113180451Y-85869299D01*
X112323308Y-85821680D02*
X112418546Y-85869299D01*
X112418546Y-85869299D02*
X112609022Y-85869299D01*
X112609022Y-85869299D02*
X112704260Y-85821680D01*
X112704260Y-85821680D02*
X112751879Y-85726441D01*
X112751879Y-85726441D02*
X112751879Y-85345489D01*
X112751879Y-85345489D02*
X112704260Y-85250251D01*
X112704260Y-85250251D02*
X112609022Y-85202632D01*
X112609022Y-85202632D02*
X112418546Y-85202632D01*
X112418546Y-85202632D02*
X112323308Y-85250251D01*
X112323308Y-85250251D02*
X112275689Y-85345489D01*
X112275689Y-85345489D02*
X112275689Y-85440727D01*
X112275689Y-85440727D02*
X112751879Y-85535965D01*
X111847117Y-85202632D02*
X111847117Y-85869299D01*
X111847117Y-85297870D02*
X111799498Y-85250251D01*
X111799498Y-85250251D02*
X111704260Y-85202632D01*
X111704260Y-85202632D02*
X111561403Y-85202632D01*
X111561403Y-85202632D02*
X111466165Y-85250251D01*
X111466165Y-85250251D02*
X111418546Y-85345489D01*
X111418546Y-85345489D02*
X111418546Y-85869299D01*
X111085212Y-85202632D02*
X110704260Y-85202632D01*
X110942355Y-84869299D02*
X110942355Y-85726441D01*
X110942355Y-85726441D02*
X110894736Y-85821680D01*
X110894736Y-85821680D02*
X110799498Y-85869299D01*
X110799498Y-85869299D02*
X110704260Y-85869299D01*
X110418545Y-85821680D02*
X110323307Y-85869299D01*
X110323307Y-85869299D02*
X110132831Y-85869299D01*
X110132831Y-85869299D02*
X110037593Y-85821680D01*
X110037593Y-85821680D02*
X109989974Y-85726441D01*
X109989974Y-85726441D02*
X109989974Y-85678822D01*
X109989974Y-85678822D02*
X110037593Y-85583584D01*
X110037593Y-85583584D02*
X110132831Y-85535965D01*
X110132831Y-85535965D02*
X110275688Y-85535965D01*
X110275688Y-85535965D02*
X110370926Y-85488346D01*
X110370926Y-85488346D02*
X110418545Y-85393108D01*
X110418545Y-85393108D02*
X110418545Y-85345489D01*
X110418545Y-85345489D02*
X110370926Y-85250251D01*
X110370926Y-85250251D02*
X110275688Y-85202632D01*
X110275688Y-85202632D02*
X110132831Y-85202632D01*
X110132831Y-85202632D02*
X110037593Y-85250251D01*
D11*
G36*
X108482707Y-102568545D02*
G01*
X108482707Y-103587796D01*
X108368625Y-103644838D01*
X108034885Y-103644838D01*
X107880038Y-103567415D01*
X107807748Y-103495123D01*
X107730326Y-103340279D01*
X107730326Y-102816062D01*
X107807749Y-102661215D01*
X107880037Y-102588927D01*
X108034885Y-102511504D01*
X108368625Y-102511504D01*
X108482707Y-102568545D01*
G37*
G36*
X109676022Y-103069965D02*
G01*
X109696201Y-103082933D01*
X109716637Y-103082933D01*
X109736752Y-103086553D01*
X109745480Y-103082933D01*
X110178149Y-103082933D01*
X110317695Y-103152706D01*
X110387468Y-103292253D01*
X110387468Y-103435516D01*
X110317695Y-103575064D01*
X110178149Y-103644838D01*
X109749171Y-103644838D01*
X109635088Y-103587796D01*
X109635088Y-103049498D01*
X109676022Y-103069965D01*
G37*
G36*
X116508171Y-102581277D02*
G01*
X116577945Y-102720825D01*
X116577945Y-102956190D01*
X115825563Y-102805714D01*
X115825564Y-102720824D01*
X115895337Y-102581277D01*
X116034885Y-102511504D01*
X116368625Y-102511504D01*
X116508171Y-102581277D01*
G37*
G36*
X118237756Y-102588926D02*
G01*
X118310045Y-102661215D01*
X118387469Y-102816063D01*
X118387469Y-103340278D01*
X118310045Y-103495125D01*
X118237756Y-103567415D01*
X118082911Y-103644838D01*
X117749171Y-103644838D01*
X117635088Y-103587796D01*
X117635088Y-102568545D01*
X117749171Y-102511504D01*
X118082911Y-102511504D01*
X118237756Y-102588926D01*
G37*
G36*
X119585714Y-104585714D02*
G01*
X104885714Y-104585714D01*
X104885714Y-102708407D01*
X105812420Y-102708407D01*
X105816039Y-102717135D01*
X105816040Y-103759217D01*
X105828363Y-103801185D01*
X105872745Y-103839642D01*
X105930872Y-103847999D01*
X105984291Y-103823604D01*
X106016040Y-103774201D01*
X106016040Y-102720824D01*
X106085813Y-102581277D01*
X106225361Y-102511504D01*
X106463863Y-102511504D01*
X106618708Y-102588926D01*
X106673183Y-102643401D01*
X106673183Y-103759217D01*
X106685506Y-103801185D01*
X106729888Y-103839642D01*
X106788015Y-103847999D01*
X106841434Y-103823604D01*
X106873183Y-103774201D01*
X106873183Y-102803645D01*
X107526706Y-102803645D01*
X107530326Y-102812373D01*
X107530326Y-103358499D01*
X107527752Y-103382343D01*
X107536890Y-103400619D01*
X107542649Y-103420232D01*
X107549790Y-103426420D01*
X107630513Y-103587866D01*
X107634090Y-103604308D01*
X107653564Y-103623782D01*
X107672343Y-103643970D01*
X107674235Y-103644453D01*
X107741225Y-103711444D01*
X107749818Y-103725911D01*
X107774444Y-103738224D01*
X107798648Y-103751441D01*
X107800598Y-103751301D01*
X107961736Y-103831870D01*
X107981915Y-103844838D01*
X108002351Y-103844838D01*
X108022466Y-103848458D01*
X108031194Y-103844838D01*
X108386846Y-103844838D01*
X108410689Y-103847412D01*
X108428965Y-103838273D01*
X108448578Y-103832515D01*
X108454766Y-103825373D01*
X108482706Y-103811403D01*
X108482707Y-104425883D01*
X108495030Y-104467851D01*
X108539412Y-104506308D01*
X108597539Y-104514665D01*
X108650958Y-104490270D01*
X108682707Y-104440867D01*
X108682707Y-103662186D01*
X108686865Y-103645926D01*
X108682707Y-103633415D01*
X108682707Y-102708407D01*
X109431468Y-102708407D01*
X109435088Y-102717135D01*
X109435088Y-102885928D01*
X109434115Y-102913515D01*
X109435088Y-102915153D01*
X109435088Y-103647833D01*
X109434115Y-103675420D01*
X109435088Y-103677058D01*
X109435088Y-103759217D01*
X109447411Y-103801185D01*
X109491793Y-103839642D01*
X109549920Y-103847999D01*
X109603339Y-103823604D01*
X109616994Y-103802356D01*
X109676022Y-103831870D01*
X109696201Y-103844838D01*
X109716637Y-103844838D01*
X109736752Y-103848458D01*
X109745480Y-103844838D01*
X110196370Y-103844838D01*
X110220213Y-103847412D01*
X110238489Y-103838273D01*
X110258102Y-103832515D01*
X110264290Y-103825373D01*
X110414165Y-103750435D01*
X110418052Y-103750573D01*
X110440189Y-103737424D01*
X110449814Y-103732612D01*
X110452503Y-103730110D01*
X110468542Y-103720584D01*
X110473583Y-103710501D01*
X110481840Y-103702821D01*
X110486463Y-103684741D01*
X110574501Y-103508664D01*
X110587469Y-103488486D01*
X110587469Y-103468049D01*
X110591089Y-103447934D01*
X110587469Y-103439205D01*
X110587469Y-103274032D01*
X110590043Y-103250189D01*
X110580904Y-103231912D01*
X110575146Y-103212300D01*
X110568004Y-103206111D01*
X110493067Y-103056238D01*
X110493205Y-103052351D01*
X110480048Y-103030200D01*
X110475243Y-103020589D01*
X110472744Y-103017903D01*
X110463216Y-103001860D01*
X110453132Y-102996818D01*
X110445453Y-102988562D01*
X110427374Y-102983939D01*
X110251296Y-102895900D01*
X110231118Y-102882933D01*
X110210682Y-102882933D01*
X110190567Y-102879313D01*
X110181839Y-102882933D01*
X109749171Y-102882933D01*
X109635088Y-102825891D01*
X109635088Y-102720824D01*
X109704861Y-102581277D01*
X109844409Y-102511504D01*
X110178149Y-102511504D01*
X110360371Y-102602615D01*
X110403419Y-102610362D01*
X110457664Y-102587864D01*
X110491134Y-102539611D01*
X110493205Y-102480922D01*
X110463216Y-102430431D01*
X110455026Y-102426336D01*
X110955736Y-102426336D01*
X110980131Y-102479755D01*
X111029534Y-102511504D01*
X111225768Y-102511504D01*
X111380614Y-102588927D01*
X111452902Y-102661215D01*
X111530326Y-102816063D01*
X111530326Y-103759217D01*
X111542649Y-103801185D01*
X111587031Y-103839642D01*
X111645158Y-103847999D01*
X111698577Y-103823604D01*
X111730326Y-103774201D01*
X111730326Y-103546925D01*
X112383512Y-103546925D01*
X112387469Y-103565114D01*
X112387469Y-103568740D01*
X112390512Y-103579103D01*
X112395995Y-103604308D01*
X112398709Y-103607023D01*
X112399792Y-103610708D01*
X112419288Y-103627601D01*
X112508184Y-103716498D01*
X112523228Y-103735183D01*
X112542613Y-103741644D01*
X112560553Y-103751441D01*
X112569979Y-103750766D01*
X112824902Y-103835740D01*
X112839058Y-103844838D01*
X112866613Y-103844838D01*
X112894151Y-103845834D01*
X112895831Y-103844838D01*
X113046357Y-103844838D01*
X113062663Y-103848992D01*
X113088798Y-103840280D01*
X113115244Y-103832515D01*
X113116523Y-103831038D01*
X113371124Y-103746171D01*
X113394560Y-103741073D01*
X113409009Y-103726623D01*
X113425793Y-103714959D01*
X113429405Y-103706227D01*
X113596933Y-103538698D01*
X113611399Y-103530107D01*
X113623716Y-103505472D01*
X113636928Y-103481277D01*
X113636788Y-103479327D01*
X113711801Y-103329301D01*
X113720219Y-103321387D01*
X113724678Y-103303547D01*
X113726199Y-103300507D01*
X113728151Y-103289655D01*
X113818587Y-102927914D01*
X113825564Y-102917058D01*
X113825564Y-102900006D01*
X113826066Y-102897999D01*
X113825564Y-102885652D01*
X113825564Y-102618438D01*
X113829700Y-102606212D01*
X113825564Y-102589668D01*
X113825564Y-102587601D01*
X113822086Y-102575756D01*
X113784731Y-102426336D01*
X114193831Y-102426336D01*
X114218226Y-102479755D01*
X114267629Y-102511504D01*
X114463863Y-102511504D01*
X114618708Y-102588926D01*
X114690997Y-102661215D01*
X114768421Y-102816063D01*
X114768421Y-103759217D01*
X114780744Y-103801185D01*
X114825126Y-103839642D01*
X114883253Y-103847999D01*
X114936672Y-103823604D01*
X114968421Y-103774201D01*
X114968421Y-102882007D01*
X115621498Y-102882007D01*
X115625564Y-102899296D01*
X115625564Y-102902074D01*
X115628845Y-102913249D01*
X115634942Y-102939173D01*
X115637058Y-102941219D01*
X115637887Y-102944042D01*
X115658013Y-102961481D01*
X115677160Y-102979995D01*
X115680045Y-102980572D01*
X115682269Y-102982499D01*
X115708629Y-102986288D01*
X116577945Y-103160151D01*
X116577945Y-103435516D01*
X116508171Y-103575064D01*
X116368625Y-103644838D01*
X116034885Y-103644838D01*
X115852662Y-103553727D01*
X115809614Y-103545980D01*
X115755369Y-103568478D01*
X115721899Y-103616731D01*
X115719829Y-103675420D01*
X115749818Y-103725911D01*
X115961736Y-103831870D01*
X115981915Y-103844838D01*
X116002351Y-103844838D01*
X116022466Y-103848458D01*
X116031194Y-103844838D01*
X116386846Y-103844838D01*
X116410689Y-103847412D01*
X116428965Y-103838273D01*
X116448578Y-103832515D01*
X116454766Y-103825373D01*
X116604641Y-103750435D01*
X116608528Y-103750573D01*
X116630665Y-103737424D01*
X116640290Y-103732612D01*
X116642979Y-103730110D01*
X116659018Y-103720584D01*
X116664059Y-103710501D01*
X116672316Y-103702821D01*
X116676939Y-103684741D01*
X116764977Y-103508664D01*
X116777945Y-103488486D01*
X116777945Y-103468049D01*
X116781565Y-103447934D01*
X116777945Y-103439205D01*
X116777945Y-103095348D01*
X116782012Y-103083859D01*
X116777944Y-103066566D01*
X116777945Y-102702604D01*
X116780519Y-102678761D01*
X116771380Y-102660484D01*
X116765622Y-102640872D01*
X116758480Y-102634683D01*
X116696346Y-102510415D01*
X117430931Y-102510415D01*
X117435088Y-102522923D01*
X117435088Y-103647833D01*
X117434115Y-103675420D01*
X117435087Y-103677058D01*
X117435088Y-103759217D01*
X117447411Y-103801185D01*
X117491793Y-103839642D01*
X117549920Y-103847999D01*
X117603339Y-103823604D01*
X117616994Y-103802356D01*
X117676022Y-103831870D01*
X117696201Y-103844838D01*
X117716637Y-103844838D01*
X117736752Y-103848458D01*
X117745480Y-103844838D01*
X118101132Y-103844838D01*
X118124975Y-103847412D01*
X118143251Y-103838273D01*
X118162864Y-103832515D01*
X118169052Y-103825373D01*
X118330500Y-103744649D01*
X118346941Y-103741073D01*
X118366409Y-103721604D01*
X118386602Y-103702821D01*
X118387086Y-103700927D01*
X118454076Y-103633936D01*
X118468542Y-103625345D01*
X118480854Y-103600720D01*
X118494072Y-103576514D01*
X118493932Y-103574563D01*
X118574501Y-103413426D01*
X118587469Y-103393248D01*
X118587469Y-103372812D01*
X118591089Y-103352697D01*
X118587469Y-103343968D01*
X118587469Y-102797842D01*
X118590043Y-102773999D01*
X118580904Y-102755722D01*
X118575146Y-102736110D01*
X118568004Y-102729921D01*
X118487282Y-102568476D01*
X118483705Y-102552032D01*
X118464218Y-102532545D01*
X118445453Y-102512371D01*
X118443559Y-102511886D01*
X118376571Y-102444899D01*
X118367978Y-102430431D01*
X118343332Y-102418108D01*
X118319147Y-102404902D01*
X118317198Y-102405041D01*
X118156058Y-102324471D01*
X118135880Y-102311504D01*
X118115444Y-102311504D01*
X118095329Y-102307884D01*
X118086601Y-102311504D01*
X117730949Y-102311504D01*
X117707106Y-102308930D01*
X117688829Y-102318068D01*
X117669217Y-102323827D01*
X117663028Y-102330968D01*
X117635088Y-102344939D01*
X117635088Y-101730459D01*
X117622765Y-101688491D01*
X117578383Y-101650034D01*
X117520256Y-101641677D01*
X117466837Y-101666072D01*
X117435088Y-101715475D01*
X117435088Y-102494157D01*
X117430931Y-102510415D01*
X116696346Y-102510415D01*
X116683543Y-102484809D01*
X116683681Y-102480922D01*
X116670524Y-102458771D01*
X116665719Y-102449160D01*
X116663220Y-102446474D01*
X116653692Y-102430431D01*
X116643608Y-102425389D01*
X116635929Y-102417133D01*
X116617850Y-102412510D01*
X116441772Y-102324471D01*
X116421594Y-102311504D01*
X116401158Y-102311504D01*
X116381043Y-102307884D01*
X116372315Y-102311504D01*
X116016663Y-102311504D01*
X115992820Y-102308930D01*
X115974543Y-102318068D01*
X115954931Y-102323827D01*
X115948742Y-102330968D01*
X115798869Y-102405905D01*
X115794982Y-102405768D01*
X115772831Y-102418924D01*
X115763220Y-102423730D01*
X115760534Y-102426228D01*
X115744491Y-102435757D01*
X115739449Y-102445840D01*
X115731193Y-102453520D01*
X115726570Y-102471598D01*
X115638531Y-102647678D01*
X115625564Y-102667856D01*
X115625564Y-102688291D01*
X115621944Y-102708407D01*
X115625563Y-102717135D01*
X115625564Y-102870519D01*
X115621498Y-102882007D01*
X114968421Y-102882007D01*
X114968421Y-102797842D01*
X114970995Y-102773999D01*
X114968421Y-102768850D01*
X114968421Y-102397125D01*
X114956098Y-102355157D01*
X114911716Y-102316700D01*
X114853589Y-102308343D01*
X114800170Y-102332738D01*
X114768421Y-102382141D01*
X114768421Y-102455796D01*
X114757523Y-102444899D01*
X114748930Y-102430431D01*
X114724284Y-102418108D01*
X114700099Y-102404902D01*
X114698150Y-102405041D01*
X114537010Y-102324471D01*
X114516832Y-102311504D01*
X114496396Y-102311504D01*
X114476281Y-102307884D01*
X114467553Y-102311504D01*
X114282613Y-102311504D01*
X114240645Y-102323827D01*
X114202188Y-102368209D01*
X114193831Y-102426336D01*
X113784731Y-102426336D01*
X113731660Y-102214053D01*
X113732900Y-102202570D01*
X113724678Y-102186127D01*
X113723853Y-102182825D01*
X113718267Y-102173304D01*
X113630139Y-101997048D01*
X113626562Y-101980604D01*
X113607074Y-101961116D01*
X113588310Y-101940943D01*
X113586416Y-101940458D01*
X113419133Y-101773176D01*
X113404091Y-101754493D01*
X113384703Y-101748030D01*
X113366766Y-101738236D01*
X113357341Y-101738909D01*
X113102415Y-101653935D01*
X113088260Y-101644838D01*
X113060705Y-101644838D01*
X113033167Y-101643842D01*
X113031487Y-101644838D01*
X112778568Y-101644838D01*
X112754725Y-101642264D01*
X112736448Y-101651402D01*
X112716836Y-101657161D01*
X112710647Y-101664302D01*
X112525125Y-101757064D01*
X112493098Y-101786854D01*
X112478550Y-101843749D01*
X112497070Y-101899477D01*
X112542779Y-101936347D01*
X112601165Y-101942650D01*
X112796790Y-101844838D01*
X113042669Y-101844838D01*
X113290594Y-101927479D01*
X113452902Y-102089787D01*
X113535973Y-102255930D01*
X113625564Y-102614291D01*
X113625564Y-102875383D01*
X113535973Y-103233745D01*
X113452902Y-103399887D01*
X113290594Y-103562196D01*
X113042670Y-103644838D01*
X112884649Y-103644838D01*
X112636725Y-103562197D01*
X112587469Y-103512939D01*
X112587469Y-102987695D01*
X112882800Y-102987695D01*
X112924768Y-102975372D01*
X112963225Y-102930990D01*
X112971582Y-102872863D01*
X112947187Y-102819444D01*
X112897784Y-102787695D01*
X112494623Y-102787695D01*
X112472637Y-102784534D01*
X112452433Y-102793760D01*
X112431122Y-102800018D01*
X112426139Y-102805768D01*
X112419218Y-102808929D01*
X112407209Y-102827614D01*
X112392665Y-102844400D01*
X112391582Y-102851931D01*
X112387469Y-102858332D01*
X112387469Y-102880540D01*
X112384308Y-102902527D01*
X112387469Y-102909448D01*
X112387469Y-103536316D01*
X112383512Y-103546925D01*
X111730326Y-103546925D01*
X111730326Y-102797842D01*
X111732900Y-102773999D01*
X111730326Y-102768850D01*
X111730326Y-102397125D01*
X111718003Y-102355157D01*
X111673621Y-102316700D01*
X111615494Y-102308343D01*
X111562075Y-102332738D01*
X111530326Y-102382141D01*
X111530326Y-102455796D01*
X111519428Y-102444899D01*
X111510835Y-102430431D01*
X111486189Y-102418108D01*
X111462004Y-102404902D01*
X111460055Y-102405041D01*
X111298915Y-102324471D01*
X111278737Y-102311504D01*
X111258301Y-102311504D01*
X111238186Y-102307884D01*
X111229458Y-102311504D01*
X111044518Y-102311504D01*
X111002550Y-102323827D01*
X110964093Y-102368209D01*
X110955736Y-102426336D01*
X110455026Y-102426336D01*
X110251296Y-102324471D01*
X110231118Y-102311504D01*
X110210682Y-102311504D01*
X110190567Y-102307884D01*
X110181839Y-102311504D01*
X109826187Y-102311504D01*
X109802344Y-102308930D01*
X109784067Y-102318068D01*
X109764455Y-102323827D01*
X109758266Y-102330968D01*
X109608393Y-102405905D01*
X109604506Y-102405768D01*
X109582355Y-102418924D01*
X109572744Y-102423730D01*
X109570058Y-102426228D01*
X109554015Y-102435757D01*
X109548973Y-102445840D01*
X109540717Y-102453520D01*
X109536094Y-102471598D01*
X109448055Y-102647678D01*
X109435088Y-102667856D01*
X109435088Y-102688291D01*
X109431468Y-102708407D01*
X108682707Y-102708407D01*
X108682707Y-102508523D01*
X108683681Y-102480922D01*
X108682707Y-102479282D01*
X108682707Y-102397125D01*
X108670384Y-102355157D01*
X108626002Y-102316700D01*
X108567875Y-102308343D01*
X108514456Y-102332738D01*
X108500801Y-102353985D01*
X108441772Y-102324471D01*
X108421594Y-102311504D01*
X108401158Y-102311504D01*
X108381043Y-102307884D01*
X108372315Y-102311504D01*
X108016663Y-102311504D01*
X107992820Y-102308930D01*
X107974543Y-102318068D01*
X107954931Y-102323827D01*
X107948742Y-102330968D01*
X107787298Y-102411690D01*
X107770854Y-102415268D01*
X107751367Y-102434754D01*
X107731193Y-102453520D01*
X107730708Y-102455413D01*
X107663721Y-102522401D01*
X107649253Y-102530995D01*
X107636931Y-102555639D01*
X107623724Y-102579826D01*
X107623863Y-102581774D01*
X107543293Y-102742916D01*
X107530326Y-102763094D01*
X107530326Y-102783529D01*
X107526706Y-102803645D01*
X106873183Y-102803645D01*
X106873183Y-102620023D01*
X106877140Y-102609415D01*
X106873183Y-102591225D01*
X106873183Y-101730459D01*
X106860860Y-101688491D01*
X106816478Y-101650034D01*
X106758351Y-101641677D01*
X106704932Y-101666072D01*
X106673183Y-101715475D01*
X106673183Y-102392557D01*
X106537010Y-102324471D01*
X106516832Y-102311504D01*
X106496396Y-102311504D01*
X106476281Y-102307884D01*
X106467553Y-102311504D01*
X106207139Y-102311504D01*
X106183296Y-102308930D01*
X106165019Y-102318068D01*
X106145407Y-102323827D01*
X106139218Y-102330968D01*
X105989345Y-102405905D01*
X105985458Y-102405768D01*
X105963307Y-102418924D01*
X105953696Y-102423730D01*
X105951010Y-102426228D01*
X105934967Y-102435757D01*
X105929925Y-102445840D01*
X105921669Y-102453520D01*
X105917046Y-102471598D01*
X105829007Y-102647678D01*
X105816040Y-102667856D01*
X105816040Y-102688291D01*
X105812420Y-102708407D01*
X104885714Y-102708407D01*
X104885714Y-100914286D01*
X119585714Y-100914286D01*
X119585714Y-104585714D01*
G37*
D10*
X118323308Y-87905489D02*
X118656641Y-87905489D01*
X118656641Y-88429299D02*
X118656641Y-87429299D01*
X118656641Y-87429299D02*
X118180451Y-87429299D01*
X117656641Y-88429299D02*
X117751879Y-88381680D01*
X117751879Y-88381680D02*
X117799498Y-88334060D01*
X117799498Y-88334060D02*
X117847117Y-88238822D01*
X117847117Y-88238822D02*
X117847117Y-87953108D01*
X117847117Y-87953108D02*
X117799498Y-87857870D01*
X117799498Y-87857870D02*
X117751879Y-87810251D01*
X117751879Y-87810251D02*
X117656641Y-87762632D01*
X117656641Y-87762632D02*
X117513784Y-87762632D01*
X117513784Y-87762632D02*
X117418546Y-87810251D01*
X117418546Y-87810251D02*
X117370927Y-87857870D01*
X117370927Y-87857870D02*
X117323308Y-87953108D01*
X117323308Y-87953108D02*
X117323308Y-88238822D01*
X117323308Y-88238822D02*
X117370927Y-88334060D01*
X117370927Y-88334060D02*
X117418546Y-88381680D01*
X117418546Y-88381680D02*
X117513784Y-88429299D01*
X117513784Y-88429299D02*
X117656641Y-88429299D01*
X116894736Y-88429299D02*
X116894736Y-87762632D01*
X116894736Y-87953108D02*
X116847117Y-87857870D01*
X116847117Y-87857870D02*
X116799498Y-87810251D01*
X116799498Y-87810251D02*
X116704260Y-87762632D01*
X116704260Y-87762632D02*
X116609022Y-87762632D01*
X115609021Y-87429299D02*
X114989974Y-87429299D01*
X114989974Y-87429299D02*
X115323307Y-87810251D01*
X115323307Y-87810251D02*
X115180450Y-87810251D01*
X115180450Y-87810251D02*
X115085212Y-87857870D01*
X115085212Y-87857870D02*
X115037593Y-87905489D01*
X115037593Y-87905489D02*
X114989974Y-88000727D01*
X114989974Y-88000727D02*
X114989974Y-88238822D01*
X114989974Y-88238822D02*
X115037593Y-88334060D01*
X115037593Y-88334060D02*
X115085212Y-88381680D01*
X115085212Y-88381680D02*
X115180450Y-88429299D01*
X115180450Y-88429299D02*
X115466164Y-88429299D01*
X115466164Y-88429299D02*
X115561402Y-88381680D01*
X115561402Y-88381680D02*
X115609021Y-88334060D01*
X113847116Y-88381680D02*
X113704259Y-88429299D01*
X113704259Y-88429299D02*
X113466164Y-88429299D01*
X113466164Y-88429299D02*
X113370926Y-88381680D01*
X113370926Y-88381680D02*
X113323307Y-88334060D01*
X113323307Y-88334060D02*
X113275688Y-88238822D01*
X113275688Y-88238822D02*
X113275688Y-88143584D01*
X113275688Y-88143584D02*
X113323307Y-88048346D01*
X113323307Y-88048346D02*
X113370926Y-88000727D01*
X113370926Y-88000727D02*
X113466164Y-87953108D01*
X113466164Y-87953108D02*
X113656640Y-87905489D01*
X113656640Y-87905489D02*
X113751878Y-87857870D01*
X113751878Y-87857870D02*
X113799497Y-87810251D01*
X113799497Y-87810251D02*
X113847116Y-87715013D01*
X113847116Y-87715013D02*
X113847116Y-87619775D01*
X113847116Y-87619775D02*
X113799497Y-87524537D01*
X113799497Y-87524537D02*
X113751878Y-87476918D01*
X113751878Y-87476918D02*
X113656640Y-87429299D01*
X113656640Y-87429299D02*
X113418545Y-87429299D01*
X113418545Y-87429299D02*
X113275688Y-87476918D01*
X112989973Y-87762632D02*
X112609021Y-87762632D01*
X112847116Y-87429299D02*
X112847116Y-88286441D01*
X112847116Y-88286441D02*
X112799497Y-88381680D01*
X112799497Y-88381680D02*
X112704259Y-88429299D01*
X112704259Y-88429299D02*
X112609021Y-88429299D01*
X111847116Y-88429299D02*
X111847116Y-87905489D01*
X111847116Y-87905489D02*
X111894735Y-87810251D01*
X111894735Y-87810251D02*
X111989973Y-87762632D01*
X111989973Y-87762632D02*
X112180449Y-87762632D01*
X112180449Y-87762632D02*
X112275687Y-87810251D01*
X111847116Y-88381680D02*
X111942354Y-88429299D01*
X111942354Y-88429299D02*
X112180449Y-88429299D01*
X112180449Y-88429299D02*
X112275687Y-88381680D01*
X112275687Y-88381680D02*
X112323306Y-88286441D01*
X112323306Y-88286441D02*
X112323306Y-88191203D01*
X112323306Y-88191203D02*
X112275687Y-88095965D01*
X112275687Y-88095965D02*
X112180449Y-88048346D01*
X112180449Y-88048346D02*
X111942354Y-88048346D01*
X111942354Y-88048346D02*
X111847116Y-88000727D01*
X110942354Y-87762632D02*
X110942354Y-88572156D01*
X110942354Y-88572156D02*
X110989973Y-88667394D01*
X110989973Y-88667394D02*
X111037592Y-88715013D01*
X111037592Y-88715013D02*
X111132830Y-88762632D01*
X111132830Y-88762632D02*
X111275687Y-88762632D01*
X111275687Y-88762632D02*
X111370925Y-88715013D01*
X110942354Y-88381680D02*
X111037592Y-88429299D01*
X111037592Y-88429299D02*
X111228068Y-88429299D01*
X111228068Y-88429299D02*
X111323306Y-88381680D01*
X111323306Y-88381680D02*
X111370925Y-88334060D01*
X111370925Y-88334060D02*
X111418544Y-88238822D01*
X111418544Y-88238822D02*
X111418544Y-87953108D01*
X111418544Y-87953108D02*
X111370925Y-87857870D01*
X111370925Y-87857870D02*
X111323306Y-87810251D01*
X111323306Y-87810251D02*
X111228068Y-87762632D01*
X111228068Y-87762632D02*
X111037592Y-87762632D01*
X111037592Y-87762632D02*
X110942354Y-87810251D01*
X110085211Y-88381680D02*
X110180449Y-88429299D01*
X110180449Y-88429299D02*
X110370925Y-88429299D01*
X110370925Y-88429299D02*
X110466163Y-88381680D01*
X110466163Y-88381680D02*
X110513782Y-88286441D01*
X110513782Y-88286441D02*
X110513782Y-87905489D01*
X110513782Y-87905489D02*
X110466163Y-87810251D01*
X110466163Y-87810251D02*
X110370925Y-87762632D01*
X110370925Y-87762632D02*
X110180449Y-87762632D01*
X110180449Y-87762632D02*
X110085211Y-87810251D01*
X110085211Y-87810251D02*
X110037592Y-87905489D01*
X110037592Y-87905489D02*
X110037592Y-88000727D01*
X110037592Y-88000727D02*
X110513782Y-88095965D01*
X118704260Y-89753584D02*
X118228070Y-89753584D01*
X118799498Y-90039299D02*
X118466165Y-89039299D01*
X118466165Y-89039299D02*
X118132832Y-90039299D01*
X117799498Y-90039299D02*
X117799498Y-89372632D01*
X117799498Y-89467870D02*
X117751879Y-89420251D01*
X117751879Y-89420251D02*
X117656641Y-89372632D01*
X117656641Y-89372632D02*
X117513784Y-89372632D01*
X117513784Y-89372632D02*
X117418546Y-89420251D01*
X117418546Y-89420251D02*
X117370927Y-89515489D01*
X117370927Y-89515489D02*
X117370927Y-90039299D01*
X117370927Y-89515489D02*
X117323308Y-89420251D01*
X117323308Y-89420251D02*
X117228070Y-89372632D01*
X117228070Y-89372632D02*
X117085213Y-89372632D01*
X117085213Y-89372632D02*
X116989974Y-89420251D01*
X116989974Y-89420251D02*
X116942355Y-89515489D01*
X116942355Y-89515489D02*
X116942355Y-90039299D01*
X116466165Y-89372632D02*
X116466165Y-90372632D01*
X116466165Y-89420251D02*
X116370927Y-89372632D01*
X116370927Y-89372632D02*
X116180451Y-89372632D01*
X116180451Y-89372632D02*
X116085213Y-89420251D01*
X116085213Y-89420251D02*
X116037594Y-89467870D01*
X116037594Y-89467870D02*
X115989975Y-89563108D01*
X115989975Y-89563108D02*
X115989975Y-89848822D01*
X115989975Y-89848822D02*
X116037594Y-89944060D01*
X116037594Y-89944060D02*
X116085213Y-89991680D01*
X116085213Y-89991680D02*
X116180451Y-90039299D01*
X116180451Y-90039299D02*
X116370927Y-90039299D01*
X116370927Y-90039299D02*
X116466165Y-89991680D01*
X114799498Y-89372632D02*
X114799498Y-90372632D01*
X114799498Y-89420251D02*
X114704260Y-89372632D01*
X114704260Y-89372632D02*
X114513784Y-89372632D01*
X114513784Y-89372632D02*
X114418546Y-89420251D01*
X114418546Y-89420251D02*
X114370927Y-89467870D01*
X114370927Y-89467870D02*
X114323308Y-89563108D01*
X114323308Y-89563108D02*
X114323308Y-89848822D01*
X114323308Y-89848822D02*
X114370927Y-89944060D01*
X114370927Y-89944060D02*
X114418546Y-89991680D01*
X114418546Y-89991680D02*
X114513784Y-90039299D01*
X114513784Y-90039299D02*
X114704260Y-90039299D01*
X114704260Y-90039299D02*
X114799498Y-89991680D01*
X113751879Y-90039299D02*
X113847117Y-89991680D01*
X113847117Y-89991680D02*
X113894736Y-89944060D01*
X113894736Y-89944060D02*
X113942355Y-89848822D01*
X113942355Y-89848822D02*
X113942355Y-89563108D01*
X113942355Y-89563108D02*
X113894736Y-89467870D01*
X113894736Y-89467870D02*
X113847117Y-89420251D01*
X113847117Y-89420251D02*
X113751879Y-89372632D01*
X113751879Y-89372632D02*
X113609022Y-89372632D01*
X113609022Y-89372632D02*
X113513784Y-89420251D01*
X113513784Y-89420251D02*
X113466165Y-89467870D01*
X113466165Y-89467870D02*
X113418546Y-89563108D01*
X113418546Y-89563108D02*
X113418546Y-89848822D01*
X113418546Y-89848822D02*
X113466165Y-89944060D01*
X113466165Y-89944060D02*
X113513784Y-89991680D01*
X113513784Y-89991680D02*
X113609022Y-90039299D01*
X113609022Y-90039299D02*
X113751879Y-90039299D01*
X112989974Y-89372632D02*
X112989974Y-90372632D01*
X112989974Y-89420251D02*
X112894736Y-89372632D01*
X112894736Y-89372632D02*
X112704260Y-89372632D01*
X112704260Y-89372632D02*
X112609022Y-89420251D01*
X112609022Y-89420251D02*
X112561403Y-89467870D01*
X112561403Y-89467870D02*
X112513784Y-89563108D01*
X112513784Y-89563108D02*
X112513784Y-89848822D01*
X112513784Y-89848822D02*
X112561403Y-89944060D01*
X112561403Y-89944060D02*
X112609022Y-89991680D01*
X112609022Y-89991680D02*
X112704260Y-90039299D01*
X112704260Y-90039299D02*
X112894736Y-90039299D01*
X112894736Y-90039299D02*
X112989974Y-89991680D01*
X111656641Y-89372632D02*
X111656641Y-90039299D01*
X112085212Y-89372632D02*
X112085212Y-89896441D01*
X112085212Y-89896441D02*
X112037593Y-89991680D01*
X112037593Y-89991680D02*
X111942355Y-90039299D01*
X111942355Y-90039299D02*
X111799498Y-90039299D01*
X111799498Y-90039299D02*
X111704260Y-89991680D01*
X111704260Y-89991680D02*
X111656641Y-89944060D01*
X111037593Y-90039299D02*
X111132831Y-89991680D01*
X111132831Y-89991680D02*
X111180450Y-89896441D01*
X111180450Y-89896441D02*
X111180450Y-89039299D01*
X110228069Y-90039299D02*
X110228069Y-89515489D01*
X110228069Y-89515489D02*
X110275688Y-89420251D01*
X110275688Y-89420251D02*
X110370926Y-89372632D01*
X110370926Y-89372632D02*
X110561402Y-89372632D01*
X110561402Y-89372632D02*
X110656640Y-89420251D01*
X110228069Y-89991680D02*
X110323307Y-90039299D01*
X110323307Y-90039299D02*
X110561402Y-90039299D01*
X110561402Y-90039299D02*
X110656640Y-89991680D01*
X110656640Y-89991680D02*
X110704259Y-89896441D01*
X110704259Y-89896441D02*
X110704259Y-89801203D01*
X110704259Y-89801203D02*
X110656640Y-89705965D01*
X110656640Y-89705965D02*
X110561402Y-89658346D01*
X110561402Y-89658346D02*
X110323307Y-89658346D01*
X110323307Y-89658346D02*
X110228069Y-89610727D01*
X109894735Y-89372632D02*
X109513783Y-89372632D01*
X109751878Y-89039299D02*
X109751878Y-89896441D01*
X109751878Y-89896441D02*
X109704259Y-89991680D01*
X109704259Y-89991680D02*
X109609021Y-90039299D01*
X109609021Y-90039299D02*
X109513783Y-90039299D01*
X108799497Y-89991680D02*
X108894735Y-90039299D01*
X108894735Y-90039299D02*
X109085211Y-90039299D01*
X109085211Y-90039299D02*
X109180449Y-89991680D01*
X109180449Y-89991680D02*
X109228068Y-89896441D01*
X109228068Y-89896441D02*
X109228068Y-89515489D01*
X109228068Y-89515489D02*
X109180449Y-89420251D01*
X109180449Y-89420251D02*
X109085211Y-89372632D01*
X109085211Y-89372632D02*
X108894735Y-89372632D01*
X108894735Y-89372632D02*
X108799497Y-89420251D01*
X108799497Y-89420251D02*
X108751878Y-89515489D01*
X108751878Y-89515489D02*
X108751878Y-89610727D01*
X108751878Y-89610727D02*
X109228068Y-89705965D01*
X118085213Y-91649299D02*
X118418546Y-91173108D01*
X118656641Y-91649299D02*
X118656641Y-90649299D01*
X118656641Y-90649299D02*
X118275689Y-90649299D01*
X118275689Y-90649299D02*
X118180451Y-90696918D01*
X118180451Y-90696918D02*
X118132832Y-90744537D01*
X118132832Y-90744537D02*
X118085213Y-90839775D01*
X118085213Y-90839775D02*
X118085213Y-90982632D01*
X118085213Y-90982632D02*
X118132832Y-91077870D01*
X118132832Y-91077870D02*
X118180451Y-91125489D01*
X118180451Y-91125489D02*
X118275689Y-91173108D01*
X118275689Y-91173108D02*
X118656641Y-91173108D01*
X117132832Y-91649299D02*
X117704260Y-91649299D01*
X117418546Y-91649299D02*
X117418546Y-90649299D01*
X117418546Y-90649299D02*
X117513784Y-90792156D01*
X117513784Y-90792156D02*
X117609022Y-90887394D01*
X117609022Y-90887394D02*
X117704260Y-90935013D01*
X116799498Y-90649299D02*
X116132832Y-90649299D01*
X116132832Y-90649299D02*
X116561403Y-91649299D01*
X114989974Y-91268346D02*
X114228070Y-91268346D01*
X114609022Y-91649299D02*
X114609022Y-90887394D01*
X112418546Y-91649299D02*
X112751879Y-91173108D01*
X112989974Y-91649299D02*
X112989974Y-90649299D01*
X112989974Y-90649299D02*
X112609022Y-90649299D01*
X112609022Y-90649299D02*
X112513784Y-90696918D01*
X112513784Y-90696918D02*
X112466165Y-90744537D01*
X112466165Y-90744537D02*
X112418546Y-90839775D01*
X112418546Y-90839775D02*
X112418546Y-90982632D01*
X112418546Y-90982632D02*
X112466165Y-91077870D01*
X112466165Y-91077870D02*
X112513784Y-91125489D01*
X112513784Y-91125489D02*
X112609022Y-91173108D01*
X112609022Y-91173108D02*
X112989974Y-91173108D01*
X111466165Y-91649299D02*
X112037593Y-91649299D01*
X111751879Y-91649299D02*
X111751879Y-90649299D01*
X111751879Y-90649299D02*
X111847117Y-90792156D01*
X111847117Y-90792156D02*
X111942355Y-90887394D01*
X111942355Y-90887394D02*
X112037593Y-90935013D01*
X110894736Y-91077870D02*
X110989974Y-91030251D01*
X110989974Y-91030251D02*
X111037593Y-90982632D01*
X111037593Y-90982632D02*
X111085212Y-90887394D01*
X111085212Y-90887394D02*
X111085212Y-90839775D01*
X111085212Y-90839775D02*
X111037593Y-90744537D01*
X111037593Y-90744537D02*
X110989974Y-90696918D01*
X110989974Y-90696918D02*
X110894736Y-90649299D01*
X110894736Y-90649299D02*
X110704260Y-90649299D01*
X110704260Y-90649299D02*
X110609022Y-90696918D01*
X110609022Y-90696918D02*
X110561403Y-90744537D01*
X110561403Y-90744537D02*
X110513784Y-90839775D01*
X110513784Y-90839775D02*
X110513784Y-90887394D01*
X110513784Y-90887394D02*
X110561403Y-90982632D01*
X110561403Y-90982632D02*
X110609022Y-91030251D01*
X110609022Y-91030251D02*
X110704260Y-91077870D01*
X110704260Y-91077870D02*
X110894736Y-91077870D01*
X110894736Y-91077870D02*
X110989974Y-91125489D01*
X110989974Y-91125489D02*
X111037593Y-91173108D01*
X111037593Y-91173108D02*
X111085212Y-91268346D01*
X111085212Y-91268346D02*
X111085212Y-91458822D01*
X111085212Y-91458822D02*
X111037593Y-91554060D01*
X111037593Y-91554060D02*
X110989974Y-91601680D01*
X110989974Y-91601680D02*
X110894736Y-91649299D01*
X110894736Y-91649299D02*
X110704260Y-91649299D01*
X110704260Y-91649299D02*
X110609022Y-91601680D01*
X110609022Y-91601680D02*
X110561403Y-91554060D01*
X110561403Y-91554060D02*
X110513784Y-91458822D01*
X110513784Y-91458822D02*
X110513784Y-91268346D01*
X110513784Y-91268346D02*
X110561403Y-91173108D01*
X110561403Y-91173108D02*
X110609022Y-91125489D01*
X110609022Y-91125489D02*
X110704260Y-91077870D01*
X110037593Y-91601680D02*
X110037593Y-91649299D01*
X110037593Y-91649299D02*
X110085212Y-91744537D01*
X110085212Y-91744537D02*
X110132831Y-91792156D01*
X118228070Y-93211680D02*
X118323308Y-93259299D01*
X118323308Y-93259299D02*
X118513784Y-93259299D01*
X118513784Y-93259299D02*
X118609022Y-93211680D01*
X118609022Y-93211680D02*
X118656641Y-93164060D01*
X118656641Y-93164060D02*
X118704260Y-93068822D01*
X118704260Y-93068822D02*
X118704260Y-92783108D01*
X118704260Y-92783108D02*
X118656641Y-92687870D01*
X118656641Y-92687870D02*
X118609022Y-92640251D01*
X118609022Y-92640251D02*
X118513784Y-92592632D01*
X118513784Y-92592632D02*
X118323308Y-92592632D01*
X118323308Y-92592632D02*
X118228070Y-92640251D01*
X117370927Y-92592632D02*
X117370927Y-93259299D01*
X117799498Y-92592632D02*
X117799498Y-93116441D01*
X117799498Y-93116441D02*
X117751879Y-93211680D01*
X117751879Y-93211680D02*
X117656641Y-93259299D01*
X117656641Y-93259299D02*
X117513784Y-93259299D01*
X117513784Y-93259299D02*
X117418546Y-93211680D01*
X117418546Y-93211680D02*
X117370927Y-93164060D01*
X117037593Y-92592632D02*
X116656641Y-92592632D01*
X116894736Y-92259299D02*
X116894736Y-93116441D01*
X116894736Y-93116441D02*
X116847117Y-93211680D01*
X116847117Y-93211680D02*
X116751879Y-93259299D01*
X116751879Y-93259299D02*
X116656641Y-93259299D01*
X115609021Y-93211680D02*
X115466164Y-93259299D01*
X115466164Y-93259299D02*
X115228069Y-93259299D01*
X115228069Y-93259299D02*
X115132831Y-93211680D01*
X115132831Y-93211680D02*
X115085212Y-93164060D01*
X115085212Y-93164060D02*
X115037593Y-93068822D01*
X115037593Y-93068822D02*
X115037593Y-92973584D01*
X115037593Y-92973584D02*
X115085212Y-92878346D01*
X115085212Y-92878346D02*
X115132831Y-92830727D01*
X115132831Y-92830727D02*
X115228069Y-92783108D01*
X115228069Y-92783108D02*
X115418545Y-92735489D01*
X115418545Y-92735489D02*
X115513783Y-92687870D01*
X115513783Y-92687870D02*
X115561402Y-92640251D01*
X115561402Y-92640251D02*
X115609021Y-92545013D01*
X115609021Y-92545013D02*
X115609021Y-92449775D01*
X115609021Y-92449775D02*
X115561402Y-92354537D01*
X115561402Y-92354537D02*
X115513783Y-92306918D01*
X115513783Y-92306918D02*
X115418545Y-92259299D01*
X115418545Y-92259299D02*
X115180450Y-92259299D01*
X115180450Y-92259299D02*
X115037593Y-92306918D01*
X114656640Y-92354537D02*
X114609021Y-92306918D01*
X114609021Y-92306918D02*
X114513783Y-92259299D01*
X114513783Y-92259299D02*
X114275688Y-92259299D01*
X114275688Y-92259299D02*
X114180450Y-92306918D01*
X114180450Y-92306918D02*
X114132831Y-92354537D01*
X114132831Y-92354537D02*
X114085212Y-92449775D01*
X114085212Y-92449775D02*
X114085212Y-92545013D01*
X114085212Y-92545013D02*
X114132831Y-92687870D01*
X114132831Y-92687870D02*
X114704259Y-93259299D01*
X114704259Y-93259299D02*
X114085212Y-93259299D01*
X113894736Y-93354537D02*
X113132831Y-93354537D01*
X112894735Y-92735489D02*
X112561402Y-92735489D01*
X112418545Y-93259299D02*
X112894735Y-93259299D01*
X112894735Y-93259299D02*
X112894735Y-92259299D01*
X112894735Y-92259299D02*
X112418545Y-92259299D01*
X111989973Y-93259299D02*
X111989973Y-92259299D01*
X111989973Y-92259299D02*
X111418545Y-93259299D01*
X111418545Y-93259299D02*
X111418545Y-92259299D01*
X109656640Y-93259299D02*
X110228068Y-93259299D01*
X109942354Y-93259299D02*
X109942354Y-92259299D01*
X109942354Y-92259299D02*
X110037592Y-92402156D01*
X110037592Y-92402156D02*
X110132830Y-92497394D01*
X110132830Y-92497394D02*
X110228068Y-92545013D01*
X108513783Y-92211680D02*
X109370925Y-93497394D01*
X108228068Y-92354537D02*
X108180449Y-92306918D01*
X108180449Y-92306918D02*
X108085211Y-92259299D01*
X108085211Y-92259299D02*
X107847116Y-92259299D01*
X107847116Y-92259299D02*
X107751878Y-92306918D01*
X107751878Y-92306918D02*
X107704259Y-92354537D01*
X107704259Y-92354537D02*
X107656640Y-92449775D01*
X107656640Y-92449775D02*
X107656640Y-92545013D01*
X107656640Y-92545013D02*
X107704259Y-92687870D01*
X107704259Y-92687870D02*
X108275687Y-93259299D01*
X108275687Y-93259299D02*
X107656640Y-93259299D01*
X118228070Y-94869299D02*
X118228070Y-94345489D01*
X118228070Y-94345489D02*
X118275689Y-94250251D01*
X118275689Y-94250251D02*
X118370927Y-94202632D01*
X118370927Y-94202632D02*
X118561403Y-94202632D01*
X118561403Y-94202632D02*
X118656641Y-94250251D01*
X118228070Y-94821680D02*
X118323308Y-94869299D01*
X118323308Y-94869299D02*
X118561403Y-94869299D01*
X118561403Y-94869299D02*
X118656641Y-94821680D01*
X118656641Y-94821680D02*
X118704260Y-94726441D01*
X118704260Y-94726441D02*
X118704260Y-94631203D01*
X118704260Y-94631203D02*
X118656641Y-94535965D01*
X118656641Y-94535965D02*
X118561403Y-94488346D01*
X118561403Y-94488346D02*
X118323308Y-94488346D01*
X118323308Y-94488346D02*
X118228070Y-94440727D01*
X117751879Y-94202632D02*
X117751879Y-94869299D01*
X117751879Y-94297870D02*
X117704260Y-94250251D01*
X117704260Y-94250251D02*
X117609022Y-94202632D01*
X117609022Y-94202632D02*
X117466165Y-94202632D01*
X117466165Y-94202632D02*
X117370927Y-94250251D01*
X117370927Y-94250251D02*
X117323308Y-94345489D01*
X117323308Y-94345489D02*
X117323308Y-94869299D01*
X116418546Y-94869299D02*
X116418546Y-93869299D01*
X116418546Y-94821680D02*
X116513784Y-94869299D01*
X116513784Y-94869299D02*
X116704260Y-94869299D01*
X116704260Y-94869299D02*
X116799498Y-94821680D01*
X116799498Y-94821680D02*
X116847117Y-94774060D01*
X116847117Y-94774060D02*
X116894736Y-94678822D01*
X116894736Y-94678822D02*
X116894736Y-94393108D01*
X116894736Y-94393108D02*
X116847117Y-94297870D01*
X116847117Y-94297870D02*
X116799498Y-94250251D01*
X116799498Y-94250251D02*
X116704260Y-94202632D01*
X116704260Y-94202632D02*
X116513784Y-94202632D01*
X116513784Y-94202632D02*
X116418546Y-94250251D01*
X115228069Y-94821680D02*
X115132831Y-94869299D01*
X115132831Y-94869299D02*
X114942355Y-94869299D01*
X114942355Y-94869299D02*
X114847117Y-94821680D01*
X114847117Y-94821680D02*
X114799498Y-94726441D01*
X114799498Y-94726441D02*
X114799498Y-94678822D01*
X114799498Y-94678822D02*
X114847117Y-94583584D01*
X114847117Y-94583584D02*
X114942355Y-94535965D01*
X114942355Y-94535965D02*
X115085212Y-94535965D01*
X115085212Y-94535965D02*
X115180450Y-94488346D01*
X115180450Y-94488346D02*
X115228069Y-94393108D01*
X115228069Y-94393108D02*
X115228069Y-94345489D01*
X115228069Y-94345489D02*
X115180450Y-94250251D01*
X115180450Y-94250251D02*
X115085212Y-94202632D01*
X115085212Y-94202632D02*
X114942355Y-94202632D01*
X114942355Y-94202632D02*
X114847117Y-94250251D01*
X114228069Y-94869299D02*
X114323307Y-94821680D01*
X114323307Y-94821680D02*
X114370926Y-94774060D01*
X114370926Y-94774060D02*
X114418545Y-94678822D01*
X114418545Y-94678822D02*
X114418545Y-94393108D01*
X114418545Y-94393108D02*
X114370926Y-94297870D01*
X114370926Y-94297870D02*
X114323307Y-94250251D01*
X114323307Y-94250251D02*
X114228069Y-94202632D01*
X114228069Y-94202632D02*
X114085212Y-94202632D01*
X114085212Y-94202632D02*
X113989974Y-94250251D01*
X113989974Y-94250251D02*
X113942355Y-94297870D01*
X113942355Y-94297870D02*
X113894736Y-94393108D01*
X113894736Y-94393108D02*
X113894736Y-94678822D01*
X113894736Y-94678822D02*
X113942355Y-94774060D01*
X113942355Y-94774060D02*
X113989974Y-94821680D01*
X113989974Y-94821680D02*
X114085212Y-94869299D01*
X114085212Y-94869299D02*
X114228069Y-94869299D01*
X113323307Y-94869299D02*
X113418545Y-94821680D01*
X113418545Y-94821680D02*
X113466164Y-94726441D01*
X113466164Y-94726441D02*
X113466164Y-93869299D01*
X112513783Y-94869299D02*
X112513783Y-93869299D01*
X112513783Y-94821680D02*
X112609021Y-94869299D01*
X112609021Y-94869299D02*
X112799497Y-94869299D01*
X112799497Y-94869299D02*
X112894735Y-94821680D01*
X112894735Y-94821680D02*
X112942354Y-94774060D01*
X112942354Y-94774060D02*
X112989973Y-94678822D01*
X112989973Y-94678822D02*
X112989973Y-94393108D01*
X112989973Y-94393108D02*
X112942354Y-94297870D01*
X112942354Y-94297870D02*
X112894735Y-94250251D01*
X112894735Y-94250251D02*
X112799497Y-94202632D01*
X112799497Y-94202632D02*
X112609021Y-94202632D01*
X112609021Y-94202632D02*
X112513783Y-94250251D01*
X111656640Y-94821680D02*
X111751878Y-94869299D01*
X111751878Y-94869299D02*
X111942354Y-94869299D01*
X111942354Y-94869299D02*
X112037592Y-94821680D01*
X112037592Y-94821680D02*
X112085211Y-94726441D01*
X112085211Y-94726441D02*
X112085211Y-94345489D01*
X112085211Y-94345489D02*
X112037592Y-94250251D01*
X112037592Y-94250251D02*
X111942354Y-94202632D01*
X111942354Y-94202632D02*
X111751878Y-94202632D01*
X111751878Y-94202632D02*
X111656640Y-94250251D01*
X111656640Y-94250251D02*
X111609021Y-94345489D01*
X111609021Y-94345489D02*
X111609021Y-94440727D01*
X111609021Y-94440727D02*
X112085211Y-94535965D01*
X111180449Y-94869299D02*
X111180449Y-94202632D01*
X111180449Y-94393108D02*
X111132830Y-94297870D01*
X111132830Y-94297870D02*
X111085211Y-94250251D01*
X111085211Y-94250251D02*
X110989973Y-94202632D01*
X110989973Y-94202632D02*
X110894735Y-94202632D01*
X109847115Y-93964537D02*
X109799496Y-93916918D01*
X109799496Y-93916918D02*
X109704258Y-93869299D01*
X109704258Y-93869299D02*
X109466163Y-93869299D01*
X109466163Y-93869299D02*
X109370925Y-93916918D01*
X109370925Y-93916918D02*
X109323306Y-93964537D01*
X109323306Y-93964537D02*
X109275687Y-94059775D01*
X109275687Y-94059775D02*
X109275687Y-94155013D01*
X109275687Y-94155013D02*
X109323306Y-94297870D01*
X109323306Y-94297870D02*
X109894734Y-94869299D01*
X109894734Y-94869299D02*
X109275687Y-94869299D01*
X108132830Y-93821680D02*
X108989972Y-95107394D01*
X107894734Y-93869299D02*
X107275687Y-93869299D01*
X107275687Y-93869299D02*
X107609020Y-94250251D01*
X107609020Y-94250251D02*
X107466163Y-94250251D01*
X107466163Y-94250251D02*
X107370925Y-94297870D01*
X107370925Y-94297870D02*
X107323306Y-94345489D01*
X107323306Y-94345489D02*
X107275687Y-94440727D01*
X107275687Y-94440727D02*
X107275687Y-94678822D01*
X107275687Y-94678822D02*
X107323306Y-94774060D01*
X107323306Y-94774060D02*
X107370925Y-94821680D01*
X107370925Y-94821680D02*
X107466163Y-94869299D01*
X107466163Y-94869299D02*
X107751877Y-94869299D01*
X107751877Y-94869299D02*
X107847115Y-94821680D01*
X107847115Y-94821680D02*
X107894734Y-94774060D01*
D12*
X87589819Y-102869663D02*
X87923152Y-102393472D01*
X88161247Y-102869663D02*
X88161247Y-101869663D01*
X88161247Y-101869663D02*
X87780295Y-101869663D01*
X87780295Y-101869663D02*
X87685057Y-101917282D01*
X87685057Y-101917282D02*
X87637438Y-101964901D01*
X87637438Y-101964901D02*
X87589819Y-102060139D01*
X87589819Y-102060139D02*
X87589819Y-102202996D01*
X87589819Y-102202996D02*
X87637438Y-102298234D01*
X87637438Y-102298234D02*
X87685057Y-102345853D01*
X87685057Y-102345853D02*
X87780295Y-102393472D01*
X87780295Y-102393472D02*
X88161247Y-102393472D01*
X86780295Y-102822044D02*
X86875533Y-102869663D01*
X86875533Y-102869663D02*
X87066009Y-102869663D01*
X87066009Y-102869663D02*
X87161247Y-102822044D01*
X87161247Y-102822044D02*
X87208866Y-102726805D01*
X87208866Y-102726805D02*
X87208866Y-102345853D01*
X87208866Y-102345853D02*
X87161247Y-102250615D01*
X87161247Y-102250615D02*
X87066009Y-102202996D01*
X87066009Y-102202996D02*
X86875533Y-102202996D01*
X86875533Y-102202996D02*
X86780295Y-102250615D01*
X86780295Y-102250615D02*
X86732676Y-102345853D01*
X86732676Y-102345853D02*
X86732676Y-102441091D01*
X86732676Y-102441091D02*
X87208866Y-102536329D01*
X86399342Y-102202996D02*
X86161247Y-102869663D01*
X86161247Y-102869663D02*
X85923152Y-102202996D01*
X84256485Y-102869663D02*
X84827913Y-102869663D01*
X84542199Y-102869663D02*
X84542199Y-101869663D01*
X84542199Y-101869663D02*
X84637437Y-102012520D01*
X84637437Y-102012520D02*
X84732675Y-102107758D01*
X84732675Y-102107758D02*
X84827913Y-102155377D01*
%TO.C,C1*%
X96166666Y-95359424D02*
X96214285Y-95407044D01*
X96214285Y-95407044D02*
X96357142Y-95454663D01*
X96357142Y-95454663D02*
X96452380Y-95454663D01*
X96452380Y-95454663D02*
X96595237Y-95407044D01*
X96595237Y-95407044D02*
X96690475Y-95311805D01*
X96690475Y-95311805D02*
X96738094Y-95216567D01*
X96738094Y-95216567D02*
X96785713Y-95026091D01*
X96785713Y-95026091D02*
X96785713Y-94883234D01*
X96785713Y-94883234D02*
X96738094Y-94692758D01*
X96738094Y-94692758D02*
X96690475Y-94597520D01*
X96690475Y-94597520D02*
X96595237Y-94502282D01*
X96595237Y-94502282D02*
X96452380Y-94454663D01*
X96452380Y-94454663D02*
X96357142Y-94454663D01*
X96357142Y-94454663D02*
X96214285Y-94502282D01*
X96214285Y-94502282D02*
X96166666Y-94549901D01*
X95214285Y-95454663D02*
X95785713Y-95454663D01*
X95499999Y-95454663D02*
X95499999Y-94454663D01*
X95499999Y-94454663D02*
X95595237Y-94597520D01*
X95595237Y-94597520D02*
X95690475Y-94692758D01*
X95690475Y-94692758D02*
X95785713Y-94740377D01*
%TO.C,R7*%
X103666666Y-95454663D02*
X103999999Y-94978472D01*
X104238094Y-95454663D02*
X104238094Y-94454663D01*
X104238094Y-94454663D02*
X103857142Y-94454663D01*
X103857142Y-94454663D02*
X103761904Y-94502282D01*
X103761904Y-94502282D02*
X103714285Y-94549901D01*
X103714285Y-94549901D02*
X103666666Y-94645139D01*
X103666666Y-94645139D02*
X103666666Y-94787996D01*
X103666666Y-94787996D02*
X103714285Y-94883234D01*
X103714285Y-94883234D02*
X103761904Y-94930853D01*
X103761904Y-94930853D02*
X103857142Y-94978472D01*
X103857142Y-94978472D02*
X104238094Y-94978472D01*
X103333332Y-94454663D02*
X102666666Y-94454663D01*
X102666666Y-94454663D02*
X103095237Y-95454663D01*
%TO.C,EN_Filter1*%
X99547619Y-103930853D02*
X99214286Y-103930853D01*
X99071429Y-104454663D02*
X99547619Y-104454663D01*
X99547619Y-104454663D02*
X99547619Y-103454663D01*
X99547619Y-103454663D02*
X99071429Y-103454663D01*
X98642857Y-104454663D02*
X98642857Y-103454663D01*
X98642857Y-103454663D02*
X98071429Y-104454663D01*
X98071429Y-104454663D02*
X98071429Y-103454663D01*
X97833334Y-104549901D02*
X97071429Y-104549901D01*
X96500000Y-103930853D02*
X96833333Y-103930853D01*
X96833333Y-104454663D02*
X96833333Y-103454663D01*
X96833333Y-103454663D02*
X96357143Y-103454663D01*
X95976190Y-104454663D02*
X95976190Y-103787996D01*
X95976190Y-103454663D02*
X96023809Y-103502282D01*
X96023809Y-103502282D02*
X95976190Y-103549901D01*
X95976190Y-103549901D02*
X95928571Y-103502282D01*
X95928571Y-103502282D02*
X95976190Y-103454663D01*
X95976190Y-103454663D02*
X95976190Y-103549901D01*
X95357143Y-104454663D02*
X95452381Y-104407044D01*
X95452381Y-104407044D02*
X95500000Y-104311805D01*
X95500000Y-104311805D02*
X95500000Y-103454663D01*
X95119047Y-103787996D02*
X94738095Y-103787996D01*
X94976190Y-103454663D02*
X94976190Y-104311805D01*
X94976190Y-104311805D02*
X94928571Y-104407044D01*
X94928571Y-104407044D02*
X94833333Y-104454663D01*
X94833333Y-104454663D02*
X94738095Y-104454663D01*
X94023809Y-104407044D02*
X94119047Y-104454663D01*
X94119047Y-104454663D02*
X94309523Y-104454663D01*
X94309523Y-104454663D02*
X94404761Y-104407044D01*
X94404761Y-104407044D02*
X94452380Y-104311805D01*
X94452380Y-104311805D02*
X94452380Y-103930853D01*
X94452380Y-103930853D02*
X94404761Y-103835615D01*
X94404761Y-103835615D02*
X94309523Y-103787996D01*
X94309523Y-103787996D02*
X94119047Y-103787996D01*
X94119047Y-103787996D02*
X94023809Y-103835615D01*
X94023809Y-103835615D02*
X93976190Y-103930853D01*
X93976190Y-103930853D02*
X93976190Y-104026091D01*
X93976190Y-104026091D02*
X94452380Y-104121329D01*
X93547618Y-104454663D02*
X93547618Y-103787996D01*
X93547618Y-103978472D02*
X93499999Y-103883234D01*
X93499999Y-103883234D02*
X93452380Y-103835615D01*
X93452380Y-103835615D02*
X93357142Y-103787996D01*
X93357142Y-103787996D02*
X93261904Y-103787996D01*
X92404761Y-104454663D02*
X92976189Y-104454663D01*
X92690475Y-104454663D02*
X92690475Y-103454663D01*
X92690475Y-103454663D02*
X92785713Y-103597520D01*
X92785713Y-103597520D02*
X92880951Y-103692758D01*
X92880951Y-103692758D02*
X92976189Y-103740377D01*
%TO.C,R9*%
X92166666Y-83454663D02*
X92499999Y-82978472D01*
X92738094Y-83454663D02*
X92738094Y-82454663D01*
X92738094Y-82454663D02*
X92357142Y-82454663D01*
X92357142Y-82454663D02*
X92261904Y-82502282D01*
X92261904Y-82502282D02*
X92214285Y-82549901D01*
X92214285Y-82549901D02*
X92166666Y-82645139D01*
X92166666Y-82645139D02*
X92166666Y-82787996D01*
X92166666Y-82787996D02*
X92214285Y-82883234D01*
X92214285Y-82883234D02*
X92261904Y-82930853D01*
X92261904Y-82930853D02*
X92357142Y-82978472D01*
X92357142Y-82978472D02*
X92738094Y-82978472D01*
X91690475Y-83454663D02*
X91499999Y-83454663D01*
X91499999Y-83454663D02*
X91404761Y-83407044D01*
X91404761Y-83407044D02*
X91357142Y-83359424D01*
X91357142Y-83359424D02*
X91261904Y-83216567D01*
X91261904Y-83216567D02*
X91214285Y-83026091D01*
X91214285Y-83026091D02*
X91214285Y-82645139D01*
X91214285Y-82645139D02*
X91261904Y-82549901D01*
X91261904Y-82549901D02*
X91309523Y-82502282D01*
X91309523Y-82502282D02*
X91404761Y-82454663D01*
X91404761Y-82454663D02*
X91595237Y-82454663D01*
X91595237Y-82454663D02*
X91690475Y-82502282D01*
X91690475Y-82502282D02*
X91738094Y-82549901D01*
X91738094Y-82549901D02*
X91785713Y-82645139D01*
X91785713Y-82645139D02*
X91785713Y-82883234D01*
X91785713Y-82883234D02*
X91738094Y-82978472D01*
X91738094Y-82978472D02*
X91690475Y-83026091D01*
X91690475Y-83026091D02*
X91595237Y-83073710D01*
X91595237Y-83073710D02*
X91404761Y-83073710D01*
X91404761Y-83073710D02*
X91309523Y-83026091D01*
X91309523Y-83026091D02*
X91261904Y-82978472D01*
X91261904Y-82978472D02*
X91214285Y-82883234D01*
%TO.C,C2*%
X100016666Y-97359424D02*
X100064285Y-97407044D01*
X100064285Y-97407044D02*
X100207142Y-97454663D01*
X100207142Y-97454663D02*
X100302380Y-97454663D01*
X100302380Y-97454663D02*
X100445237Y-97407044D01*
X100445237Y-97407044D02*
X100540475Y-97311805D01*
X100540475Y-97311805D02*
X100588094Y-97216567D01*
X100588094Y-97216567D02*
X100635713Y-97026091D01*
X100635713Y-97026091D02*
X100635713Y-96883234D01*
X100635713Y-96883234D02*
X100588094Y-96692758D01*
X100588094Y-96692758D02*
X100540475Y-96597520D01*
X100540475Y-96597520D02*
X100445237Y-96502282D01*
X100445237Y-96502282D02*
X100302380Y-96454663D01*
X100302380Y-96454663D02*
X100207142Y-96454663D01*
X100207142Y-96454663D02*
X100064285Y-96502282D01*
X100064285Y-96502282D02*
X100016666Y-96549901D01*
X99635713Y-96549901D02*
X99588094Y-96502282D01*
X99588094Y-96502282D02*
X99492856Y-96454663D01*
X99492856Y-96454663D02*
X99254761Y-96454663D01*
X99254761Y-96454663D02*
X99159523Y-96502282D01*
X99159523Y-96502282D02*
X99111904Y-96549901D01*
X99111904Y-96549901D02*
X99064285Y-96645139D01*
X99064285Y-96645139D02*
X99064285Y-96740377D01*
X99064285Y-96740377D02*
X99111904Y-96883234D01*
X99111904Y-96883234D02*
X99683332Y-97454663D01*
X99683332Y-97454663D02*
X99064285Y-97454663D01*
%TO.C,R18*%
X92642857Y-89454663D02*
X92976190Y-88978472D01*
X93214285Y-89454663D02*
X93214285Y-88454663D01*
X93214285Y-88454663D02*
X92833333Y-88454663D01*
X92833333Y-88454663D02*
X92738095Y-88502282D01*
X92738095Y-88502282D02*
X92690476Y-88549901D01*
X92690476Y-88549901D02*
X92642857Y-88645139D01*
X92642857Y-88645139D02*
X92642857Y-88787996D01*
X92642857Y-88787996D02*
X92690476Y-88883234D01*
X92690476Y-88883234D02*
X92738095Y-88930853D01*
X92738095Y-88930853D02*
X92833333Y-88978472D01*
X92833333Y-88978472D02*
X93214285Y-88978472D01*
X91690476Y-89454663D02*
X92261904Y-89454663D01*
X91976190Y-89454663D02*
X91976190Y-88454663D01*
X91976190Y-88454663D02*
X92071428Y-88597520D01*
X92071428Y-88597520D02*
X92166666Y-88692758D01*
X92166666Y-88692758D02*
X92261904Y-88740377D01*
X91119047Y-88883234D02*
X91214285Y-88835615D01*
X91214285Y-88835615D02*
X91261904Y-88787996D01*
X91261904Y-88787996D02*
X91309523Y-88692758D01*
X91309523Y-88692758D02*
X91309523Y-88645139D01*
X91309523Y-88645139D02*
X91261904Y-88549901D01*
X91261904Y-88549901D02*
X91214285Y-88502282D01*
X91214285Y-88502282D02*
X91119047Y-88454663D01*
X91119047Y-88454663D02*
X90928571Y-88454663D01*
X90928571Y-88454663D02*
X90833333Y-88502282D01*
X90833333Y-88502282D02*
X90785714Y-88549901D01*
X90785714Y-88549901D02*
X90738095Y-88645139D01*
X90738095Y-88645139D02*
X90738095Y-88692758D01*
X90738095Y-88692758D02*
X90785714Y-88787996D01*
X90785714Y-88787996D02*
X90833333Y-88835615D01*
X90833333Y-88835615D02*
X90928571Y-88883234D01*
X90928571Y-88883234D02*
X91119047Y-88883234D01*
X91119047Y-88883234D02*
X91214285Y-88930853D01*
X91214285Y-88930853D02*
X91261904Y-88978472D01*
X91261904Y-88978472D02*
X91309523Y-89073710D01*
X91309523Y-89073710D02*
X91309523Y-89264186D01*
X91309523Y-89264186D02*
X91261904Y-89359424D01*
X91261904Y-89359424D02*
X91214285Y-89407044D01*
X91214285Y-89407044D02*
X91119047Y-89454663D01*
X91119047Y-89454663D02*
X90928571Y-89454663D01*
X90928571Y-89454663D02*
X90833333Y-89407044D01*
X90833333Y-89407044D02*
X90785714Y-89359424D01*
X90785714Y-89359424D02*
X90738095Y-89264186D01*
X90738095Y-89264186D02*
X90738095Y-89073710D01*
X90738095Y-89073710D02*
X90785714Y-88978472D01*
X90785714Y-88978472D02*
X90833333Y-88930853D01*
X90833333Y-88930853D02*
X90928571Y-88883234D01*
%TO.C,R17*%
X95642857Y-93454663D02*
X95976190Y-92978472D01*
X96214285Y-93454663D02*
X96214285Y-92454663D01*
X96214285Y-92454663D02*
X95833333Y-92454663D01*
X95833333Y-92454663D02*
X95738095Y-92502282D01*
X95738095Y-92502282D02*
X95690476Y-92549901D01*
X95690476Y-92549901D02*
X95642857Y-92645139D01*
X95642857Y-92645139D02*
X95642857Y-92787996D01*
X95642857Y-92787996D02*
X95690476Y-92883234D01*
X95690476Y-92883234D02*
X95738095Y-92930853D01*
X95738095Y-92930853D02*
X95833333Y-92978472D01*
X95833333Y-92978472D02*
X96214285Y-92978472D01*
X94690476Y-93454663D02*
X95261904Y-93454663D01*
X94976190Y-93454663D02*
X94976190Y-92454663D01*
X94976190Y-92454663D02*
X95071428Y-92597520D01*
X95071428Y-92597520D02*
X95166666Y-92692758D01*
X95166666Y-92692758D02*
X95261904Y-92740377D01*
X94357142Y-92454663D02*
X93690476Y-92454663D01*
X93690476Y-92454663D02*
X94119047Y-93454663D01*
%TO.C,R10*%
X104142857Y-89454663D02*
X104476190Y-88978472D01*
X104714285Y-89454663D02*
X104714285Y-88454663D01*
X104714285Y-88454663D02*
X104333333Y-88454663D01*
X104333333Y-88454663D02*
X104238095Y-88502282D01*
X104238095Y-88502282D02*
X104190476Y-88549901D01*
X104190476Y-88549901D02*
X104142857Y-88645139D01*
X104142857Y-88645139D02*
X104142857Y-88787996D01*
X104142857Y-88787996D02*
X104190476Y-88883234D01*
X104190476Y-88883234D02*
X104238095Y-88930853D01*
X104238095Y-88930853D02*
X104333333Y-88978472D01*
X104333333Y-88978472D02*
X104714285Y-88978472D01*
X103190476Y-89454663D02*
X103761904Y-89454663D01*
X103476190Y-89454663D02*
X103476190Y-88454663D01*
X103476190Y-88454663D02*
X103571428Y-88597520D01*
X103571428Y-88597520D02*
X103666666Y-88692758D01*
X103666666Y-88692758D02*
X103761904Y-88740377D01*
X102571428Y-88454663D02*
X102476190Y-88454663D01*
X102476190Y-88454663D02*
X102380952Y-88502282D01*
X102380952Y-88502282D02*
X102333333Y-88549901D01*
X102333333Y-88549901D02*
X102285714Y-88645139D01*
X102285714Y-88645139D02*
X102238095Y-88835615D01*
X102238095Y-88835615D02*
X102238095Y-89073710D01*
X102238095Y-89073710D02*
X102285714Y-89264186D01*
X102285714Y-89264186D02*
X102333333Y-89359424D01*
X102333333Y-89359424D02*
X102380952Y-89407044D01*
X102380952Y-89407044D02*
X102476190Y-89454663D01*
X102476190Y-89454663D02*
X102571428Y-89454663D01*
X102571428Y-89454663D02*
X102666666Y-89407044D01*
X102666666Y-89407044D02*
X102714285Y-89359424D01*
X102714285Y-89359424D02*
X102761904Y-89264186D01*
X102761904Y-89264186D02*
X102809523Y-89073710D01*
X102809523Y-89073710D02*
X102809523Y-88835615D01*
X102809523Y-88835615D02*
X102761904Y-88645139D01*
X102761904Y-88645139D02*
X102714285Y-88549901D01*
X102714285Y-88549901D02*
X102666666Y-88502282D01*
X102666666Y-88502282D02*
X102571428Y-88454663D01*
%TO.C,C3*%
X96166666Y-89359424D02*
X96214285Y-89407044D01*
X96214285Y-89407044D02*
X96357142Y-89454663D01*
X96357142Y-89454663D02*
X96452380Y-89454663D01*
X96452380Y-89454663D02*
X96595237Y-89407044D01*
X96595237Y-89407044D02*
X96690475Y-89311805D01*
X96690475Y-89311805D02*
X96738094Y-89216567D01*
X96738094Y-89216567D02*
X96785713Y-89026091D01*
X96785713Y-89026091D02*
X96785713Y-88883234D01*
X96785713Y-88883234D02*
X96738094Y-88692758D01*
X96738094Y-88692758D02*
X96690475Y-88597520D01*
X96690475Y-88597520D02*
X96595237Y-88502282D01*
X96595237Y-88502282D02*
X96452380Y-88454663D01*
X96452380Y-88454663D02*
X96357142Y-88454663D01*
X96357142Y-88454663D02*
X96214285Y-88502282D01*
X96214285Y-88502282D02*
X96166666Y-88549901D01*
X95833332Y-88454663D02*
X95214285Y-88454663D01*
X95214285Y-88454663D02*
X95547618Y-88835615D01*
X95547618Y-88835615D02*
X95404761Y-88835615D01*
X95404761Y-88835615D02*
X95309523Y-88883234D01*
X95309523Y-88883234D02*
X95261904Y-88930853D01*
X95261904Y-88930853D02*
X95214285Y-89026091D01*
X95214285Y-89026091D02*
X95214285Y-89264186D01*
X95214285Y-89264186D02*
X95261904Y-89359424D01*
X95261904Y-89359424D02*
X95309523Y-89407044D01*
X95309523Y-89407044D02*
X95404761Y-89454663D01*
X95404761Y-89454663D02*
X95690475Y-89454663D01*
X95690475Y-89454663D02*
X95785713Y-89407044D01*
X95785713Y-89407044D02*
X95833332Y-89359424D01*
%TO.C,EN_Filter2*%
X99547619Y-79930853D02*
X99214286Y-79930853D01*
X99071429Y-80454663D02*
X99547619Y-80454663D01*
X99547619Y-80454663D02*
X99547619Y-79454663D01*
X99547619Y-79454663D02*
X99071429Y-79454663D01*
X98642857Y-80454663D02*
X98642857Y-79454663D01*
X98642857Y-79454663D02*
X98071429Y-80454663D01*
X98071429Y-80454663D02*
X98071429Y-79454663D01*
X97833334Y-80549901D02*
X97071429Y-80549901D01*
X96500000Y-79930853D02*
X96833333Y-79930853D01*
X96833333Y-80454663D02*
X96833333Y-79454663D01*
X96833333Y-79454663D02*
X96357143Y-79454663D01*
X95976190Y-80454663D02*
X95976190Y-79787996D01*
X95976190Y-79454663D02*
X96023809Y-79502282D01*
X96023809Y-79502282D02*
X95976190Y-79549901D01*
X95976190Y-79549901D02*
X95928571Y-79502282D01*
X95928571Y-79502282D02*
X95976190Y-79454663D01*
X95976190Y-79454663D02*
X95976190Y-79549901D01*
X95357143Y-80454663D02*
X95452381Y-80407044D01*
X95452381Y-80407044D02*
X95500000Y-80311805D01*
X95500000Y-80311805D02*
X95500000Y-79454663D01*
X95119047Y-79787996D02*
X94738095Y-79787996D01*
X94976190Y-79454663D02*
X94976190Y-80311805D01*
X94976190Y-80311805D02*
X94928571Y-80407044D01*
X94928571Y-80407044D02*
X94833333Y-80454663D01*
X94833333Y-80454663D02*
X94738095Y-80454663D01*
X94023809Y-80407044D02*
X94119047Y-80454663D01*
X94119047Y-80454663D02*
X94309523Y-80454663D01*
X94309523Y-80454663D02*
X94404761Y-80407044D01*
X94404761Y-80407044D02*
X94452380Y-80311805D01*
X94452380Y-80311805D02*
X94452380Y-79930853D01*
X94452380Y-79930853D02*
X94404761Y-79835615D01*
X94404761Y-79835615D02*
X94309523Y-79787996D01*
X94309523Y-79787996D02*
X94119047Y-79787996D01*
X94119047Y-79787996D02*
X94023809Y-79835615D01*
X94023809Y-79835615D02*
X93976190Y-79930853D01*
X93976190Y-79930853D02*
X93976190Y-80026091D01*
X93976190Y-80026091D02*
X94452380Y-80121329D01*
X93547618Y-80454663D02*
X93547618Y-79787996D01*
X93547618Y-79978472D02*
X93499999Y-79883234D01*
X93499999Y-79883234D02*
X93452380Y-79835615D01*
X93452380Y-79835615D02*
X93357142Y-79787996D01*
X93357142Y-79787996D02*
X93261904Y-79787996D01*
X92976189Y-79549901D02*
X92928570Y-79502282D01*
X92928570Y-79502282D02*
X92833332Y-79454663D01*
X92833332Y-79454663D02*
X92595237Y-79454663D01*
X92595237Y-79454663D02*
X92499999Y-79502282D01*
X92499999Y-79502282D02*
X92452380Y-79549901D01*
X92452380Y-79549901D02*
X92404761Y-79645139D01*
X92404761Y-79645139D02*
X92404761Y-79740377D01*
X92404761Y-79740377D02*
X92452380Y-79883234D01*
X92452380Y-79883234D02*
X93023808Y-80454663D01*
X93023808Y-80454663D02*
X92404761Y-80454663D01*
%TO.C,R6*%
X92166666Y-97454663D02*
X92499999Y-96978472D01*
X92738094Y-97454663D02*
X92738094Y-96454663D01*
X92738094Y-96454663D02*
X92357142Y-96454663D01*
X92357142Y-96454663D02*
X92261904Y-96502282D01*
X92261904Y-96502282D02*
X92214285Y-96549901D01*
X92214285Y-96549901D02*
X92166666Y-96645139D01*
X92166666Y-96645139D02*
X92166666Y-96787996D01*
X92166666Y-96787996D02*
X92214285Y-96883234D01*
X92214285Y-96883234D02*
X92261904Y-96930853D01*
X92261904Y-96930853D02*
X92357142Y-96978472D01*
X92357142Y-96978472D02*
X92738094Y-96978472D01*
X91309523Y-96454663D02*
X91499999Y-96454663D01*
X91499999Y-96454663D02*
X91595237Y-96502282D01*
X91595237Y-96502282D02*
X91642856Y-96549901D01*
X91642856Y-96549901D02*
X91738094Y-96692758D01*
X91738094Y-96692758D02*
X91785713Y-96883234D01*
X91785713Y-96883234D02*
X91785713Y-97264186D01*
X91785713Y-97264186D02*
X91738094Y-97359424D01*
X91738094Y-97359424D02*
X91690475Y-97407044D01*
X91690475Y-97407044D02*
X91595237Y-97454663D01*
X91595237Y-97454663D02*
X91404761Y-97454663D01*
X91404761Y-97454663D02*
X91309523Y-97407044D01*
X91309523Y-97407044D02*
X91261904Y-97359424D01*
X91261904Y-97359424D02*
X91214285Y-97264186D01*
X91214285Y-97264186D02*
X91214285Y-97026091D01*
X91214285Y-97026091D02*
X91261904Y-96930853D01*
X91261904Y-96930853D02*
X91309523Y-96883234D01*
X91309523Y-96883234D02*
X91404761Y-96835615D01*
X91404761Y-96835615D02*
X91595237Y-96835615D01*
X91595237Y-96835615D02*
X91690475Y-96883234D01*
X91690475Y-96883234D02*
X91738094Y-96930853D01*
X91738094Y-96930853D02*
X91785713Y-97026091D01*
%TO.C,C4*%
X100166666Y-83359424D02*
X100214285Y-83407044D01*
X100214285Y-83407044D02*
X100357142Y-83454663D01*
X100357142Y-83454663D02*
X100452380Y-83454663D01*
X100452380Y-83454663D02*
X100595237Y-83407044D01*
X100595237Y-83407044D02*
X100690475Y-83311805D01*
X100690475Y-83311805D02*
X100738094Y-83216567D01*
X100738094Y-83216567D02*
X100785713Y-83026091D01*
X100785713Y-83026091D02*
X100785713Y-82883234D01*
X100785713Y-82883234D02*
X100738094Y-82692758D01*
X100738094Y-82692758D02*
X100690475Y-82597520D01*
X100690475Y-82597520D02*
X100595237Y-82502282D01*
X100595237Y-82502282D02*
X100452380Y-82454663D01*
X100452380Y-82454663D02*
X100357142Y-82454663D01*
X100357142Y-82454663D02*
X100214285Y-82502282D01*
X100214285Y-82502282D02*
X100166666Y-82549901D01*
X99309523Y-82787996D02*
X99309523Y-83454663D01*
X99547618Y-82407044D02*
X99785713Y-83121329D01*
X99785713Y-83121329D02*
X99166666Y-83121329D01*
D13*
%TO.C,C1*%
X95265000Y-98261252D02*
X95265000Y-97738748D01*
X96735000Y-98261252D02*
X96735000Y-97738748D01*
%TO.C,G\u002A\u002A\u002A*%
G36*
X88483510Y-88973180D02*
G01*
X88483510Y-89360423D01*
X88096267Y-89360423D01*
X87709023Y-89360423D01*
X87709023Y-88973180D01*
X87709023Y-88585936D01*
X88096267Y-88585936D01*
X88483510Y-88585936D01*
X88483510Y-88973180D01*
G37*
G36*
X86966148Y-98828127D02*
G01*
X86966148Y-99966148D01*
X85828127Y-99966148D01*
X84690106Y-99966148D01*
X84690106Y-98828127D01*
X84690106Y-97690105D01*
X85828127Y-97690105D01*
X86966148Y-97690105D01*
X86966148Y-98828127D01*
G37*
G36*
X86966148Y-85171873D02*
G01*
X86966148Y-86309894D01*
X85828127Y-86309894D01*
X84690106Y-86309894D01*
X84690106Y-85171873D01*
X84690106Y-84033852D01*
X85828127Y-84033852D01*
X86966148Y-84033852D01*
X86966148Y-85171873D01*
G37*
G36*
X80896702Y-97318668D02*
G01*
X80896702Y-97705911D01*
X80509459Y-97705911D01*
X80122216Y-97705911D01*
X80122216Y-97318668D01*
X80122216Y-96931425D01*
X80509459Y-96931425D01*
X80896702Y-96931425D01*
X80896702Y-97318668D01*
G37*
G36*
X74827256Y-96559987D02*
G01*
X74827256Y-96947231D01*
X74440013Y-96947231D01*
X74052769Y-96947231D01*
X74052769Y-96559987D01*
X74052769Y-96172744D01*
X74440013Y-96172744D01*
X74827256Y-96172744D01*
X74827256Y-96559987D01*
G37*
G36*
X73309895Y-85171873D02*
G01*
X73309895Y-86309894D01*
X72171873Y-86309894D01*
X71033852Y-86309894D01*
X71033852Y-85171873D01*
X71033852Y-84033852D01*
X72171873Y-84033852D01*
X73309895Y-84033852D01*
X73309895Y-85171873D01*
G37*
G36*
X77103298Y-83283074D02*
G01*
X77103298Y-84049657D01*
X76716341Y-84049657D01*
X76329384Y-84049657D01*
X76325146Y-83674269D01*
X76320909Y-83298880D01*
X75945520Y-83294642D01*
X75570131Y-83290405D01*
X75570131Y-82903447D01*
X75570131Y-82516490D01*
X76336715Y-82516490D01*
X77103298Y-82516490D01*
X77103298Y-83283074D01*
G37*
G36*
X88483510Y-98828127D02*
G01*
X88483510Y-101483509D01*
X85828127Y-101483509D01*
X83172745Y-101483509D01*
X83172745Y-100724829D01*
X83931425Y-100724829D01*
X85828127Y-100724829D01*
X87724829Y-100724829D01*
X87724829Y-98828127D01*
X87724829Y-96931425D01*
X85828127Y-96931425D01*
X83931425Y-96931425D01*
X83931425Y-98828127D01*
X83931425Y-100724829D01*
X83172745Y-100724829D01*
X83172745Y-98828127D01*
X83172745Y-96172744D01*
X85828127Y-96172744D01*
X88483510Y-96172744D01*
X88483510Y-96931425D01*
X88483510Y-98828127D01*
G37*
G36*
X88483510Y-85171873D02*
G01*
X88483510Y-87827255D01*
X85828127Y-87827255D01*
X83172745Y-87827255D01*
X83172745Y-87068575D01*
X83931425Y-87068575D01*
X85828127Y-87068575D01*
X87724829Y-87068575D01*
X87724829Y-85171873D01*
X87724829Y-83275171D01*
X85828127Y-83275171D01*
X83931425Y-83275171D01*
X83931425Y-85171873D01*
X83931425Y-87068575D01*
X83172745Y-87068575D01*
X83172745Y-85171873D01*
X83172745Y-82516490D01*
X85828127Y-82516490D01*
X88483510Y-82516490D01*
X88483510Y-83275171D01*
X88483510Y-85171873D01*
G37*
G36*
X74827256Y-85171873D02*
G01*
X74827256Y-87827255D01*
X72171873Y-87827255D01*
X69516491Y-87827255D01*
X69516491Y-87068575D01*
X70275171Y-87068575D01*
X72171873Y-87068575D01*
X74068575Y-87068575D01*
X74068575Y-85171873D01*
X74068575Y-83275171D01*
X72171873Y-83275171D01*
X70275171Y-83275171D01*
X70275171Y-85171873D01*
X70275171Y-87068575D01*
X69516491Y-87068575D01*
X69516491Y-85171873D01*
X69516491Y-82516490D01*
X72171873Y-82516490D01*
X74827256Y-82516490D01*
X74827256Y-83275171D01*
X74827256Y-85171873D01*
G37*
G36*
X78620660Y-85179776D02*
G01*
X78620660Y-85567019D01*
X78241320Y-85567019D01*
X77861979Y-85567019D01*
X77861979Y-87084381D01*
X77861979Y-88601742D01*
X77474736Y-88601742D01*
X77087493Y-88601742D01*
X77086843Y-88226353D01*
X77086837Y-88222945D01*
X77086458Y-88085325D01*
X77085808Y-87928911D01*
X77084954Y-87766174D01*
X77083960Y-87609588D01*
X77082891Y-87471624D01*
X77079590Y-87092283D01*
X76712104Y-87088041D01*
X76344618Y-87083798D01*
X76344618Y-87842770D01*
X76344618Y-88601742D01*
X75957374Y-88601742D01*
X75570131Y-88601742D01*
X75569792Y-88230305D01*
X75569743Y-88168297D01*
X75569676Y-88054988D01*
X75569614Y-87919006D01*
X75569561Y-87765647D01*
X75569516Y-87600209D01*
X75569482Y-87427987D01*
X75569461Y-87254279D01*
X75569454Y-87084381D01*
X75569457Y-86969650D01*
X75569474Y-86795967D01*
X75569504Y-86621776D01*
X75569545Y-86452429D01*
X75569597Y-86293280D01*
X75569656Y-86149682D01*
X75569721Y-86026988D01*
X75569792Y-85930554D01*
X75570131Y-85551213D01*
X76328812Y-85551213D01*
X77087493Y-85551213D01*
X77087493Y-85171873D01*
X77087493Y-84792532D01*
X77854076Y-84792532D01*
X78620660Y-84792532D01*
X78620660Y-85179776D01*
G37*
G36*
X82414064Y-98456689D02*
G01*
X82414064Y-99981954D01*
X82030772Y-99982492D01*
X81978919Y-99982552D01*
X81865057Y-99982628D01*
X81728217Y-99982667D01*
X81573924Y-99982669D01*
X81407705Y-99982635D01*
X81235086Y-99982565D01*
X81061592Y-99982462D01*
X80892751Y-99982324D01*
X80138021Y-99981618D01*
X80138021Y-100353223D01*
X80138021Y-100724829D01*
X81276043Y-100724829D01*
X82414064Y-100724829D01*
X82414064Y-101111791D01*
X82414064Y-101498753D01*
X82030772Y-101502986D01*
X82013216Y-101503167D01*
X81923296Y-101503838D01*
X81812277Y-101504333D01*
X81682935Y-101504662D01*
X81538042Y-101504835D01*
X81380374Y-101504861D01*
X81212705Y-101504749D01*
X81037808Y-101504509D01*
X80858459Y-101504150D01*
X80677430Y-101503682D01*
X80497497Y-101503113D01*
X80321434Y-101502454D01*
X80152014Y-101501713D01*
X79992013Y-101500900D01*
X79844203Y-101500025D01*
X79711360Y-101499096D01*
X79596258Y-101498123D01*
X79501670Y-101497116D01*
X79430372Y-101496084D01*
X79385137Y-101495037D01*
X79368739Y-101493982D01*
X79367585Y-101477771D01*
X79366349Y-101433025D01*
X79365076Y-101362855D01*
X79363805Y-101270362D01*
X79362573Y-101158650D01*
X79361418Y-101030822D01*
X79360378Y-100889980D01*
X79359492Y-100739226D01*
X79355632Y-99989857D01*
X78980243Y-99985619D01*
X78604854Y-99981382D01*
X78604854Y-99594424D01*
X78604854Y-99207467D01*
X80122383Y-99207467D01*
X81639913Y-99207467D01*
X81639207Y-98452738D01*
X81639125Y-98358706D01*
X81639007Y-98186569D01*
X81638922Y-98012886D01*
X81638872Y-97843186D01*
X81638858Y-97682992D01*
X81638881Y-97537832D01*
X81638941Y-97413232D01*
X81639039Y-97314717D01*
X81639577Y-96931425D01*
X82026820Y-96931425D01*
X82414064Y-96931425D01*
X82414064Y-98456689D01*
G37*
G36*
X82414064Y-86317259D02*
G01*
X82414064Y-88600666D01*
X82030772Y-88605156D01*
X82024848Y-88605224D01*
X81884665Y-88606373D01*
X81726019Y-88606940D01*
X81561426Y-88606924D01*
X81403405Y-88606327D01*
X81264473Y-88605148D01*
X80881466Y-88600650D01*
X80877230Y-88225807D01*
X80872993Y-87850964D01*
X80505507Y-87846721D01*
X80138021Y-87842479D01*
X80138021Y-88222110D01*
X80138021Y-88601742D01*
X79758681Y-88601742D01*
X79379341Y-88601742D01*
X79379341Y-88973180D01*
X79379341Y-89344617D01*
X80517362Y-89344617D01*
X81655383Y-89344617D01*
X81655383Y-89723957D01*
X81655383Y-90103298D01*
X82785793Y-90103298D01*
X83916202Y-90103298D01*
X83911959Y-89735812D01*
X83907717Y-89368326D01*
X83532328Y-89364088D01*
X83156939Y-89359851D01*
X83156939Y-88972893D01*
X83156939Y-88585936D01*
X85061544Y-88585936D01*
X86966148Y-88585936D01*
X86966148Y-89344617D01*
X86966148Y-90103298D01*
X87724829Y-90103298D01*
X88483510Y-90103298D01*
X88483510Y-90490541D01*
X88483510Y-90861979D01*
X88483510Y-90877784D01*
X88100218Y-90878323D01*
X88048365Y-90878383D01*
X87934503Y-90878459D01*
X87797663Y-90878498D01*
X87643371Y-90878500D01*
X87477152Y-90878466D01*
X87304532Y-90878396D01*
X87131039Y-90878292D01*
X86962197Y-90878155D01*
X86207468Y-90877449D01*
X86207468Y-91249054D01*
X86207468Y-91620659D01*
X87345489Y-91620659D01*
X88483510Y-91620659D01*
X88483510Y-93525264D01*
X88483510Y-95429869D01*
X88096267Y-95429869D01*
X87709023Y-95429869D01*
X87708557Y-95054480D01*
X87708469Y-95000602D01*
X87708207Y-94887930D01*
X87707816Y-94752315D01*
X87707316Y-94599196D01*
X87706726Y-94434008D01*
X87706065Y-94262190D01*
X87705352Y-94089178D01*
X87704605Y-93920410D01*
X87701120Y-93161730D01*
X87326017Y-93157493D01*
X86950913Y-93153256D01*
X86946676Y-92778152D01*
X86942440Y-92403049D01*
X86574954Y-92398806D01*
X86207468Y-92394563D01*
X86207468Y-93532876D01*
X86207468Y-94671188D01*
X85820224Y-94671188D01*
X85432981Y-94671188D01*
X85432586Y-94295799D01*
X85432540Y-94260034D01*
X85432373Y-94165430D01*
X85432117Y-94044757D01*
X85431782Y-93901733D01*
X85431376Y-93740074D01*
X85430909Y-93563500D01*
X85430392Y-93375726D01*
X85429834Y-93180471D01*
X85429245Y-92981453D01*
X85428634Y-92782389D01*
X85425078Y-91644368D01*
X84678252Y-91640509D01*
X83931425Y-91636651D01*
X83931425Y-92007995D01*
X83931425Y-92379340D01*
X84310766Y-92379340D01*
X84690106Y-92379340D01*
X84690106Y-92766583D01*
X84690106Y-93138021D01*
X84690106Y-93153827D01*
X84310766Y-93153827D01*
X83931425Y-93153827D01*
X83931425Y-93533167D01*
X83931425Y-93896702D01*
X83931425Y-93912507D01*
X83552085Y-93912507D01*
X83172745Y-93912507D01*
X83172745Y-94283945D01*
X83172745Y-94655382D01*
X83552085Y-94655382D01*
X83931425Y-94655382D01*
X83931425Y-95042626D01*
X83931425Y-95429869D01*
X83544468Y-95429869D01*
X83157511Y-95429869D01*
X83153273Y-95054480D01*
X83149036Y-94679091D01*
X82781550Y-94674848D01*
X82414064Y-94670606D01*
X82414064Y-95429578D01*
X82414064Y-96188550D01*
X82027368Y-96188550D01*
X81640672Y-96188550D01*
X81636173Y-95805258D01*
X81636105Y-95799401D01*
X81634952Y-95659199D01*
X81634382Y-95500500D01*
X81634393Y-95335829D01*
X81634987Y-95177711D01*
X81636164Y-95038674D01*
X81640653Y-94655382D01*
X82019747Y-94655382D01*
X82398841Y-94655382D01*
X82394598Y-94287896D01*
X82390355Y-93920410D01*
X82014966Y-93916173D01*
X81639577Y-93911935D01*
X81639577Y-93896702D01*
X82414064Y-93896702D01*
X82785793Y-93896702D01*
X83157521Y-93896702D01*
X83153279Y-93529216D01*
X83149036Y-93161730D01*
X82781550Y-93157487D01*
X82414064Y-93153244D01*
X82414064Y-93524973D01*
X82414064Y-93896702D01*
X81639577Y-93896702D01*
X81639577Y-93524978D01*
X81639577Y-93138021D01*
X82018696Y-93138021D01*
X82397815Y-93138021D01*
X83172745Y-93138021D01*
X83544473Y-93138021D01*
X83916202Y-93138021D01*
X83911959Y-92770535D01*
X83907717Y-92403049D01*
X83540231Y-92398806D01*
X83172745Y-92394563D01*
X83172745Y-92766292D01*
X83172745Y-93138021D01*
X82397815Y-93138021D01*
X82394085Y-92011854D01*
X82392789Y-91620659D01*
X83172745Y-91620659D01*
X83544473Y-91620659D01*
X83916202Y-91620659D01*
X83911959Y-91253173D01*
X83907717Y-90885687D01*
X83540231Y-90881445D01*
X83172745Y-90877202D01*
X83172745Y-91248931D01*
X83172745Y-91620659D01*
X82392789Y-91620659D01*
X82390355Y-90885687D01*
X82022869Y-90881445D01*
X81655383Y-90877202D01*
X81655383Y-91256833D01*
X81655383Y-91620659D01*
X81655383Y-91636465D01*
X81276043Y-91636465D01*
X80896702Y-91636465D01*
X80896702Y-92395146D01*
X80896702Y-93138021D01*
X80896702Y-93153827D01*
X80517362Y-93153827D01*
X80138021Y-93153827D01*
X80138021Y-93525264D01*
X80138021Y-93896702D01*
X80517362Y-93896702D01*
X80896702Y-93896702D01*
X80896702Y-94663285D01*
X80896702Y-95429869D01*
X80513410Y-95430649D01*
X80505744Y-95430664D01*
X80366066Y-95430820D01*
X80208834Y-95430811D01*
X80046340Y-95430648D01*
X79890875Y-95430342D01*
X79754730Y-95429907D01*
X79379341Y-95428386D01*
X79379341Y-95808468D01*
X79379341Y-96188550D01*
X79000000Y-96188550D01*
X78620660Y-96188550D01*
X78620660Y-96559987D01*
X78620660Y-96931425D01*
X79000000Y-96931425D01*
X79379341Y-96931425D01*
X79379341Y-97690105D01*
X79379341Y-97698008D01*
X79379341Y-98464592D01*
X78992383Y-98464592D01*
X78605426Y-98464592D01*
X78601189Y-98089203D01*
X78596951Y-97713814D01*
X78229465Y-97709571D01*
X77861979Y-97705329D01*
X77861979Y-98084960D01*
X77861979Y-98448786D01*
X77861979Y-98464592D01*
X77482639Y-98464592D01*
X77103298Y-98464592D01*
X77103298Y-98843932D01*
X77103298Y-99207467D01*
X77103298Y-99223273D01*
X76723958Y-99223273D01*
X76344618Y-99223273D01*
X76344618Y-99594710D01*
X76344618Y-99966148D01*
X77103298Y-99966148D01*
X77861979Y-99966148D01*
X77861979Y-100353391D01*
X77861979Y-100724829D01*
X77861979Y-100740634D01*
X77482639Y-100740634D01*
X77103298Y-100740634D01*
X77103298Y-101119975D01*
X77103298Y-101499315D01*
X76716341Y-101499315D01*
X76329384Y-101499315D01*
X76325146Y-101123926D01*
X76320909Y-100748537D01*
X75194742Y-100744807D01*
X74068575Y-100741077D01*
X74068575Y-101119915D01*
X74068575Y-101498753D01*
X73685283Y-101502986D01*
X73667517Y-101503166D01*
X73587021Y-101503740D01*
X73482289Y-101504203D01*
X73355554Y-101504559D01*
X73209051Y-101504812D01*
X73045013Y-101504968D01*
X72865675Y-101505031D01*
X72673270Y-101505006D01*
X72470032Y-101504897D01*
X72258196Y-101504710D01*
X72039994Y-101504449D01*
X71817661Y-101504119D01*
X71593432Y-101503725D01*
X71369539Y-101503271D01*
X71148216Y-101502762D01*
X70931699Y-101502204D01*
X70722220Y-101501599D01*
X70522013Y-101500954D01*
X70333313Y-101500274D01*
X70158353Y-101499562D01*
X69999367Y-101498823D01*
X69858590Y-101498064D01*
X69738255Y-101497287D01*
X69640595Y-101496498D01*
X69567846Y-101495702D01*
X69522240Y-101494903D01*
X69506013Y-101494106D01*
X69505291Y-101479306D01*
X69504568Y-101434559D01*
X69503883Y-101361615D01*
X69503241Y-101262222D01*
X69502644Y-101138132D01*
X69502094Y-100991092D01*
X69501595Y-100822853D01*
X69501363Y-100724829D01*
X70275171Y-100724829D01*
X71026241Y-100724829D01*
X71777310Y-100724829D01*
X71773067Y-100357343D01*
X71768824Y-99989857D01*
X71393721Y-99985620D01*
X71018617Y-99981383D01*
X71018445Y-99966148D01*
X71792533Y-99966148D01*
X72543602Y-99966148D01*
X73294671Y-99966148D01*
X74068575Y-99966148D01*
X74819644Y-99966148D01*
X75570714Y-99966148D01*
X75566471Y-99598662D01*
X75562228Y-99231176D01*
X74815402Y-99227317D01*
X74068575Y-99223458D01*
X74068575Y-99594803D01*
X74068575Y-99966148D01*
X73294671Y-99966148D01*
X73290429Y-99598662D01*
X73286186Y-99231176D01*
X72911082Y-99226939D01*
X72535979Y-99222702D01*
X72535807Y-99207467D01*
X73309895Y-99207467D01*
X73681623Y-99207467D01*
X74053352Y-99207467D01*
X74049109Y-98839981D01*
X74044867Y-98472495D01*
X73677381Y-98468252D01*
X73309895Y-98464009D01*
X73309895Y-98835738D01*
X73309895Y-99207467D01*
X72535807Y-99207467D01*
X72531742Y-98847599D01*
X72527505Y-98472495D01*
X72160019Y-98468252D01*
X71792533Y-98464009D01*
X71792533Y-99215079D01*
X71792533Y-99966148D01*
X71018445Y-99966148D01*
X71014380Y-99606279D01*
X71010143Y-99231176D01*
X70642657Y-99226933D01*
X70275171Y-99222690D01*
X70275171Y-99973759D01*
X70275171Y-100724829D01*
X69501363Y-100724829D01*
X69501150Y-100635163D01*
X69500761Y-100429773D01*
X69500432Y-100208432D01*
X69500165Y-99972889D01*
X69499964Y-99724894D01*
X69499830Y-99466197D01*
X69499768Y-99198545D01*
X69499780Y-98923691D01*
X69499870Y-98643381D01*
X69499986Y-98448786D01*
X70275171Y-98448786D01*
X70646900Y-98448786D01*
X71018629Y-98448786D01*
X71014386Y-98081300D01*
X71010143Y-97713814D01*
X70642657Y-97709571D01*
X70275171Y-97705329D01*
X70275171Y-98077057D01*
X70275171Y-98448786D01*
X69499986Y-98448786D01*
X69500039Y-98359367D01*
X69500291Y-98073397D01*
X69500685Y-97690105D01*
X69880317Y-97690105D01*
X70259948Y-97690105D01*
X71033852Y-97690105D01*
X71405581Y-97690105D01*
X71777310Y-97690105D01*
X73309895Y-97690105D01*
X74439791Y-97690105D01*
X75569688Y-97690105D01*
X76344618Y-97690105D01*
X77095687Y-97690105D01*
X77846756Y-97690105D01*
X77842513Y-97322619D01*
X77838270Y-96955133D01*
X77463167Y-96950897D01*
X77088063Y-96946660D01*
X77083826Y-96571556D01*
X77079590Y-96196453D01*
X76712104Y-96192210D01*
X76344618Y-96187967D01*
X76344618Y-96939036D01*
X76344618Y-97690105D01*
X75569688Y-97690105D01*
X75565958Y-96563939D01*
X75562228Y-95437772D01*
X74436061Y-95434042D01*
X73309895Y-95430312D01*
X73309895Y-96560209D01*
X73309895Y-97690105D01*
X71777310Y-97690105D01*
X71773067Y-97322619D01*
X71768824Y-96955133D01*
X71401338Y-96950891D01*
X71033852Y-96946648D01*
X71033852Y-97318377D01*
X71033852Y-97690105D01*
X70259948Y-97690105D01*
X70255705Y-97322619D01*
X70251463Y-96955133D01*
X69876074Y-96950896D01*
X69500685Y-96946658D01*
X69500685Y-96559701D01*
X69500685Y-96172744D01*
X70260107Y-96172744D01*
X71019529Y-96172744D01*
X71018008Y-95797355D01*
X71017978Y-95789844D01*
X71017551Y-95652171D01*
X71017254Y-95495926D01*
X71017099Y-95333401D01*
X71017100Y-95176887D01*
X71017267Y-95038674D01*
X71018015Y-94670606D01*
X71792533Y-94670606D01*
X71792533Y-95042334D01*
X71792533Y-95414063D01*
X72164262Y-95414063D01*
X72535991Y-95414063D01*
X72531748Y-95046577D01*
X72527505Y-94679091D01*
X72160019Y-94674848D01*
X71792533Y-94670606D01*
X71018015Y-94670606D01*
X71018046Y-94655382D01*
X71397165Y-94655382D01*
X71776284Y-94655382D01*
X72551214Y-94655382D01*
X72922943Y-94655382D01*
X73294671Y-94655382D01*
X73290429Y-94287896D01*
X73286186Y-93920410D01*
X72918700Y-93916168D01*
X72551214Y-93911925D01*
X72551214Y-94283654D01*
X72551214Y-94655382D01*
X71776284Y-94655382D01*
X71773771Y-93896702D01*
X73309895Y-93896702D01*
X73681623Y-93896702D01*
X74053352Y-93896702D01*
X74049109Y-93529216D01*
X74044867Y-93161730D01*
X73677381Y-93157487D01*
X73309895Y-93153244D01*
X73309895Y-93524973D01*
X73309895Y-93896702D01*
X71773771Y-93896702D01*
X71772554Y-93529216D01*
X71771258Y-93138021D01*
X72551214Y-93138021D01*
X72922943Y-93138021D01*
X73294671Y-93138021D01*
X74068575Y-93138021D01*
X74447916Y-93138021D01*
X74827256Y-93138021D01*
X74827256Y-93517361D01*
X74827256Y-93896702D01*
X75578325Y-93896702D01*
X76329394Y-93896702D01*
X76325152Y-93529216D01*
X76320909Y-93161730D01*
X75945805Y-93157493D01*
X75570702Y-93153256D01*
X75570530Y-93138021D01*
X76344618Y-93138021D01*
X76723958Y-93138021D01*
X77103298Y-93138021D01*
X77103298Y-93517361D01*
X77103298Y-93896702D01*
X77482639Y-93896702D01*
X77861979Y-93896702D01*
X77861979Y-94283945D01*
X77861979Y-94655382D01*
X77861979Y-94671188D01*
X77482639Y-94671188D01*
X77103298Y-94671188D01*
X77103298Y-95042626D01*
X77103298Y-95414063D01*
X78233324Y-95414063D01*
X79363349Y-95414063D01*
X79359491Y-94667237D01*
X79355632Y-93920410D01*
X78980243Y-93916173D01*
X78604854Y-93911935D01*
X78604854Y-93524978D01*
X78604854Y-93138021D01*
X79363826Y-93138021D01*
X80122798Y-93138021D01*
X80118555Y-92770535D01*
X80114313Y-92403049D01*
X79734972Y-92399747D01*
X79731461Y-92399717D01*
X79592835Y-92398650D01*
X79435965Y-92397659D01*
X79273315Y-92396809D01*
X79117349Y-92396167D01*
X78980529Y-92395796D01*
X78605426Y-92395146D01*
X78601189Y-92019757D01*
X78596951Y-91644368D01*
X78229465Y-91640125D01*
X77861979Y-91635883D01*
X77861979Y-92015514D01*
X77861979Y-92379340D01*
X77861979Y-92395146D01*
X77478687Y-92395926D01*
X77471021Y-92395941D01*
X77331343Y-92396097D01*
X77174111Y-92396088D01*
X77011617Y-92395924D01*
X76856151Y-92395619D01*
X76720007Y-92395184D01*
X76344618Y-92393663D01*
X76344618Y-92765842D01*
X76344618Y-93138021D01*
X75570530Y-93138021D01*
X75566465Y-92778152D01*
X75562228Y-92403049D01*
X74815402Y-92399190D01*
X74068575Y-92395332D01*
X74068575Y-92766676D01*
X74068575Y-93138021D01*
X73294671Y-93138021D01*
X73290429Y-92770535D01*
X73286186Y-92403049D01*
X72918700Y-92398806D01*
X72551214Y-92394563D01*
X72551214Y-92766292D01*
X72551214Y-93138021D01*
X71771258Y-93138021D01*
X71768824Y-92403049D01*
X71401338Y-92398806D01*
X71033852Y-92394563D01*
X71033852Y-93153535D01*
X71033852Y-93912507D01*
X70654512Y-93912507D01*
X70275171Y-93912507D01*
X70275171Y-94291848D01*
X70275171Y-94671188D01*
X69888475Y-94671188D01*
X69501779Y-94671188D01*
X69497281Y-94287896D01*
X69497213Y-94282039D01*
X69496060Y-94141838D01*
X69495489Y-93983139D01*
X69495501Y-93818467D01*
X69496095Y-93660350D01*
X69497271Y-93521313D01*
X69501761Y-93138021D01*
X69880855Y-93138021D01*
X70259948Y-93138021D01*
X70255705Y-92770535D01*
X70251463Y-92403049D01*
X69876074Y-92398811D01*
X69500685Y-92394574D01*
X69500254Y-92023422D01*
X69500231Y-92003110D01*
X69500101Y-91866583D01*
X69499989Y-91712060D01*
X69499901Y-91551203D01*
X69499843Y-91395671D01*
X69499823Y-91257125D01*
X69499823Y-91237468D01*
X69499850Y-91094611D01*
X69499913Y-90935811D01*
X69500006Y-90772956D01*
X69500122Y-90617936D01*
X69500254Y-90482638D01*
X69500685Y-90103298D01*
X69880025Y-90103298D01*
X70259366Y-90103298D01*
X70259366Y-89723957D01*
X70259366Y-89344617D01*
X70638706Y-89344617D01*
X71018046Y-89344617D01*
X71018046Y-88965277D01*
X71018046Y-88585936D01*
X72922651Y-88585936D01*
X74827256Y-88585936D01*
X74827256Y-88973180D01*
X74827256Y-89360423D01*
X74447916Y-89360423D01*
X74068575Y-89360423D01*
X74068575Y-90119104D01*
X74068575Y-90877784D01*
X73689235Y-90878215D01*
X73670328Y-90878236D01*
X73531251Y-90878366D01*
X73374265Y-90878479D01*
X73211260Y-90878568D01*
X73054125Y-90878626D01*
X72914748Y-90878647D01*
X72893259Y-90878646D01*
X72751027Y-90878619D01*
X72593733Y-90878555D01*
X72433046Y-90878463D01*
X72280634Y-90878347D01*
X72148165Y-90878215D01*
X71776727Y-90877784D01*
X71776727Y-90490541D01*
X71776727Y-90103298D01*
X72535699Y-90103298D01*
X73294671Y-90103298D01*
X73290429Y-89735812D01*
X73286186Y-89368326D01*
X72160019Y-89364596D01*
X71033852Y-89360866D01*
X71033852Y-90119325D01*
X71033852Y-90877784D01*
X70654512Y-90877784D01*
X70275171Y-90877784D01*
X70275171Y-91249222D01*
X70275171Y-91620659D01*
X71033852Y-91620659D01*
X71792533Y-91620659D01*
X71792533Y-92000000D01*
X71792533Y-92379340D01*
X72163970Y-92379340D01*
X72535408Y-92379340D01*
X72535408Y-92000000D01*
X72535408Y-91620659D01*
X72922651Y-91620659D01*
X73309895Y-91620659D01*
X73309895Y-92000000D01*
X73309895Y-92379340D01*
X73681332Y-92379340D01*
X74052769Y-92379340D01*
X75585937Y-92379340D01*
X75957666Y-92379340D01*
X76329394Y-92379340D01*
X76325152Y-92011854D01*
X76320909Y-91644368D01*
X75953423Y-91640125D01*
X75585937Y-91635883D01*
X75585937Y-92007611D01*
X75585937Y-92379340D01*
X74052769Y-92379340D01*
X74052769Y-92000000D01*
X74052769Y-91620659D01*
X74432110Y-91620659D01*
X74811450Y-91620659D01*
X77103298Y-91620659D01*
X77475027Y-91620659D01*
X77846756Y-91620659D01*
X79379341Y-91620659D01*
X80130026Y-91620659D01*
X80880711Y-91620659D01*
X80876852Y-90873833D01*
X80876791Y-90861979D01*
X83931425Y-90861979D01*
X84303154Y-90861979D01*
X84674883Y-90861979D01*
X84670640Y-90494493D01*
X84666397Y-90127007D01*
X84298911Y-90122764D01*
X83931425Y-90118521D01*
X83931425Y-90490250D01*
X83931425Y-90861979D01*
X80876791Y-90861979D01*
X80872993Y-90127007D01*
X80505507Y-90122764D01*
X80138021Y-90118521D01*
X80138021Y-90498153D01*
X80138021Y-90877784D01*
X79758681Y-90877784D01*
X79379341Y-90877784D01*
X79379341Y-91249222D01*
X79379341Y-91620659D01*
X77846756Y-91620659D01*
X77842513Y-91253173D01*
X77838270Y-90885687D01*
X77470784Y-90881445D01*
X77103298Y-90877202D01*
X77103298Y-91248931D01*
X77103298Y-91620659D01*
X74811450Y-91620659D01*
X74811450Y-91241319D01*
X74811450Y-90861979D01*
X75190791Y-90861979D01*
X75570131Y-90861979D01*
X75570131Y-90482638D01*
X75570131Y-90103298D01*
X76708152Y-90103298D01*
X77846173Y-90103298D01*
X77846173Y-89723957D01*
X77846173Y-89344617D01*
X78225682Y-89344617D01*
X78605190Y-89344617D01*
X78604484Y-88589888D01*
X78604402Y-88495856D01*
X78604284Y-88323718D01*
X78604199Y-88150036D01*
X78604149Y-87980336D01*
X78604135Y-87820142D01*
X78604158Y-87674982D01*
X78604218Y-87550381D01*
X78604316Y-87451867D01*
X78604833Y-87083798D01*
X79379341Y-87083798D01*
X79379341Y-87455527D01*
X79379341Y-87827255D01*
X79751069Y-87827255D01*
X80122798Y-87827255D01*
X80118555Y-87459769D01*
X80114313Y-87092283D01*
X79746827Y-87088041D01*
X79379341Y-87083798D01*
X78604833Y-87083798D01*
X78604854Y-87068575D01*
X78984194Y-87068575D01*
X79363535Y-87068575D01*
X79363535Y-86689234D01*
X79363535Y-86309894D01*
X79750778Y-86309894D01*
X80138021Y-86309894D01*
X80138021Y-86689234D01*
X80138021Y-87068575D01*
X80517362Y-87068575D01*
X80896702Y-87068575D01*
X80896702Y-87447915D01*
X80896702Y-87827255D01*
X81268047Y-87827255D01*
X81639392Y-87827255D01*
X81635533Y-87080429D01*
X81631674Y-86333603D01*
X81256571Y-86329366D01*
X80881467Y-86325129D01*
X80877230Y-85950025D01*
X80872993Y-85574922D01*
X80123624Y-85571062D01*
X79973768Y-85570180D01*
X79832850Y-85569138D01*
X79704925Y-85567978D01*
X79593096Y-85566738D01*
X79500467Y-85565457D01*
X79430139Y-85564173D01*
X79385217Y-85562925D01*
X79368803Y-85561750D01*
X79367636Y-85545528D01*
X79366388Y-85500772D01*
X79365105Y-85430591D01*
X79363824Y-85338089D01*
X79362584Y-85226369D01*
X79361423Y-85098533D01*
X79360380Y-84957686D01*
X79359492Y-84806930D01*
X79359418Y-84792532D01*
X80138021Y-84792532D01*
X80509750Y-84792532D01*
X80881479Y-84792532D01*
X80877236Y-84425046D01*
X80872993Y-84057560D01*
X80505507Y-84053318D01*
X80138021Y-84049075D01*
X80138021Y-84420804D01*
X80138021Y-84792532D01*
X79359418Y-84792532D01*
X79355632Y-84057560D01*
X78976292Y-84054259D01*
X78972848Y-84054229D01*
X78834203Y-84053162D01*
X78677280Y-84052171D01*
X78514551Y-84051321D01*
X78358488Y-84050678D01*
X78221562Y-84050307D01*
X77846173Y-84049657D01*
X77846173Y-83662414D01*
X77846173Y-83275171D01*
X78225514Y-83275171D01*
X78604854Y-83275171D01*
X78604854Y-82895830D01*
X78604854Y-82516490D01*
X78992097Y-82516490D01*
X79379341Y-82516490D01*
X79379341Y-82895830D01*
X79379341Y-83275171D01*
X79750778Y-83275171D01*
X80122216Y-83275171D01*
X80122216Y-82895830D01*
X80122216Y-82516490D01*
X80509459Y-82516490D01*
X80896702Y-82516490D01*
X80896702Y-82895830D01*
X80896702Y-83275171D01*
X81276043Y-83275171D01*
X81655383Y-83275171D01*
X81655383Y-83654511D01*
X81655383Y-84033852D01*
X82034723Y-84033852D01*
X82414064Y-84033852D01*
X82414064Y-84792532D01*
X82414064Y-86317259D01*
G37*
%TO.C,R7*%
X102765000Y-98227064D02*
X102765000Y-97772936D01*
X104235000Y-98227064D02*
X104235000Y-97772936D01*
%TO.C,EN_Filter1*%
X94600000Y-101700000D02*
X94600000Y-102300000D01*
X95300000Y-103000000D02*
X96700000Y-103000000D01*
X96700000Y-101000000D02*
X95300000Y-101000000D01*
X97400000Y-102300000D02*
X97400000Y-101700000D01*
X95300000Y-101000000D02*
G75*
G03*
X94600000Y-101700000I-1J-699999D01*
G01*
X94600000Y-102300000D02*
G75*
G03*
X95300000Y-103000000I699999J-1D01*
G01*
X97400000Y-101700000D02*
G75*
G03*
X96700000Y-101000000I-700000J0D01*
G01*
X96700000Y-103000000D02*
G75*
G03*
X97400000Y-102300000I0J700000D01*
G01*
%TO.C,R9*%
X92227064Y-85735000D02*
X91772936Y-85735000D01*
X92227064Y-84265000D02*
X91772936Y-84265000D01*
%TO.C,C2*%
X100111252Y-99735000D02*
X99588748Y-99735000D01*
X100111252Y-98265000D02*
X99588748Y-98265000D01*
%TO.C,R18*%
X91772936Y-86265000D02*
X92227064Y-86265000D01*
X91772936Y-87735000D02*
X92227064Y-87735000D01*
%TO.C,R17*%
X94772936Y-90265000D02*
X95227064Y-90265000D01*
X94772936Y-91735000D02*
X95227064Y-91735000D01*
%TO.C,R10*%
X104235000Y-85772936D02*
X104235000Y-86227064D01*
X102765000Y-85772936D02*
X102765000Y-86227064D01*
%TO.C,C3*%
X96735000Y-85738748D02*
X96735000Y-86261252D01*
X95265000Y-85738748D02*
X95265000Y-86261252D01*
%TO.C,EN_Filter2*%
X94600000Y-81700000D02*
X94600000Y-82300000D01*
X95300000Y-83000000D02*
X96700000Y-83000000D01*
X96700000Y-81000000D02*
X95300000Y-81000000D01*
X97400000Y-82300000D02*
X97400000Y-81700000D01*
X95300000Y-81000000D02*
G75*
G03*
X94600000Y-81700000I-1J-699999D01*
G01*
X94600000Y-82300000D02*
G75*
G03*
X95300000Y-83000000I699999J-1D01*
G01*
X97400000Y-81700000D02*
G75*
G03*
X96700000Y-81000000I-700000J0D01*
G01*
X96700000Y-83000000D02*
G75*
G03*
X97400000Y-82300000I0J700000D01*
G01*
%TO.C,R6*%
X92227064Y-99735000D02*
X91772936Y-99735000D01*
X92227064Y-98265000D02*
X91772936Y-98265000D01*
%TO.C,C4*%
X100261252Y-85735000D02*
X99738748Y-85735000D01*
X100261252Y-84265000D02*
X99738748Y-84265000D01*
%TD*%
D14*
X104000000Y-90000000D03*
X86500000Y-88500000D03*
X114500000Y-95500000D03*
X72000000Y-89000000D03*
X90000000Y-90500000D03*
X104000000Y-88500000D03*
X113000000Y-95500000D03*
X85000000Y-86000000D03*
X89500000Y-100500000D03*
X115000000Y-85000000D03*
X89500000Y-99000000D03*
X104500000Y-100500000D03*
X105000000Y-98000000D03*
X103000000Y-88500000D03*
X119500000Y-99000000D03*
X119000000Y-100000000D03*
X99000000Y-86324500D03*
X90000000Y-89500000D03*
X113000000Y-97000000D03*
X115000000Y-83000000D03*
X105500000Y-96500000D03*
X72500000Y-87500000D03*
X75500000Y-85500000D03*
X99000000Y-87500000D03*
X114500000Y-97000000D03*
X90168062Y-97331938D03*
X74500000Y-97500000D03*
X97500000Y-87500000D03*
X72000000Y-96500000D03*
X117500000Y-97000000D03*
X72000000Y-90500000D03*
X74500000Y-87000000D03*
X103000000Y-90000000D03*
X73000000Y-97500000D03*
X86000000Y-85000000D03*
X85500000Y-89000000D03*
X113000000Y-87000000D03*
X97472126Y-86280670D03*
X84000000Y-87000000D03*
X79000000Y-96000000D03*
X100000000Y-102000000D03*
X100000000Y-82000000D03*
X108500000Y-97000000D03*
X89768750Y-95731250D03*
X113000000Y-93500000D03*
X104000000Y-82000000D03*
X97500000Y-93000000D03*
X94500000Y-96275500D03*
X94500000Y-87500000D03*
X89000000Y-85000000D03*
X90000000Y-86487701D03*
X103000000Y-92849500D03*
M02*
