%TF.GenerationSoftware,KiCad,Pcbnew,7.0.5*%
%TF.CreationDate,2024-03-22T22:58:55+01:00*%
%TF.ProjectId,anemometer,616e656d-6f6d-4657-9465-722e6b696361,rev?*%
%TF.SameCoordinates,Original*%
%TF.FileFunction,Copper,L1,Top*%
%TF.FilePolarity,Positive*%
%FSLAX46Y46*%
G04 Gerber Fmt 4.6, Leading zero omitted, Abs format (unit mm)*
G04 Created by KiCad (PCBNEW 7.0.5) date 2024-03-22 22:58:55*
%MOMM*%
%LPD*%
G01*
G04 APERTURE LIST*
G04 Aperture macros list*
%AMRoundRect*
0 Rectangle with rounded corners*
0 $1 Rounding radius*
0 $2 $3 $4 $5 $6 $7 $8 $9 X,Y pos of 4 corners*
0 Add a 4 corners polygon primitive as box body*
4,1,4,$2,$3,$4,$5,$6,$7,$8,$9,$2,$3,0*
0 Add four circle primitives for the rounded corners*
1,1,$1+$1,$2,$3*
1,1,$1+$1,$4,$5*
1,1,$1+$1,$6,$7*
1,1,$1+$1,$8,$9*
0 Add four rect primitives between the rounded corners*
20,1,$1+$1,$2,$3,$4,$5,0*
20,1,$1+$1,$4,$5,$6,$7,0*
20,1,$1+$1,$6,$7,$8,$9,0*
20,1,$1+$1,$8,$9,$2,$3,0*%
%AMFreePoly0*
4,1,19,0.500000,-0.750000,0.000000,-0.750000,0.000000,-0.744911,-0.071157,-0.744911,-0.207708,-0.704816,-0.327430,-0.627875,-0.420627,-0.520320,-0.479746,-0.390866,-0.500000,-0.250000,-0.500000,0.250000,-0.479746,0.390866,-0.420627,0.520320,-0.327430,0.627875,-0.207708,0.704816,-0.071157,0.744911,0.000000,0.744911,0.000000,0.750000,0.500000,0.750000,0.500000,-0.750000,0.500000,-0.750000,
$1*%
%AMFreePoly1*
4,1,19,0.000000,0.744911,0.071157,0.744911,0.207708,0.704816,0.327430,0.627875,0.420627,0.520320,0.479746,0.390866,0.500000,0.250000,0.500000,-0.250000,0.479746,-0.390866,0.420627,-0.520320,0.327430,-0.627875,0.207708,-0.704816,0.071157,-0.744911,0.000000,-0.744911,0.000000,-0.750000,-0.500000,-0.750000,-0.500000,0.750000,0.000000,0.750000,0.000000,0.744911,0.000000,0.744911,
$1*%
%AMFreePoly2*
4,1,19,0.550000,-0.750000,0.000000,-0.750000,0.000000,-0.744911,-0.071157,-0.744911,-0.207708,-0.704816,-0.327430,-0.627875,-0.420627,-0.520320,-0.479746,-0.390866,-0.500000,-0.250000,-0.500000,0.250000,-0.479746,0.390866,-0.420627,0.520320,-0.327430,0.627875,-0.207708,0.704816,-0.071157,0.744911,0.000000,0.744911,0.000000,0.750000,0.550000,0.750000,0.550000,-0.750000,0.550000,-0.750000,
$1*%
%AMFreePoly3*
4,1,19,0.000000,0.744911,0.071157,0.744911,0.207708,0.704816,0.327430,0.627875,0.420627,0.520320,0.479746,0.390866,0.500000,0.250000,0.500000,-0.250000,0.479746,-0.390866,0.420627,-0.520320,0.327430,-0.627875,0.207708,-0.704816,0.071157,-0.744911,0.000000,-0.744911,0.000000,-0.750000,-0.550000,-0.750000,-0.550000,0.750000,0.000000,0.750000,0.000000,0.744911,0.000000,0.744911,
$1*%
G04 Aperture macros list end*
%TA.AperFunction,SMDPad,CuDef*%
%ADD10RoundRect,0.250000X0.337500X0.475000X-0.337500X0.475000X-0.337500X-0.475000X0.337500X-0.475000X0*%
%TD*%
%TA.AperFunction,SMDPad,CuDef*%
%ADD11RoundRect,0.250000X0.450000X-0.350000X0.450000X0.350000X-0.450000X0.350000X-0.450000X-0.350000X0*%
%TD*%
%TA.AperFunction,SMDPad,CuDef*%
%ADD12RoundRect,0.150000X0.150000X-0.825000X0.150000X0.825000X-0.150000X0.825000X-0.150000X-0.825000X0*%
%TD*%
%TA.AperFunction,SMDPad,CuDef*%
%ADD13RoundRect,0.250000X0.350000X0.450000X-0.350000X0.450000X-0.350000X-0.450000X0.350000X-0.450000X0*%
%TD*%
%TA.AperFunction,SMDPad,CuDef*%
%ADD14RoundRect,0.150000X-0.625000X0.150000X-0.625000X-0.150000X0.625000X-0.150000X0.625000X0.150000X0*%
%TD*%
%TA.AperFunction,SMDPad,CuDef*%
%ADD15RoundRect,0.250000X-0.650000X0.350000X-0.650000X-0.350000X0.650000X-0.350000X0.650000X0.350000X0*%
%TD*%
%TA.AperFunction,SMDPad,CuDef*%
%ADD16RoundRect,0.250000X-0.350000X-0.450000X0.350000X-0.450000X0.350000X0.450000X-0.350000X0.450000X0*%
%TD*%
%TA.AperFunction,SMDPad,CuDef*%
%ADD17FreePoly0,180.000000*%
%TD*%
%TA.AperFunction,SMDPad,CuDef*%
%ADD18FreePoly1,180.000000*%
%TD*%
%TA.AperFunction,SMDPad,CuDef*%
%ADD19RoundRect,0.150000X0.625000X-0.150000X0.625000X0.150000X-0.625000X0.150000X-0.625000X-0.150000X0*%
%TD*%
%TA.AperFunction,SMDPad,CuDef*%
%ADD20RoundRect,0.250000X0.650000X-0.350000X0.650000X0.350000X-0.650000X0.350000X-0.650000X-0.350000X0*%
%TD*%
%TA.AperFunction,SMDPad,CuDef*%
%ADD21RoundRect,0.250000X-0.337500X-0.475000X0.337500X-0.475000X0.337500X0.475000X-0.337500X0.475000X0*%
%TD*%
%TA.AperFunction,SMDPad,CuDef*%
%ADD22RoundRect,0.150000X-0.150000X0.825000X-0.150000X-0.825000X0.150000X-0.825000X0.150000X0.825000X0*%
%TD*%
%TA.AperFunction,SMDPad,CuDef*%
%ADD23FreePoly2,270.000000*%
%TD*%
%TA.AperFunction,SMDPad,CuDef*%
%ADD24R,1.500000X1.000000*%
%TD*%
%TA.AperFunction,SMDPad,CuDef*%
%ADD25FreePoly3,270.000000*%
%TD*%
%TA.AperFunction,ViaPad*%
%ADD26C,0.800000*%
%TD*%
%TA.AperFunction,ViaPad*%
%ADD27C,1.000000*%
%TD*%
%TA.AperFunction,Conductor*%
%ADD28C,0.250000*%
%TD*%
%TA.AperFunction,Conductor*%
%ADD29C,0.500000*%
%TD*%
%ADD30C,0.350000*%
G04 APERTURE END LIST*
%TA.AperFunction,EtchedComponent*%
%TO.C,S2_EN2*%
G36*
X92250000Y-85300000D02*
G01*
X91750000Y-85300000D01*
X91750000Y-84700000D01*
X92250000Y-84700000D01*
X92250000Y-85300000D01*
G37*
%TD.AperFunction*%
%TA.AperFunction,EtchedComponent*%
%TO.C,S2_EN1*%
G36*
X81600000Y-88600000D02*
G01*
X81200000Y-88600000D01*
X81200000Y-88100000D01*
X81600000Y-88100000D01*
X81600000Y-88600000D01*
G37*
%TD.AperFunction*%
%TA.AperFunction,EtchedComponent*%
G36*
X80800000Y-88600000D02*
G01*
X80400000Y-88600000D01*
X80400000Y-88100000D01*
X80800000Y-88100000D01*
X80800000Y-88600000D01*
G37*
%TD.AperFunction*%
%TD*%
D10*
%TO.P,C1,1*%
%TO.N,+5V*%
X93037500Y-99000000D03*
%TO.P,C1,2*%
%TO.N,GND*%
X90962500Y-99000000D03*
%TD*%
D11*
%TO.P,R2,1*%
%TO.N,+2V5*%
X88000000Y-90500000D03*
%TO.P,R2,2*%
%TO.N,GND*%
X88000000Y-88500000D03*
%TD*%
D12*
%TO.P,U1,1*%
%TO.N,Net-(EN_Filter1-A)*%
X94190000Y-94475000D03*
%TO.P,U1,2,-*%
X95460000Y-94475000D03*
%TO.P,U1,3,+*%
%TO.N,Net-(U1A-+)*%
X96730000Y-94475000D03*
%TO.P,U1,4,V+*%
%TO.N,+5V*%
X98000000Y-94475000D03*
%TO.P,U1,5,+*%
%TO.N,+2V5*%
X99270000Y-94475000D03*
%TO.P,U1,6,-*%
%TO.N,Net-(U1B--)*%
X100540000Y-94475000D03*
%TO.P,U1,7*%
%TO.N,Sig1*%
X101810000Y-94475000D03*
%TO.P,U1,8*%
%TO.N,Net-(U2A-+)*%
X101810000Y-89525000D03*
%TO.P,U1,9,-*%
%TO.N,Net-(U1C--)*%
X100540000Y-89525000D03*
%TO.P,U1,10,+*%
%TO.N,+2V5*%
X99270000Y-89525000D03*
%TO.P,U1,11,V-*%
%TO.N,GND*%
X98000000Y-89525000D03*
%TO.P,U1,12,+*%
%TO.N,Net-(S2_EN1-C)*%
X96730000Y-89525000D03*
%TO.P,U1,13,-*%
%TO.N,Net-(S2_EN2-A)*%
X95460000Y-89525000D03*
%TO.P,U1,14*%
%TO.N,Net-(EN_Filter2-A)*%
X94190000Y-89525000D03*
%TD*%
D13*
%TO.P,R4,1*%
%TO.N,+5V*%
X108000000Y-99000000D03*
%TO.P,R4,2*%
%TO.N,Out1*%
X106000000Y-99000000D03*
%TD*%
D14*
%TO.P,Spkr2,1,1*%
%TO.N,Net-(S2_EN1-A)*%
X74000000Y-88500000D03*
%TO.P,Spkr2,2,2*%
%TO.N,+2V5*%
X74000000Y-89500000D03*
D15*
%TO.P,Spkr2,MP*%
%TO.N,N/C*%
X70125000Y-87200000D03*
X70125000Y-90800000D03*
%TD*%
D11*
%TO.P,R3,1*%
%TO.N,+2V5*%
X77000000Y-96000000D03*
%TO.P,R3,2*%
%TO.N,Net-(U1A-+)*%
X77000000Y-94000000D03*
%TD*%
D16*
%TO.P,R10,1*%
%TO.N,+5V*%
X106000000Y-85000000D03*
%TO.P,R10,2*%
%TO.N,Out2*%
X108000000Y-85000000D03*
%TD*%
D17*
%TO.P,S2_EN2,1,A*%
%TO.N,Net-(S2_EN2-A)*%
X92650000Y-85000000D03*
D18*
%TO.P,S2_EN2,2,B*%
%TO.N,Net-(EN_Filter2-A)*%
X91350000Y-85000000D03*
%TD*%
D16*
%TO.P,R5,1*%
%TO.N,Net-(EN_Filter1-B)*%
X96000000Y-99000000D03*
%TO.P,R5,2*%
%TO.N,Net-(U1B--)*%
X98000000Y-99000000D03*
%TD*%
D14*
%TO.P,Spkr1,1,1*%
%TO.N,Net-(U1A-+)*%
X74000000Y-94500000D03*
%TO.P,Spkr1,2,2*%
%TO.N,+2V5*%
X74000000Y-95500000D03*
D15*
%TO.P,Spkr1,MP*%
%TO.N,N/C*%
X70125000Y-93200000D03*
X70125000Y-96800000D03*
%TD*%
D19*
%TO.P,MCU1,1,Pin_1*%
%TO.N,+5V*%
X115000000Y-93500000D03*
%TO.P,MCU1,2,Pin_2*%
%TO.N,Out1*%
X115000000Y-92500000D03*
%TO.P,MCU1,3,Pin_3*%
%TO.N,Out2*%
X115000000Y-91500000D03*
%TO.P,MCU1,4,Pin_4*%
%TO.N,GND*%
X115000000Y-90500000D03*
D20*
%TO.P,MCU1,MP*%
%TO.N,N/C*%
X118875000Y-94800000D03*
X118875000Y-89200000D03*
%TD*%
D13*
%TO.P,R13,1*%
%TO.N,Net-(U2A-+)*%
X103000000Y-85000000D03*
%TO.P,R13,2*%
%TO.N,Net-(U1C--)*%
X101000000Y-85000000D03*
%TD*%
%TO.P,R6,1*%
%TO.N,Sig1*%
X103000000Y-99000000D03*
%TO.P,R6,2*%
%TO.N,Net-(U1B--)*%
X101000000Y-99000000D03*
%TD*%
D16*
%TO.P,R11,1*%
%TO.N,Net-(EN_Filter2-B)*%
X96000000Y-85000000D03*
%TO.P,R11,2*%
%TO.N,Net-(U1C--)*%
X98000000Y-85000000D03*
%TD*%
D21*
%TO.P,C2,1*%
%TO.N,+5V*%
X110962500Y-99000000D03*
%TO.P,C2,2*%
%TO.N,GND*%
X113037500Y-99000000D03*
%TD*%
D22*
%TO.P,U2,1*%
%TO.N,Out2*%
X108905000Y-89525000D03*
%TO.P,U2,2,-*%
%TO.N,+2V5*%
X107635000Y-89525000D03*
%TO.P,U2,3,+*%
%TO.N,Net-(U2A-+)*%
X106365000Y-89525000D03*
%TO.P,U2,4,V-*%
%TO.N,GND*%
X105095000Y-89525000D03*
%TO.P,U2,5,+*%
%TO.N,Sig1*%
X105095000Y-94475000D03*
%TO.P,U2,6,-*%
%TO.N,+2V5*%
X106365000Y-94475000D03*
%TO.P,U2,7*%
%TO.N,Out1*%
X107635000Y-94475000D03*
%TO.P,U2,8,V+*%
%TO.N,+5V*%
X108905000Y-94475000D03*
%TD*%
D23*
%TO.P,S2_EN1,1,A*%
%TO.N,Net-(S2_EN1-A)*%
X81000000Y-87700000D03*
D24*
%TO.P,S2_EN1,2,C*%
%TO.N,Net-(S2_EN1-C)*%
X81000000Y-89000000D03*
D25*
%TO.P,S2_EN1,3,B*%
%TO.N,+2V5*%
X81000000Y-90300000D03*
%TD*%
D11*
%TO.P,R9,1*%
%TO.N,+2V5*%
X77000000Y-90000000D03*
%TO.P,R9,2*%
%TO.N,Net-(S2_EN1-A)*%
X77000000Y-88000000D03*
%TD*%
%TO.P,R1,1*%
%TO.N,+5V*%
X88000000Y-95500000D03*
%TO.P,R1,2*%
%TO.N,+2V5*%
X88000000Y-93500000D03*
%TD*%
D26*
%TO.N,GND*%
X104000000Y-90000000D03*
X86500000Y-88500000D03*
X72000000Y-89000000D03*
X90000000Y-90500000D03*
X104000000Y-88500000D03*
X85000000Y-86000000D03*
X89500000Y-100500000D03*
X115000000Y-99000000D03*
X89500000Y-99000000D03*
X104500000Y-100500000D03*
X105000000Y-98000000D03*
X103000000Y-88500000D03*
X113500000Y-90500000D03*
X99000000Y-86324500D03*
X90000000Y-89500000D03*
X105500000Y-96500000D03*
X72500000Y-87500000D03*
X115000000Y-97000000D03*
X75500000Y-85500000D03*
X99000000Y-87500000D03*
X90168062Y-97331938D03*
X74500000Y-97500000D03*
X113000000Y-97000000D03*
X97500000Y-87500000D03*
X72000000Y-96500000D03*
X72000000Y-90500000D03*
X74500000Y-87000000D03*
X103000000Y-90000000D03*
X73000000Y-97500000D03*
X86000000Y-85000000D03*
X85500000Y-89000000D03*
X97472126Y-86280670D03*
X84000000Y-87000000D03*
X79000000Y-96000000D03*
%TO.N,Net-(EN_Filter1-B)*%
X100000000Y-102000000D03*
%TO.N,Net-(EN_Filter2-B)*%
X100000000Y-82000000D03*
D27*
%TO.N,+5V*%
X108500000Y-97000000D03*
X89768750Y-95731250D03*
X113000000Y-93500000D03*
X104000000Y-82000000D03*
X97500000Y-93000000D03*
D26*
%TO.N,Net-(EN_Filter1-A)*%
X94500000Y-96275500D03*
%TO.N,Net-(EN_Filter2-A)*%
X89000000Y-85000000D03*
X90000000Y-86487701D03*
%TO.N,Net-(S2_EN2-A)*%
X94500000Y-87500000D03*
%TO.N,Sig1*%
X103000000Y-92849500D03*
%TD*%
D28*
%TO.N,Net-(EN_Filter1-B)*%
X96000000Y-99000000D02*
X96000000Y-101000000D01*
X97000000Y-102000000D02*
X100000000Y-102000000D01*
X96000000Y-101000000D02*
X97000000Y-102000000D01*
%TO.N,Net-(EN_Filter2-B)*%
X100000000Y-82000000D02*
X97000000Y-82000000D01*
X97000000Y-82000000D02*
X96000000Y-83000000D01*
X96000000Y-83000000D02*
X96000000Y-85000000D01*
D29*
%TO.N,+5V*%
X108905000Y-94475000D02*
X108905000Y-96595000D01*
X88000000Y-95500000D02*
X89537500Y-95500000D01*
X93037500Y-98037500D02*
X93037500Y-99000000D01*
X97500000Y-96500000D02*
X96500000Y-97500000D01*
X108500000Y-97000000D02*
X108000000Y-97500000D01*
X110962500Y-99000000D02*
X108000000Y-99000000D01*
X98000000Y-96000000D02*
X97500000Y-96500000D01*
X106000000Y-85000000D02*
X106000000Y-84000000D01*
X98000000Y-94475000D02*
X98000000Y-93000000D01*
X98000000Y-93000000D02*
X97500000Y-93000000D01*
X89537500Y-95500000D02*
X91537500Y-97500000D01*
X96500000Y-97502000D02*
X93573000Y-97502000D01*
X106000000Y-84000000D02*
X104000000Y-82000000D01*
X108000000Y-97500000D02*
X108000000Y-99000000D01*
X92500000Y-97500000D02*
X93037500Y-98037500D01*
X108905000Y-96595000D02*
X108500000Y-97000000D01*
X91537500Y-97500000D02*
X92500000Y-97500000D01*
X113000000Y-93500000D02*
X115000000Y-93500000D01*
X93573000Y-97502000D02*
X93037500Y-98037500D01*
X98000000Y-94475000D02*
X98000000Y-96000000D01*
X96500000Y-97500000D02*
X96500000Y-97502000D01*
D28*
%TO.N,Net-(EN_Filter1-A)*%
X94190000Y-94475000D02*
X95460000Y-94475000D01*
X94190000Y-95965500D02*
X94190000Y-94475000D01*
X94500000Y-96275500D02*
X94190000Y-95965500D01*
%TO.N,Net-(EN_Filter2-A)*%
X91350000Y-86685000D02*
X91832500Y-87167500D01*
X91152701Y-86487701D02*
X91832500Y-87167500D01*
X91832500Y-87167500D02*
X94190000Y-89525000D01*
X90000000Y-86487701D02*
X91152701Y-86487701D01*
X89000000Y-85000000D02*
X91350000Y-85000000D01*
X91350000Y-85000000D02*
X91350000Y-86685000D01*
%TO.N,Net-(U1A-+)*%
X74500000Y-94000000D02*
X74000000Y-94500000D01*
X77000000Y-94000000D02*
X74500000Y-94000000D01*
X90033158Y-94425000D02*
X84425000Y-94425000D01*
X96730000Y-95770000D02*
X95500000Y-97000000D01*
X84425000Y-94425000D02*
X84000000Y-94000000D01*
X96730000Y-94475000D02*
X96730000Y-95770000D01*
X92608158Y-97000000D02*
X90033158Y-94425000D01*
X84000000Y-94000000D02*
X77000000Y-94000000D01*
X95500000Y-97000000D02*
X92608158Y-97000000D01*
D29*
%TO.N,+2V5*%
X99270000Y-92000000D02*
X99270000Y-94475000D01*
X99270000Y-92000000D02*
X107000000Y-92000000D01*
X74000000Y-89500000D02*
X74500000Y-90000000D01*
X107635000Y-91365000D02*
X107000000Y-92000000D01*
X74000000Y-95500000D02*
X73000000Y-95500000D01*
X84000000Y-90500000D02*
X88000000Y-90500000D01*
X107000000Y-92000000D02*
X106365000Y-92635000D01*
X106365000Y-92635000D02*
X106365000Y-94475000D01*
X74500000Y-90000000D02*
X77000000Y-90000000D01*
X83800000Y-90300000D02*
X84000000Y-90500000D01*
X72500000Y-92000000D02*
X74500000Y-90000000D01*
X99268000Y-92002000D02*
X88002000Y-92002000D01*
X72500000Y-95000000D02*
X72500000Y-92000000D01*
X88000000Y-92000000D02*
X88000000Y-90500000D01*
X74500000Y-96000000D02*
X74000000Y-95500000D01*
X77000000Y-96000000D02*
X74500000Y-96000000D01*
X99270000Y-89525000D02*
X99270000Y-92000000D01*
X81000000Y-90300000D02*
X83800000Y-90300000D01*
X88000000Y-93500000D02*
X88000000Y-92000000D01*
X107635000Y-89525000D02*
X107635000Y-91365000D01*
X99268000Y-92002000D02*
X99270000Y-92000000D01*
X78000000Y-90000000D02*
X77000000Y-90000000D01*
X81000000Y-90300000D02*
X78300000Y-90300000D01*
X78300000Y-90300000D02*
X78000000Y-90000000D01*
X73000000Y-95500000D02*
X72500000Y-95000000D01*
X88002000Y-92002000D02*
X88000000Y-92000000D01*
D28*
%TO.N,Net-(U1B--)*%
X101000000Y-99000000D02*
X98000000Y-99000000D01*
X101000000Y-97000000D02*
X101000000Y-99000000D01*
X100540000Y-94475000D02*
X100540000Y-96540000D01*
X100540000Y-96540000D02*
X101000000Y-97000000D01*
%TO.N,Out1*%
X107635000Y-93365000D02*
X107635000Y-94475000D01*
X107635000Y-95865000D02*
X106000000Y-97500000D01*
X106000000Y-97500000D02*
X106000000Y-99000000D01*
X108500000Y-92500000D02*
X107635000Y-93365000D01*
X115000000Y-92500000D02*
X108500000Y-92500000D01*
X107635000Y-94475000D02*
X107635000Y-95865000D01*
%TO.N,Out2*%
X108905000Y-89525000D02*
X108905000Y-90905000D01*
X108905000Y-90905000D02*
X109500000Y-91500000D01*
X109500000Y-91500000D02*
X115000000Y-91500000D01*
X108905000Y-89525000D02*
X108905000Y-87905000D01*
X108905000Y-87905000D02*
X108000000Y-87000000D01*
X108000000Y-87000000D02*
X108000000Y-85000000D01*
%TO.N,Net-(S2_EN1-A)*%
X78000000Y-88000000D02*
X78300000Y-87700000D01*
X77000000Y-88000000D02*
X78000000Y-88000000D01*
X77000000Y-88000000D02*
X74500000Y-88000000D01*
X74500000Y-88000000D02*
X74000000Y-88500000D01*
X78300000Y-87700000D02*
X81000000Y-87700000D01*
%TO.N,Net-(U1C--)*%
X98000000Y-85000000D02*
X101000000Y-85000000D01*
X100540000Y-89525000D02*
X100540000Y-87460000D01*
X100540000Y-87460000D02*
X101000000Y-87000000D01*
X101000000Y-87000000D02*
X101000000Y-85000000D01*
%TO.N,Net-(S2_EN2-A)*%
X95460000Y-88000000D02*
X95460000Y-89525000D01*
X94960000Y-87500000D02*
X95460000Y-88000000D01*
X92650000Y-85000000D02*
X93500000Y-85000000D01*
X94500000Y-87500000D02*
X94960000Y-87500000D01*
X95460000Y-86960000D02*
X95460000Y-88000000D01*
X93500000Y-85000000D02*
X95460000Y-86960000D01*
%TO.N,Net-(S2_EN1-C)*%
X93500000Y-91500000D02*
X89000000Y-87000000D01*
X86000000Y-87000000D02*
X84000000Y-89000000D01*
X89000000Y-87000000D02*
X86000000Y-87000000D01*
X84000000Y-89000000D02*
X81000000Y-89000000D01*
X96000000Y-91500000D02*
X93500000Y-91500000D01*
X96730000Y-89525000D02*
X96730000Y-90770000D01*
X96730000Y-90770000D02*
X96000000Y-91500000D01*
%TO.N,Sig1*%
X103000000Y-97000000D02*
X103000000Y-98000000D01*
X101810000Y-94475000D02*
X101810000Y-95810000D01*
X101810000Y-95810000D02*
X103000000Y-97000000D01*
X105095000Y-94905000D02*
X103000000Y-97000000D01*
X103000000Y-92849500D02*
X102150500Y-92849500D01*
X105095000Y-94475000D02*
X105095000Y-94905000D01*
X101810000Y-93190000D02*
X101810000Y-94475000D01*
X102150500Y-92849500D02*
X101810000Y-93190000D01*
X103000000Y-98000000D02*
X103000000Y-99000000D01*
%TO.N,Net-(U2A-+)*%
X103000000Y-87000000D02*
X103000000Y-85000000D01*
X101810000Y-88190000D02*
X103000000Y-87000000D01*
X106365000Y-89525000D02*
X106365000Y-87865000D01*
X105500000Y-87000000D02*
X103000000Y-87000000D01*
X106365000Y-87865000D02*
X105500000Y-87000000D01*
X101810000Y-88190000D02*
X101810000Y-89525000D01*
%TD*%
%TA.AperFunction,Conductor*%
%TO.N,GND*%
G36*
X120442539Y-79020185D02*
G01*
X120488294Y-79072989D01*
X120499500Y-79124500D01*
X120499500Y-88636455D01*
X120479815Y-88703494D01*
X120427011Y-88749249D01*
X120357853Y-88759193D01*
X120294297Y-88730168D01*
X120257794Y-88675459D01*
X120231936Y-88597426D01*
X120209814Y-88530666D01*
X120117712Y-88381344D01*
X119993656Y-88257288D01*
X119900888Y-88200069D01*
X119844336Y-88165187D01*
X119844331Y-88165185D01*
X119790110Y-88147218D01*
X119677797Y-88110001D01*
X119677795Y-88110000D01*
X119575010Y-88099500D01*
X118174998Y-88099500D01*
X118174981Y-88099501D01*
X118072203Y-88110000D01*
X118072200Y-88110001D01*
X117905668Y-88165185D01*
X117905663Y-88165187D01*
X117756342Y-88257289D01*
X117632289Y-88381342D01*
X117540187Y-88530663D01*
X117540185Y-88530668D01*
X117524296Y-88578618D01*
X117485001Y-88697203D01*
X117485001Y-88697204D01*
X117485000Y-88697204D01*
X117474500Y-88799983D01*
X117474500Y-89600001D01*
X117474501Y-89600019D01*
X117485000Y-89702796D01*
X117485001Y-89702799D01*
X117527372Y-89830663D01*
X117540186Y-89869334D01*
X117632288Y-90018656D01*
X117756344Y-90142712D01*
X117905666Y-90234814D01*
X118072203Y-90289999D01*
X118174991Y-90300500D01*
X119575008Y-90300499D01*
X119677797Y-90289999D01*
X119844334Y-90234814D01*
X119993656Y-90142712D01*
X120117712Y-90018656D01*
X120209814Y-89869334D01*
X120257794Y-89724537D01*
X120297567Y-89667094D01*
X120362082Y-89640271D01*
X120430858Y-89652586D01*
X120482058Y-89700129D01*
X120499500Y-89763543D01*
X120499500Y-94236455D01*
X120479815Y-94303494D01*
X120427011Y-94349249D01*
X120357853Y-94359193D01*
X120294297Y-94330168D01*
X120257794Y-94275459D01*
X120222210Y-94168076D01*
X120209814Y-94130666D01*
X120117712Y-93981344D01*
X119993656Y-93857288D01*
X119868052Y-93779815D01*
X119844336Y-93765187D01*
X119844331Y-93765185D01*
X119838283Y-93763181D01*
X119677797Y-93710001D01*
X119677795Y-93710000D01*
X119575010Y-93699500D01*
X118174998Y-93699500D01*
X118174981Y-93699501D01*
X118072203Y-93710000D01*
X118072200Y-93710001D01*
X117905668Y-93765185D01*
X117905663Y-93765187D01*
X117756342Y-93857289D01*
X117632289Y-93981342D01*
X117540187Y-94130663D01*
X117540185Y-94130668D01*
X117513605Y-94210883D01*
X117485001Y-94297203D01*
X117485001Y-94297204D01*
X117485000Y-94297204D01*
X117474500Y-94399983D01*
X117474500Y-95200001D01*
X117474501Y-95200019D01*
X117485000Y-95302796D01*
X117485001Y-95302799D01*
X117540185Y-95469331D01*
X117540187Y-95469336D01*
X117544587Y-95476469D01*
X117632288Y-95618656D01*
X117756344Y-95742712D01*
X117905666Y-95834814D01*
X118072203Y-95889999D01*
X118174991Y-95900500D01*
X119575008Y-95900499D01*
X119677797Y-95889999D01*
X119844334Y-95834814D01*
X119993656Y-95742712D01*
X120117712Y-95618656D01*
X120209814Y-95469334D01*
X120257794Y-95324537D01*
X120297567Y-95267094D01*
X120362082Y-95240271D01*
X120430858Y-95252586D01*
X120482058Y-95300129D01*
X120499500Y-95363543D01*
X120499500Y-104875500D01*
X120479815Y-104942539D01*
X120427011Y-104988294D01*
X120375500Y-104999500D01*
X68624500Y-104999500D01*
X68557461Y-104979815D01*
X68511706Y-104927011D01*
X68500500Y-104875500D01*
X68500500Y-99250000D01*
X89875001Y-99250000D01*
X89875001Y-99524986D01*
X89885494Y-99627697D01*
X89940641Y-99794119D01*
X89940643Y-99794124D01*
X90032684Y-99943345D01*
X90156654Y-100067315D01*
X90305875Y-100159356D01*
X90305880Y-100159358D01*
X90472302Y-100214505D01*
X90472309Y-100214506D01*
X90575019Y-100224999D01*
X90712499Y-100224999D01*
X90712500Y-100224998D01*
X90712500Y-99250000D01*
X89875001Y-99250000D01*
X68500500Y-99250000D01*
X68500500Y-97363544D01*
X68520185Y-97296505D01*
X68572989Y-97250750D01*
X68642147Y-97240806D01*
X68705703Y-97269831D01*
X68742205Y-97324539D01*
X68790186Y-97469334D01*
X68882288Y-97618656D01*
X69006344Y-97742712D01*
X69155666Y-97834814D01*
X69322203Y-97889999D01*
X69424991Y-97900500D01*
X70825008Y-97900499D01*
X70927797Y-97889999D01*
X71094334Y-97834814D01*
X71243656Y-97742712D01*
X71367712Y-97618656D01*
X71459814Y-97469334D01*
X71514999Y-97302797D01*
X71525500Y-97200009D01*
X71525499Y-96399992D01*
X71525160Y-96396677D01*
X71514999Y-96297203D01*
X71514998Y-96297200D01*
X71500263Y-96252734D01*
X71459814Y-96130666D01*
X71367712Y-95981344D01*
X71243656Y-95857288D01*
X71150888Y-95800069D01*
X71094336Y-95765187D01*
X71094331Y-95765185D01*
X71092862Y-95764698D01*
X70927797Y-95710001D01*
X70927795Y-95710000D01*
X70825010Y-95699500D01*
X69424998Y-95699500D01*
X69424981Y-95699501D01*
X69322203Y-95710000D01*
X69322200Y-95710001D01*
X69155668Y-95765185D01*
X69155663Y-95765187D01*
X69006342Y-95857289D01*
X68882289Y-95981342D01*
X68790187Y-96130663D01*
X68790185Y-96130668D01*
X68742206Y-96275460D01*
X68702433Y-96332905D01*
X68637917Y-96359728D01*
X68569141Y-96347413D01*
X68517942Y-96299870D01*
X68500500Y-96236456D01*
X68500500Y-93763544D01*
X68520185Y-93696505D01*
X68572989Y-93650750D01*
X68642147Y-93640806D01*
X68705703Y-93669831D01*
X68742205Y-93724539D01*
X68773693Y-93819562D01*
X68790185Y-93869331D01*
X68790187Y-93869336D01*
X68809462Y-93900585D01*
X68882288Y-94018656D01*
X69006344Y-94142712D01*
X69155666Y-94234814D01*
X69322203Y-94289999D01*
X69424991Y-94300500D01*
X70825008Y-94300499D01*
X70927797Y-94289999D01*
X71094334Y-94234814D01*
X71243656Y-94142712D01*
X71367712Y-94018656D01*
X71459814Y-93869334D01*
X71507794Y-93724537D01*
X71547567Y-93667094D01*
X71612082Y-93640271D01*
X71680858Y-93652586D01*
X71732058Y-93700129D01*
X71749500Y-93763543D01*
X71749500Y-94936294D01*
X71748191Y-94954263D01*
X71744710Y-94978025D01*
X71747613Y-95011195D01*
X71748939Y-95026356D01*
X71749264Y-95030064D01*
X71749500Y-95035470D01*
X71749500Y-95043712D01*
X71753202Y-95075391D01*
X71753383Y-95077159D01*
X71755381Y-95099991D01*
X71760000Y-95152792D01*
X71761461Y-95159867D01*
X71761403Y-95159878D01*
X71763034Y-95167237D01*
X71763092Y-95167224D01*
X71764757Y-95174249D01*
X71764758Y-95174254D01*
X71764759Y-95174255D01*
X71784980Y-95229815D01*
X71790708Y-95245551D01*
X71791299Y-95247253D01*
X71815182Y-95319326D01*
X71818236Y-95325874D01*
X71818182Y-95325898D01*
X71821470Y-95332688D01*
X71821521Y-95332663D01*
X71824761Y-95339113D01*
X71824762Y-95339114D01*
X71824763Y-95339117D01*
X71866494Y-95402567D01*
X71867443Y-95404058D01*
X71907289Y-95468657D01*
X71911766Y-95474319D01*
X71911719Y-95474356D01*
X71916482Y-95480202D01*
X71916528Y-95480164D01*
X71921173Y-95485699D01*
X71976363Y-95537768D01*
X71977657Y-95539025D01*
X72424270Y-95985638D01*
X72436051Y-95999270D01*
X72450388Y-96018528D01*
X72490409Y-96052111D01*
X72494397Y-96055766D01*
X72500217Y-96061586D01*
X72500222Y-96061590D01*
X72500223Y-96061591D01*
X72525263Y-96081390D01*
X72526644Y-96082515D01*
X72543626Y-96096764D01*
X72584786Y-96131302D01*
X72584787Y-96131302D01*
X72584789Y-96131304D01*
X72590818Y-96135270D01*
X72590785Y-96135319D01*
X72597147Y-96139372D01*
X72597179Y-96139321D01*
X72603319Y-96143108D01*
X72603323Y-96143111D01*
X72626237Y-96153796D01*
X72672137Y-96175200D01*
X72673760Y-96175986D01*
X72741562Y-96210038D01*
X72748357Y-96212511D01*
X72748336Y-96212567D01*
X72755457Y-96215043D01*
X72755476Y-96214986D01*
X72762319Y-96217253D01*
X72762327Y-96217257D01*
X72836748Y-96232623D01*
X72838371Y-96232983D01*
X72912279Y-96250500D01*
X72912280Y-96250500D01*
X72912284Y-96250501D01*
X72919453Y-96251339D01*
X72919446Y-96251398D01*
X72926944Y-96252164D01*
X72926950Y-96252105D01*
X72934139Y-96252734D01*
X72934143Y-96252733D01*
X72934144Y-96252734D01*
X72962229Y-96251916D01*
X73010032Y-96250526D01*
X73011835Y-96250500D01*
X73092672Y-96250500D01*
X73127267Y-96255424D01*
X73272426Y-96297597D01*
X73272429Y-96297597D01*
X73272431Y-96297598D01*
X73309306Y-96300500D01*
X73687770Y-96300500D01*
X73754809Y-96320185D01*
X73775451Y-96336819D01*
X73924270Y-96485638D01*
X73936051Y-96499270D01*
X73950388Y-96518528D01*
X73990409Y-96552111D01*
X73994397Y-96555766D01*
X74000217Y-96561586D01*
X74000222Y-96561590D01*
X74000223Y-96561591D01*
X74025263Y-96581390D01*
X74026644Y-96582515D01*
X74038557Y-96592511D01*
X74084786Y-96631302D01*
X74084787Y-96631302D01*
X74084789Y-96631304D01*
X74090818Y-96635270D01*
X74090785Y-96635319D01*
X74097147Y-96639372D01*
X74097179Y-96639321D01*
X74103319Y-96643108D01*
X74103323Y-96643111D01*
X74131405Y-96656206D01*
X74172137Y-96675200D01*
X74173760Y-96675986D01*
X74241562Y-96710038D01*
X74248357Y-96712511D01*
X74248336Y-96712567D01*
X74255457Y-96715043D01*
X74255476Y-96714986D01*
X74262319Y-96717253D01*
X74262327Y-96717257D01*
X74336748Y-96732623D01*
X74338371Y-96732983D01*
X74412279Y-96750500D01*
X74412280Y-96750500D01*
X74412284Y-96750501D01*
X74419453Y-96751339D01*
X74419446Y-96751398D01*
X74426944Y-96752164D01*
X74426950Y-96752105D01*
X74434139Y-96752734D01*
X74434143Y-96752733D01*
X74434144Y-96752734D01*
X74462229Y-96751916D01*
X74510032Y-96750526D01*
X74511835Y-96750500D01*
X75846042Y-96750500D01*
X75913081Y-96770185D01*
X75951580Y-96809402D01*
X75955669Y-96816032D01*
X75957288Y-96818656D01*
X76081344Y-96942712D01*
X76230666Y-97034814D01*
X76397203Y-97089999D01*
X76499991Y-97100500D01*
X77500008Y-97100499D01*
X77500016Y-97100498D01*
X77500019Y-97100498D01*
X77592831Y-97091017D01*
X77602797Y-97089999D01*
X77769334Y-97034814D01*
X77918656Y-96942712D01*
X78042712Y-96818656D01*
X78134814Y-96669334D01*
X78189999Y-96502797D01*
X78200500Y-96400009D01*
X78200499Y-95599992D01*
X78197482Y-95570462D01*
X78189999Y-95497203D01*
X78189998Y-95497200D01*
X78180539Y-95468656D01*
X78134814Y-95330666D01*
X78042712Y-95181344D01*
X77949048Y-95087680D01*
X77915564Y-95026356D01*
X77920548Y-94956665D01*
X77949045Y-94912322D01*
X78042712Y-94818656D01*
X78125519Y-94684402D01*
X78177467Y-94637679D01*
X78231058Y-94625500D01*
X83689548Y-94625500D01*
X83756587Y-94645185D01*
X83777229Y-94661819D01*
X83924194Y-94808784D01*
X83934019Y-94821048D01*
X83934240Y-94820866D01*
X83939210Y-94826874D01*
X83988949Y-94873582D01*
X83990316Y-94874906D01*
X84010530Y-94895120D01*
X84016004Y-94899366D01*
X84020442Y-94903156D01*
X84054418Y-94935062D01*
X84068333Y-94942712D01*
X84071973Y-94944713D01*
X84088231Y-94955392D01*
X84104064Y-94967674D01*
X84126015Y-94977172D01*
X84146837Y-94986183D01*
X84152081Y-94988752D01*
X84192908Y-95011197D01*
X84212312Y-95016179D01*
X84230710Y-95022478D01*
X84249105Y-95030438D01*
X84295129Y-95037726D01*
X84300832Y-95038907D01*
X84345981Y-95050500D01*
X84366016Y-95050500D01*
X84385413Y-95052026D01*
X84405196Y-95055160D01*
X84451583Y-95050775D01*
X84457422Y-95050500D01*
X86675500Y-95050500D01*
X86742539Y-95070185D01*
X86788294Y-95122989D01*
X86799500Y-95174500D01*
X86799500Y-95900001D01*
X86799501Y-95900019D01*
X86810000Y-96002796D01*
X86810001Y-96002799D01*
X86865185Y-96169331D01*
X86865187Y-96169336D01*
X86894745Y-96217257D01*
X86957288Y-96318656D01*
X87081344Y-96442712D01*
X87230666Y-96534814D01*
X87397203Y-96589999D01*
X87499991Y-96600500D01*
X88500008Y-96600499D01*
X88500016Y-96600498D01*
X88500019Y-96600498D01*
X88556302Y-96594748D01*
X88602797Y-96589999D01*
X88769334Y-96534814D01*
X88918656Y-96442712D01*
X88918658Y-96442709D01*
X88923197Y-96439910D01*
X88990590Y-96421470D01*
X89057253Y-96442393D01*
X89066959Y-96449596D01*
X89180094Y-96542442D01*
X89210212Y-96567160D01*
X89210215Y-96567161D01*
X89210217Y-96567163D01*
X89384016Y-96660061D01*
X89384019Y-96660061D01*
X89384023Y-96660064D01*
X89572618Y-96717274D01*
X89662447Y-96726121D01*
X89727235Y-96752281D01*
X89737975Y-96761843D01*
X90325116Y-97348984D01*
X90550290Y-97574157D01*
X90583775Y-97635480D01*
X90578791Y-97705171D01*
X90536919Y-97761105D01*
X90478856Y-97783776D01*
X90478921Y-97784077D01*
X90477075Y-97784472D01*
X90475224Y-97785195D01*
X90472304Y-97785493D01*
X90305880Y-97840641D01*
X90305875Y-97840643D01*
X90156654Y-97932684D01*
X90032684Y-98056654D01*
X89940643Y-98205875D01*
X89940641Y-98205880D01*
X89885494Y-98372302D01*
X89885493Y-98372309D01*
X89875000Y-98475013D01*
X89875000Y-98750000D01*
X91088500Y-98750000D01*
X91155539Y-98769685D01*
X91201294Y-98822489D01*
X91212500Y-98874000D01*
X91212500Y-100224999D01*
X91349972Y-100224999D01*
X91349986Y-100224998D01*
X91452697Y-100214505D01*
X91619119Y-100159358D01*
X91619124Y-100159356D01*
X91768345Y-100067315D01*
X91892318Y-99943342D01*
X91894165Y-99940348D01*
X91895969Y-99938724D01*
X91896798Y-99937677D01*
X91896976Y-99937818D01*
X91946110Y-99893621D01*
X92015073Y-99882396D01*
X92079156Y-99910236D01*
X92105242Y-99940339D01*
X92107288Y-99943656D01*
X92231344Y-100067712D01*
X92380666Y-100159814D01*
X92547203Y-100214999D01*
X92649991Y-100225500D01*
X93425008Y-100225499D01*
X93425016Y-100225498D01*
X93425019Y-100225498D01*
X93481302Y-100219748D01*
X93527797Y-100214999D01*
X93694334Y-100159814D01*
X93843656Y-100067712D01*
X93967712Y-99943656D01*
X94059814Y-99794334D01*
X94114999Y-99627797D01*
X94125500Y-99525009D01*
X94125499Y-98474992D01*
X94116725Y-98389101D01*
X94129495Y-98320409D01*
X94177375Y-98269525D01*
X94240083Y-98252500D01*
X94787623Y-98252500D01*
X94854662Y-98272185D01*
X94900417Y-98324989D01*
X94909819Y-98390380D01*
X94910689Y-98390469D01*
X94910333Y-98393952D01*
X94910361Y-98394147D01*
X94910249Y-98394771D01*
X94899500Y-98499983D01*
X94899500Y-99500001D01*
X94899501Y-99500019D01*
X94910000Y-99602796D01*
X94910001Y-99602799D01*
X94965185Y-99769331D01*
X94965187Y-99769336D01*
X94980604Y-99794331D01*
X95057288Y-99918656D01*
X95181344Y-100042712D01*
X95315597Y-100125519D01*
X95362321Y-100177465D01*
X95374500Y-100231057D01*
X95374500Y-100917255D01*
X95372775Y-100932872D01*
X95373061Y-100932899D01*
X95372326Y-100940666D01*
X95374469Y-101008846D01*
X95374500Y-101010793D01*
X95374500Y-101039343D01*
X95374501Y-101039360D01*
X95375368Y-101046231D01*
X95375826Y-101052050D01*
X95377290Y-101098624D01*
X95377291Y-101098627D01*
X95382880Y-101117867D01*
X95386824Y-101136911D01*
X95389336Y-101156791D01*
X95406490Y-101200119D01*
X95408382Y-101205647D01*
X95421381Y-101250388D01*
X95431580Y-101267634D01*
X95440136Y-101285100D01*
X95447514Y-101303732D01*
X95472542Y-101338181D01*
X95474898Y-101341423D01*
X95478106Y-101346307D01*
X95501827Y-101386416D01*
X95501833Y-101386424D01*
X95515990Y-101400580D01*
X95528628Y-101415376D01*
X95540405Y-101431586D01*
X95540406Y-101431587D01*
X95576309Y-101461288D01*
X95580620Y-101465210D01*
X96115410Y-102000000D01*
X96499194Y-102383784D01*
X96509019Y-102396048D01*
X96509240Y-102395866D01*
X96514210Y-102401874D01*
X96563949Y-102448582D01*
X96565316Y-102449906D01*
X96585530Y-102470120D01*
X96591004Y-102474366D01*
X96595442Y-102478156D01*
X96629418Y-102510062D01*
X96629422Y-102510064D01*
X96646973Y-102519713D01*
X96663231Y-102530392D01*
X96679064Y-102542674D01*
X96701015Y-102552172D01*
X96721837Y-102561183D01*
X96727081Y-102563752D01*
X96767908Y-102586197D01*
X96787312Y-102591179D01*
X96805710Y-102597478D01*
X96824105Y-102605438D01*
X96870129Y-102612726D01*
X96875832Y-102613907D01*
X96920981Y-102625500D01*
X96941016Y-102625500D01*
X96960413Y-102627026D01*
X96980196Y-102630160D01*
X97026583Y-102625775D01*
X97032422Y-102625500D01*
X99296252Y-102625500D01*
X99363291Y-102645185D01*
X99388400Y-102666526D01*
X99394126Y-102672885D01*
X99394130Y-102672889D01*
X99547265Y-102784148D01*
X99547270Y-102784151D01*
X99720192Y-102861142D01*
X99720197Y-102861144D01*
X99905354Y-102900500D01*
X99905355Y-102900500D01*
X100094644Y-102900500D01*
X100094646Y-102900500D01*
X100279803Y-102861144D01*
X100452730Y-102784151D01*
X100605871Y-102672888D01*
X100732533Y-102532216D01*
X100827179Y-102368284D01*
X100885674Y-102188256D01*
X100905460Y-102000000D01*
X100885674Y-101811744D01*
X100827179Y-101631716D01*
X100732533Y-101467784D01*
X100605871Y-101327112D01*
X100605870Y-101327111D01*
X100452734Y-101215851D01*
X100452729Y-101215848D01*
X100279807Y-101138857D01*
X100279802Y-101138855D01*
X100134001Y-101107865D01*
X100094646Y-101099500D01*
X99905354Y-101099500D01*
X99872897Y-101106398D01*
X99720197Y-101138855D01*
X99720192Y-101138857D01*
X99547270Y-101215848D01*
X99547265Y-101215851D01*
X99394130Y-101327110D01*
X99394126Y-101327114D01*
X99388400Y-101333474D01*
X99328913Y-101370121D01*
X99296252Y-101374500D01*
X97310452Y-101374500D01*
X97243413Y-101354815D01*
X97222771Y-101338181D01*
X96661819Y-100777228D01*
X96628334Y-100715905D01*
X96625500Y-100689547D01*
X96625500Y-100231057D01*
X96645185Y-100164018D01*
X96684401Y-100125520D01*
X96818656Y-100042712D01*
X96912322Y-99949045D01*
X96973641Y-99915563D01*
X97043333Y-99920547D01*
X97087676Y-99949044D01*
X97181344Y-100042712D01*
X97330666Y-100134814D01*
X97497203Y-100189999D01*
X97599991Y-100200500D01*
X98400008Y-100200499D01*
X98400016Y-100200498D01*
X98400019Y-100200498D01*
X98456302Y-100194748D01*
X98502797Y-100189999D01*
X98669334Y-100134814D01*
X98818656Y-100042712D01*
X98942712Y-99918656D01*
X99034814Y-99769334D01*
X99054311Y-99710493D01*
X99094084Y-99653051D01*
X99158600Y-99626228D01*
X99172017Y-99625500D01*
X99827983Y-99625500D01*
X99895022Y-99645185D01*
X99940777Y-99697989D01*
X99945689Y-99710495D01*
X99965186Y-99769333D01*
X99965187Y-99769336D01*
X99980604Y-99794331D01*
X100057288Y-99918656D01*
X100181344Y-100042712D01*
X100330666Y-100134814D01*
X100497203Y-100189999D01*
X100599991Y-100200500D01*
X101400008Y-100200499D01*
X101400016Y-100200498D01*
X101400019Y-100200498D01*
X101456302Y-100194748D01*
X101502797Y-100189999D01*
X101669334Y-100134814D01*
X101818656Y-100042712D01*
X101912318Y-99949049D01*
X101973642Y-99915564D01*
X102043334Y-99920548D01*
X102087680Y-99949048D01*
X102181344Y-100042712D01*
X102330666Y-100134814D01*
X102497203Y-100189999D01*
X102599991Y-100200500D01*
X103400008Y-100200499D01*
X103400016Y-100200498D01*
X103400019Y-100200498D01*
X103456302Y-100194748D01*
X103502797Y-100189999D01*
X103669334Y-100134814D01*
X103818656Y-100042712D01*
X103942712Y-99918656D01*
X104034814Y-99769334D01*
X104089999Y-99602797D01*
X104100500Y-99500009D01*
X104100499Y-98499992D01*
X104097947Y-98475013D01*
X104089999Y-98397203D01*
X104089998Y-98397200D01*
X104073346Y-98346949D01*
X104034814Y-98230666D01*
X103942712Y-98081344D01*
X103818656Y-97957288D01*
X103684402Y-97874480D01*
X103637679Y-97822533D01*
X103625500Y-97768942D01*
X103625500Y-97310452D01*
X103645185Y-97243413D01*
X103661819Y-97222771D01*
X104897772Y-95986819D01*
X104959095Y-95953334D01*
X104985453Y-95950500D01*
X105310686Y-95950500D01*
X105310694Y-95950500D01*
X105347569Y-95947598D01*
X105347571Y-95947597D01*
X105347573Y-95947597D01*
X105418388Y-95927023D01*
X105505398Y-95901744D01*
X105646865Y-95818081D01*
X105646868Y-95818077D01*
X105653026Y-95813301D01*
X105654927Y-95815752D01*
X105703579Y-95789154D01*
X105773274Y-95794103D01*
X105805700Y-95814942D01*
X105806974Y-95813301D01*
X105813139Y-95818084D01*
X105845499Y-95837221D01*
X105954602Y-95901744D01*
X105969826Y-95906167D01*
X106112426Y-95947597D01*
X106112429Y-95947597D01*
X106112431Y-95947598D01*
X106149306Y-95950500D01*
X106149314Y-95950500D01*
X106365546Y-95950500D01*
X106432585Y-95970185D01*
X106478340Y-96022989D01*
X106488284Y-96092147D01*
X106459259Y-96155703D01*
X106453227Y-96162181D01*
X105616208Y-96999199D01*
X105603951Y-97009020D01*
X105604134Y-97009241D01*
X105598122Y-97014214D01*
X105551432Y-97063932D01*
X105550079Y-97065329D01*
X105529889Y-97085519D01*
X105529877Y-97085532D01*
X105525621Y-97091017D01*
X105521837Y-97095447D01*
X105489937Y-97129418D01*
X105489936Y-97129420D01*
X105480284Y-97146976D01*
X105469610Y-97163226D01*
X105457329Y-97179061D01*
X105457324Y-97179068D01*
X105438815Y-97221838D01*
X105436245Y-97227084D01*
X105413803Y-97267906D01*
X105408822Y-97287307D01*
X105402521Y-97305710D01*
X105394562Y-97324102D01*
X105394561Y-97324105D01*
X105387271Y-97370127D01*
X105386087Y-97375846D01*
X105374501Y-97420972D01*
X105374500Y-97420982D01*
X105374500Y-97441016D01*
X105372973Y-97460415D01*
X105369840Y-97480194D01*
X105369840Y-97480195D01*
X105374225Y-97526583D01*
X105374500Y-97532421D01*
X105374500Y-97768942D01*
X105354815Y-97835981D01*
X105315598Y-97874479D01*
X105229209Y-97927764D01*
X105181342Y-97957289D01*
X105057289Y-98081342D01*
X104965187Y-98230663D01*
X104965185Y-98230668D01*
X104952309Y-98269525D01*
X104910001Y-98397203D01*
X104910001Y-98397204D01*
X104910000Y-98397204D01*
X104899500Y-98499983D01*
X104899500Y-99500001D01*
X104899501Y-99500019D01*
X104910000Y-99602796D01*
X104910001Y-99602799D01*
X104965185Y-99769331D01*
X104965187Y-99769336D01*
X104980604Y-99794331D01*
X105057288Y-99918656D01*
X105181344Y-100042712D01*
X105330666Y-100134814D01*
X105497203Y-100189999D01*
X105599991Y-100200500D01*
X106400008Y-100200499D01*
X106400016Y-100200498D01*
X106400019Y-100200498D01*
X106456302Y-100194748D01*
X106502797Y-100189999D01*
X106669334Y-100134814D01*
X106818656Y-100042712D01*
X106912322Y-99949045D01*
X106973641Y-99915563D01*
X107043333Y-99920547D01*
X107087676Y-99949044D01*
X107181344Y-100042712D01*
X107330666Y-100134814D01*
X107497203Y-100189999D01*
X107599991Y-100200500D01*
X108400008Y-100200499D01*
X108400016Y-100200498D01*
X108400019Y-100200498D01*
X108456302Y-100194748D01*
X108502797Y-100189999D01*
X108669334Y-100134814D01*
X108818656Y-100042712D01*
X108942712Y-99918656D01*
X109010099Y-99809402D01*
X109062047Y-99762679D01*
X109115638Y-99750500D01*
X109843942Y-99750500D01*
X109910981Y-99770185D01*
X109949479Y-99809401D01*
X110032288Y-99943656D01*
X110156344Y-100067712D01*
X110305666Y-100159814D01*
X110472203Y-100214999D01*
X110574991Y-100225500D01*
X111350008Y-100225499D01*
X111350016Y-100225498D01*
X111350019Y-100225498D01*
X111406302Y-100219748D01*
X111452797Y-100214999D01*
X111619334Y-100159814D01*
X111768656Y-100067712D01*
X111892712Y-99943656D01*
X111894752Y-99940347D01*
X111896745Y-99938555D01*
X111897193Y-99937989D01*
X111897289Y-99938065D01*
X111946694Y-99893623D01*
X112015656Y-99882395D01*
X112079740Y-99910234D01*
X112105829Y-99940339D01*
X112107681Y-99943341D01*
X112107683Y-99943344D01*
X112231654Y-100067315D01*
X112380875Y-100159356D01*
X112380880Y-100159358D01*
X112547302Y-100214505D01*
X112547309Y-100214506D01*
X112650019Y-100224999D01*
X112787499Y-100224999D01*
X112787500Y-100224998D01*
X112787500Y-99250000D01*
X113287500Y-99250000D01*
X113287500Y-100224999D01*
X113424972Y-100224999D01*
X113424986Y-100224998D01*
X113527697Y-100214505D01*
X113694119Y-100159358D01*
X113694124Y-100159356D01*
X113843345Y-100067315D01*
X113967315Y-99943345D01*
X114059356Y-99794124D01*
X114059358Y-99794119D01*
X114114505Y-99627697D01*
X114114506Y-99627690D01*
X114124999Y-99524986D01*
X114125000Y-99524973D01*
X114125000Y-99250000D01*
X113287500Y-99250000D01*
X112787500Y-99250000D01*
X112787500Y-97775000D01*
X113287500Y-97775000D01*
X113287500Y-98750000D01*
X114124999Y-98750000D01*
X114124999Y-98475028D01*
X114124998Y-98475013D01*
X114114505Y-98372302D01*
X114059358Y-98205880D01*
X114059356Y-98205875D01*
X113967315Y-98056654D01*
X113843345Y-97932684D01*
X113694124Y-97840643D01*
X113694119Y-97840641D01*
X113527697Y-97785494D01*
X113527690Y-97785493D01*
X113424986Y-97775000D01*
X113287500Y-97775000D01*
X112787500Y-97775000D01*
X112650027Y-97775000D01*
X112650012Y-97775001D01*
X112547302Y-97785494D01*
X112380880Y-97840641D01*
X112380875Y-97840643D01*
X112231654Y-97932684D01*
X112107683Y-98056655D01*
X112107679Y-98056660D01*
X112105826Y-98059665D01*
X112104018Y-98061290D01*
X112103202Y-98062323D01*
X112103025Y-98062183D01*
X112053874Y-98106385D01*
X111984911Y-98117601D01*
X111920831Y-98089752D01*
X111894753Y-98059653D01*
X111894737Y-98059628D01*
X111892712Y-98056344D01*
X111768656Y-97932288D01*
X111619334Y-97840186D01*
X111452797Y-97785001D01*
X111452795Y-97785000D01*
X111350010Y-97774500D01*
X110574998Y-97774500D01*
X110574980Y-97774501D01*
X110472203Y-97785000D01*
X110472200Y-97785001D01*
X110305668Y-97840185D01*
X110305663Y-97840187D01*
X110156342Y-97932289D01*
X110032289Y-98056342D01*
X110029237Y-98061290D01*
X109958747Y-98175575D01*
X109949481Y-98190597D01*
X109897533Y-98237321D01*
X109843942Y-98249500D01*
X109115638Y-98249500D01*
X109048599Y-98229815D01*
X109010099Y-98190597D01*
X108942712Y-98081344D01*
X108941339Y-98079971D01*
X108940697Y-98078797D01*
X108938234Y-98075681D01*
X108938766Y-98075259D01*
X108907854Y-98018648D01*
X108912838Y-97948956D01*
X108954710Y-97893023D01*
X108970567Y-97882932D01*
X109058532Y-97835913D01*
X109058538Y-97835910D01*
X109210883Y-97710883D01*
X109335910Y-97558538D01*
X109405781Y-97427819D01*
X109428811Y-97384733D01*
X109428811Y-97384732D01*
X109428814Y-97384727D01*
X109486024Y-97196132D01*
X109496323Y-97091546D01*
X109522483Y-97026761D01*
X109524707Y-97024030D01*
X109536302Y-97010214D01*
X109536304Y-97010209D01*
X109540272Y-97004177D01*
X109540323Y-97004211D01*
X109544370Y-96997858D01*
X109544317Y-96997825D01*
X109548106Y-96991681D01*
X109548110Y-96991677D01*
X109580212Y-96922832D01*
X109580938Y-96921333D01*
X109615040Y-96853433D01*
X109615043Y-96853417D01*
X109617510Y-96846644D01*
X109617568Y-96846665D01*
X109620043Y-96839546D01*
X109619985Y-96839527D01*
X109622255Y-96832677D01*
X109630986Y-96790390D01*
X109637608Y-96758319D01*
X109637990Y-96756596D01*
X109638525Y-96754342D01*
X109655500Y-96682721D01*
X109655500Y-96682720D01*
X109655501Y-96682716D01*
X109656339Y-96675548D01*
X109656397Y-96675554D01*
X109657164Y-96668056D01*
X109657104Y-96668051D01*
X109657733Y-96660860D01*
X109655526Y-96584988D01*
X109655500Y-96583185D01*
X109655500Y-96083358D01*
X109655500Y-95582320D01*
X109660422Y-95547737D01*
X109702598Y-95402569D01*
X109705500Y-95365694D01*
X109705500Y-93584306D01*
X109702598Y-93547431D01*
X109700557Y-93540407D01*
X109656745Y-93389606D01*
X109656744Y-93389603D01*
X109656744Y-93389602D01*
X109636171Y-93354815D01*
X109611218Y-93312620D01*
X109594035Y-93244896D01*
X109616195Y-93178634D01*
X109670662Y-93134871D01*
X109717950Y-93125500D01*
X111900889Y-93125500D01*
X111967928Y-93145185D01*
X112013683Y-93197989D01*
X112023627Y-93267147D01*
X112019549Y-93285497D01*
X112013975Y-93303867D01*
X111994659Y-93500000D01*
X112013975Y-93696129D01*
X112023343Y-93727011D01*
X112070457Y-93882325D01*
X112071188Y-93884733D01*
X112164086Y-94058532D01*
X112164090Y-94058539D01*
X112289116Y-94210883D01*
X112441460Y-94335909D01*
X112441467Y-94335913D01*
X112615266Y-94428811D01*
X112615269Y-94428811D01*
X112615273Y-94428814D01*
X112803868Y-94486024D01*
X113000000Y-94505341D01*
X113196132Y-94486024D01*
X113384727Y-94428814D01*
X113558538Y-94335910D01*
X113628312Y-94278647D01*
X113692623Y-94251334D01*
X113706978Y-94250500D01*
X114092672Y-94250500D01*
X114127267Y-94255424D01*
X114272426Y-94297597D01*
X114272429Y-94297597D01*
X114272431Y-94297598D01*
X114309306Y-94300500D01*
X114309314Y-94300500D01*
X115690686Y-94300500D01*
X115690694Y-94300500D01*
X115727569Y-94297598D01*
X115727571Y-94297597D01*
X115727573Y-94297597D01*
X115803771Y-94275459D01*
X115885398Y-94251744D01*
X116026865Y-94168081D01*
X116143081Y-94051865D01*
X116226744Y-93910398D01*
X116268932Y-93765187D01*
X116272597Y-93752573D01*
X116272598Y-93752567D01*
X116274609Y-93727011D01*
X116275500Y-93715694D01*
X116275500Y-93284306D01*
X116272598Y-93247431D01*
X116252610Y-93178634D01*
X116229764Y-93099996D01*
X116226744Y-93089602D01*
X116219234Y-93076903D01*
X116211083Y-93063120D01*
X116193900Y-92995396D01*
X116211085Y-92936875D01*
X116212645Y-92934238D01*
X116226744Y-92910398D01*
X116263664Y-92783319D01*
X116272597Y-92752573D01*
X116272598Y-92752567D01*
X116273004Y-92747413D01*
X116275500Y-92715694D01*
X116275500Y-92284306D01*
X116272598Y-92247431D01*
X116248703Y-92165186D01*
X116234909Y-92117705D01*
X116226744Y-92089602D01*
X116219843Y-92077933D01*
X116211084Y-92063122D01*
X116193900Y-91995399D01*
X116211084Y-91936878D01*
X116224253Y-91914610D01*
X116226744Y-91910398D01*
X116269952Y-91761677D01*
X116272597Y-91752573D01*
X116272598Y-91752567D01*
X116272931Y-91748336D01*
X116275500Y-91715694D01*
X116275500Y-91284306D01*
X116272598Y-91247431D01*
X116272375Y-91246664D01*
X116233838Y-91114018D01*
X116226744Y-91089602D01*
X116210791Y-91062628D01*
X116193611Y-90994905D01*
X116210794Y-90936386D01*
X116226281Y-90910199D01*
X116272100Y-90752486D01*
X116272295Y-90750001D01*
X116272295Y-90750000D01*
X115909050Y-90750000D01*
X115874455Y-90745076D01*
X115727573Y-90702402D01*
X115727567Y-90702401D01*
X115690701Y-90699500D01*
X115690694Y-90699500D01*
X114309306Y-90699500D01*
X114309298Y-90699500D01*
X114272432Y-90702401D01*
X114272426Y-90702402D01*
X114125545Y-90745076D01*
X114090950Y-90750000D01*
X113727705Y-90750000D01*
X113724255Y-90753731D01*
X113712612Y-90809151D01*
X113663559Y-90858907D01*
X113603360Y-90874500D01*
X109810453Y-90874500D01*
X109743414Y-90854815D01*
X109722772Y-90838181D01*
X109664644Y-90780053D01*
X109631159Y-90718730D01*
X109636143Y-90649038D01*
X109645588Y-90629261D01*
X109656744Y-90610398D01*
X109702598Y-90452569D01*
X109705500Y-90415694D01*
X109705500Y-90249998D01*
X113727704Y-90249998D01*
X113727705Y-90250000D01*
X114750000Y-90250000D01*
X114750000Y-89700000D01*
X115250000Y-89700000D01*
X115250000Y-90250000D01*
X116272295Y-90250000D01*
X116272295Y-90249998D01*
X116272100Y-90247513D01*
X116226281Y-90089801D01*
X116142685Y-89948447D01*
X116142678Y-89948438D01*
X116026561Y-89832321D01*
X116026552Y-89832314D01*
X115885196Y-89748717D01*
X115885193Y-89748716D01*
X115727495Y-89702900D01*
X115727489Y-89702899D01*
X115690649Y-89700000D01*
X115250000Y-89700000D01*
X114750000Y-89700000D01*
X114309350Y-89700000D01*
X114272510Y-89702899D01*
X114272504Y-89702900D01*
X114114806Y-89748716D01*
X114114803Y-89748717D01*
X113973447Y-89832314D01*
X113973438Y-89832321D01*
X113857321Y-89948438D01*
X113857314Y-89948447D01*
X113773718Y-90089801D01*
X113727899Y-90247513D01*
X113727704Y-90249998D01*
X109705500Y-90249998D01*
X109705500Y-88634306D01*
X109702598Y-88597431D01*
X109697132Y-88578618D01*
X109665972Y-88471365D01*
X109656744Y-88439602D01*
X109573081Y-88298135D01*
X109573079Y-88298133D01*
X109573076Y-88298129D01*
X109566819Y-88291872D01*
X109533334Y-88230549D01*
X109530500Y-88204191D01*
X109530500Y-87987737D01*
X109532224Y-87972123D01*
X109531938Y-87972096D01*
X109532672Y-87964333D01*
X109530531Y-87896171D01*
X109530500Y-87894224D01*
X109530500Y-87865651D01*
X109530500Y-87865650D01*
X109529629Y-87858759D01*
X109529172Y-87852945D01*
X109528875Y-87843504D01*
X109527709Y-87806373D01*
X109522122Y-87787144D01*
X109518174Y-87768084D01*
X109516486Y-87754719D01*
X109515664Y-87748208D01*
X109498507Y-87704875D01*
X109496619Y-87699359D01*
X109483619Y-87654612D01*
X109473418Y-87637363D01*
X109464860Y-87619894D01*
X109457486Y-87601268D01*
X109457483Y-87601264D01*
X109457483Y-87601263D01*
X109430098Y-87563571D01*
X109426890Y-87558687D01*
X109403172Y-87518582D01*
X109403163Y-87518571D01*
X109389005Y-87504413D01*
X109376370Y-87489620D01*
X109364593Y-87473412D01*
X109328693Y-87443713D01*
X109324381Y-87439790D01*
X108661818Y-86777226D01*
X108628334Y-86715904D01*
X108625500Y-86689546D01*
X108625500Y-86231057D01*
X108645185Y-86164018D01*
X108684401Y-86125520D01*
X108818656Y-86042712D01*
X108942712Y-85918656D01*
X109034814Y-85769334D01*
X109089999Y-85602797D01*
X109100500Y-85500009D01*
X109100499Y-84499992D01*
X109093987Y-84436248D01*
X109089999Y-84397203D01*
X109089998Y-84397200D01*
X109068881Y-84333474D01*
X109034814Y-84230666D01*
X108942712Y-84081344D01*
X108818656Y-83957288D01*
X108669334Y-83865186D01*
X108502797Y-83810001D01*
X108502795Y-83810000D01*
X108400010Y-83799500D01*
X107599998Y-83799500D01*
X107599980Y-83799501D01*
X107497203Y-83810000D01*
X107497200Y-83810001D01*
X107330668Y-83865185D01*
X107330663Y-83865187D01*
X107181342Y-83957289D01*
X107087681Y-84050951D01*
X107026358Y-84084436D01*
X106956666Y-84079452D01*
X106912319Y-84050951D01*
X106818655Y-83957287D01*
X106798694Y-83944975D01*
X106751970Y-83893026D01*
X106740263Y-83850238D01*
X106739998Y-83847203D01*
X106739996Y-83847199D01*
X106738538Y-83840134D01*
X106738597Y-83840121D01*
X106736966Y-83832764D01*
X106736908Y-83832778D01*
X106735242Y-83825749D01*
X106734071Y-83822533D01*
X106709272Y-83754397D01*
X106708703Y-83752762D01*
X106684814Y-83680666D01*
X106684811Y-83680662D01*
X106681762Y-83674121D01*
X106681815Y-83674095D01*
X106678531Y-83667311D01*
X106678479Y-83667338D01*
X106675236Y-83660882D01*
X106633530Y-83597469D01*
X106632561Y-83595949D01*
X106592714Y-83531347D01*
X106588234Y-83525681D01*
X106588280Y-83525643D01*
X106583519Y-83519799D01*
X106583474Y-83519838D01*
X106578831Y-83514305D01*
X106523634Y-83462229D01*
X106522374Y-83461006D01*
X105030592Y-81969225D01*
X104997108Y-81907902D01*
X104994871Y-81893697D01*
X104986024Y-81803868D01*
X104928814Y-81615273D01*
X104928811Y-81615269D01*
X104928811Y-81615266D01*
X104835913Y-81441467D01*
X104835909Y-81441460D01*
X104710883Y-81289116D01*
X104558539Y-81164090D01*
X104558532Y-81164086D01*
X104384733Y-81071188D01*
X104384727Y-81071186D01*
X104196132Y-81013976D01*
X104196129Y-81013975D01*
X104000000Y-80994659D01*
X103803870Y-81013975D01*
X103615266Y-81071188D01*
X103441467Y-81164086D01*
X103441460Y-81164090D01*
X103289116Y-81289116D01*
X103164090Y-81441460D01*
X103164086Y-81441467D01*
X103071188Y-81615266D01*
X103013975Y-81803870D01*
X102994659Y-82000000D01*
X103013975Y-82196129D01*
X103071188Y-82384733D01*
X103164086Y-82558532D01*
X103164090Y-82558539D01*
X103289116Y-82710883D01*
X103441460Y-82835909D01*
X103441467Y-82835913D01*
X103615266Y-82928811D01*
X103615269Y-82928811D01*
X103615273Y-82928814D01*
X103803868Y-82986024D01*
X103893697Y-82994871D01*
X103958485Y-83021031D01*
X103969225Y-83030593D01*
X104973724Y-84035092D01*
X105007209Y-84096415D01*
X105002225Y-84166107D01*
X104991583Y-84187867D01*
X104965187Y-84230663D01*
X104965186Y-84230665D01*
X104965186Y-84230666D01*
X104910001Y-84397203D01*
X104910001Y-84397204D01*
X104910000Y-84397204D01*
X104899500Y-84499983D01*
X104899500Y-85500001D01*
X104899501Y-85500019D01*
X104910000Y-85602796D01*
X104910001Y-85602799D01*
X104965185Y-85769331D01*
X104965187Y-85769336D01*
X104999999Y-85825776D01*
X105057288Y-85918656D01*
X105181344Y-86042712D01*
X105330666Y-86134814D01*
X105330670Y-86134815D01*
X105337209Y-86137864D01*
X105335913Y-86140642D01*
X105382031Y-86172585D01*
X105408841Y-86237106D01*
X105396513Y-86305879D01*
X105348961Y-86357070D01*
X105285567Y-86374500D01*
X103749500Y-86374500D01*
X103682461Y-86354815D01*
X103636706Y-86302011D01*
X103625500Y-86250500D01*
X103625500Y-86231057D01*
X103645185Y-86164018D01*
X103684401Y-86125520D01*
X103818656Y-86042712D01*
X103942712Y-85918656D01*
X104034814Y-85769334D01*
X104089999Y-85602797D01*
X104100500Y-85500009D01*
X104100499Y-84499992D01*
X104093987Y-84436248D01*
X104089999Y-84397203D01*
X104089998Y-84397200D01*
X104068881Y-84333474D01*
X104034814Y-84230666D01*
X103942712Y-84081344D01*
X103818656Y-83957288D01*
X103669334Y-83865186D01*
X103502797Y-83810001D01*
X103502795Y-83810000D01*
X103400010Y-83799500D01*
X102599998Y-83799500D01*
X102599980Y-83799501D01*
X102497203Y-83810000D01*
X102497200Y-83810001D01*
X102330668Y-83865185D01*
X102330663Y-83865187D01*
X102181342Y-83957289D01*
X102087681Y-84050951D01*
X102026358Y-84084436D01*
X101956666Y-84079452D01*
X101912319Y-84050951D01*
X101818657Y-83957289D01*
X101818656Y-83957288D01*
X101669334Y-83865186D01*
X101502797Y-83810001D01*
X101502795Y-83810000D01*
X101400010Y-83799500D01*
X100599998Y-83799500D01*
X100599980Y-83799501D01*
X100497203Y-83810000D01*
X100497200Y-83810001D01*
X100330668Y-83865185D01*
X100330663Y-83865187D01*
X100181342Y-83957289D01*
X100057289Y-84081342D01*
X99965187Y-84230663D01*
X99965186Y-84230666D01*
X99953198Y-84266845D01*
X99945689Y-84289505D01*
X99905916Y-84346949D01*
X99841400Y-84373772D01*
X99827983Y-84374500D01*
X99172017Y-84374500D01*
X99104978Y-84354815D01*
X99059223Y-84302011D01*
X99054311Y-84289505D01*
X99034814Y-84230666D01*
X98942712Y-84081344D01*
X98818656Y-83957288D01*
X98669334Y-83865186D01*
X98502797Y-83810001D01*
X98502795Y-83810000D01*
X98400010Y-83799500D01*
X97599998Y-83799500D01*
X97599980Y-83799501D01*
X97497203Y-83810000D01*
X97497200Y-83810001D01*
X97330668Y-83865185D01*
X97330663Y-83865187D01*
X97181342Y-83957289D01*
X97087681Y-84050951D01*
X97026358Y-84084436D01*
X96956666Y-84079452D01*
X96912319Y-84050951D01*
X96818657Y-83957289D01*
X96818656Y-83957288D01*
X96684402Y-83874480D01*
X96637679Y-83822533D01*
X96625500Y-83768942D01*
X96625500Y-83310452D01*
X96645185Y-83243413D01*
X96661819Y-83222771D01*
X97222771Y-82661819D01*
X97284094Y-82628334D01*
X97310452Y-82625500D01*
X99296252Y-82625500D01*
X99363291Y-82645185D01*
X99388400Y-82666526D01*
X99394126Y-82672885D01*
X99394130Y-82672889D01*
X99547265Y-82784148D01*
X99547270Y-82784151D01*
X99720192Y-82861142D01*
X99720197Y-82861144D01*
X99905354Y-82900500D01*
X99905355Y-82900500D01*
X100094644Y-82900500D01*
X100094646Y-82900500D01*
X100279803Y-82861144D01*
X100452730Y-82784151D01*
X100605871Y-82672888D01*
X100732533Y-82532216D01*
X100827179Y-82368284D01*
X100885674Y-82188256D01*
X100905460Y-82000000D01*
X100885674Y-81811744D01*
X100827179Y-81631716D01*
X100732533Y-81467784D01*
X100605871Y-81327112D01*
X100605870Y-81327111D01*
X100452734Y-81215851D01*
X100452729Y-81215848D01*
X100279807Y-81138857D01*
X100279802Y-81138855D01*
X100134000Y-81107865D01*
X100094646Y-81099500D01*
X99905354Y-81099500D01*
X99872897Y-81106398D01*
X99720197Y-81138855D01*
X99720192Y-81138857D01*
X99547270Y-81215848D01*
X99547265Y-81215851D01*
X99394130Y-81327110D01*
X99394126Y-81327114D01*
X99388400Y-81333474D01*
X99328913Y-81370121D01*
X99296252Y-81374500D01*
X97082743Y-81374500D01*
X97067122Y-81372775D01*
X97067095Y-81373061D01*
X97059333Y-81372326D01*
X96991140Y-81374469D01*
X96989193Y-81374500D01*
X96960649Y-81374500D01*
X96953778Y-81375367D01*
X96947959Y-81375825D01*
X96901374Y-81377289D01*
X96901368Y-81377290D01*
X96882126Y-81382880D01*
X96863087Y-81386823D01*
X96843217Y-81389334D01*
X96843203Y-81389337D01*
X96799883Y-81406488D01*
X96794358Y-81408380D01*
X96749613Y-81421380D01*
X96749610Y-81421381D01*
X96732366Y-81431579D01*
X96714905Y-81440133D01*
X96696274Y-81447510D01*
X96696262Y-81447517D01*
X96658570Y-81474902D01*
X96653687Y-81478109D01*
X96613580Y-81501829D01*
X96599414Y-81515995D01*
X96584624Y-81528627D01*
X96568414Y-81540404D01*
X96568411Y-81540407D01*
X96538710Y-81576309D01*
X96534777Y-81580631D01*
X95616208Y-82499199D01*
X95603951Y-82509020D01*
X95604134Y-82509241D01*
X95598122Y-82514214D01*
X95551432Y-82563932D01*
X95550079Y-82565329D01*
X95529889Y-82585519D01*
X95529877Y-82585532D01*
X95525621Y-82591017D01*
X95521837Y-82595447D01*
X95489937Y-82629418D01*
X95489936Y-82629420D01*
X95480284Y-82646976D01*
X95469610Y-82663226D01*
X95457329Y-82679061D01*
X95457324Y-82679068D01*
X95438815Y-82721838D01*
X95436245Y-82727084D01*
X95413803Y-82767906D01*
X95408822Y-82787307D01*
X95402521Y-82805710D01*
X95394562Y-82824102D01*
X95394561Y-82824105D01*
X95387271Y-82870127D01*
X95386087Y-82875846D01*
X95374501Y-82920972D01*
X95374500Y-82920982D01*
X95374500Y-82941016D01*
X95372973Y-82960415D01*
X95369840Y-82980194D01*
X95369840Y-82980195D01*
X95374225Y-83026583D01*
X95374500Y-83032421D01*
X95374500Y-83768942D01*
X95354815Y-83835981D01*
X95315598Y-83874479D01*
X95285530Y-83893026D01*
X95181342Y-83957289D01*
X95057289Y-84081342D01*
X94965187Y-84230663D01*
X94965185Y-84230666D01*
X94965186Y-84230666D01*
X94910001Y-84397203D01*
X94910001Y-84397204D01*
X94910000Y-84397204D01*
X94899500Y-84499983D01*
X94899500Y-85215547D01*
X94879815Y-85282586D01*
X94827011Y-85328341D01*
X94757853Y-85338285D01*
X94694297Y-85309260D01*
X94687819Y-85303228D01*
X94000803Y-84616212D01*
X93990980Y-84603950D01*
X93990759Y-84604134D01*
X93985786Y-84598122D01*
X93936066Y-84551432D01*
X93934666Y-84550075D01*
X93914476Y-84529884D01*
X93908986Y-84525625D01*
X93904561Y-84521847D01*
X93870582Y-84489938D01*
X93870580Y-84489936D01*
X93870577Y-84489935D01*
X93853029Y-84480288D01*
X93836763Y-84469604D01*
X93820933Y-84457325D01*
X93778168Y-84438818D01*
X93772922Y-84436248D01*
X93732093Y-84413803D01*
X93732092Y-84413802D01*
X93712693Y-84408822D01*
X93694281Y-84402518D01*
X93675898Y-84394562D01*
X93675893Y-84394560D01*
X93652528Y-84390860D01*
X93589393Y-84360930D01*
X93559133Y-84319900D01*
X93534904Y-84266845D01*
X93534900Y-84266840D01*
X93534897Y-84266833D01*
X93457103Y-84145783D01*
X93457101Y-84145781D01*
X93457097Y-84145774D01*
X93451103Y-84138857D01*
X93362958Y-84037130D01*
X93362941Y-84037111D01*
X93362940Y-84037110D01*
X93254170Y-83942861D01*
X93218937Y-83920218D01*
X93133221Y-83865131D01*
X93133217Y-83865129D01*
X93133216Y-83865129D01*
X93002300Y-83805342D01*
X92904158Y-83776525D01*
X92864342Y-83764834D01*
X92721889Y-83744353D01*
X92150000Y-83744353D01*
X92149997Y-83744353D01*
X92078040Y-83749499D01*
X92040728Y-83760455D01*
X91988149Y-83764215D01*
X91850000Y-83744353D01*
X91278111Y-83744353D01*
X91278110Y-83744353D01*
X91135658Y-83764834D01*
X91135656Y-83764834D01*
X90997700Y-83805342D01*
X90866784Y-83865129D01*
X90866782Y-83865129D01*
X90745828Y-83942862D01*
X90745824Y-83942864D01*
X90637061Y-84037108D01*
X90637058Y-84037110D01*
X90542911Y-84145762D01*
X90542896Y-84145783D01*
X90465105Y-84266828D01*
X90465095Y-84266846D01*
X90449036Y-84302012D01*
X90403281Y-84354816D01*
X90336242Y-84374500D01*
X89703748Y-84374500D01*
X89636709Y-84354815D01*
X89611600Y-84333474D01*
X89605873Y-84327114D01*
X89605869Y-84327110D01*
X89452734Y-84215851D01*
X89452729Y-84215848D01*
X89279807Y-84138857D01*
X89279802Y-84138855D01*
X89134000Y-84107865D01*
X89094646Y-84099500D01*
X88905354Y-84099500D01*
X88872897Y-84106398D01*
X88720197Y-84138855D01*
X88720192Y-84138857D01*
X88547270Y-84215848D01*
X88547265Y-84215851D01*
X88394129Y-84327111D01*
X88267466Y-84467785D01*
X88172821Y-84631715D01*
X88172818Y-84631722D01*
X88114327Y-84811740D01*
X88114326Y-84811744D01*
X88094540Y-85000000D01*
X88114326Y-85188256D01*
X88114327Y-85188259D01*
X88172818Y-85368277D01*
X88172821Y-85368284D01*
X88267467Y-85532216D01*
X88369185Y-85645185D01*
X88394129Y-85672888D01*
X88547265Y-85784148D01*
X88547270Y-85784151D01*
X88720192Y-85861142D01*
X88720197Y-85861144D01*
X88905354Y-85900500D01*
X88905355Y-85900500D01*
X89084439Y-85900500D01*
X89151478Y-85920185D01*
X89197233Y-85972989D01*
X89207177Y-86042147D01*
X89191826Y-86086500D01*
X89172821Y-86119416D01*
X89172818Y-86119423D01*
X89118894Y-86285386D01*
X89079457Y-86343062D01*
X89015098Y-86370260D01*
X89012632Y-86370518D01*
X88973416Y-86374225D01*
X88967578Y-86374500D01*
X86082738Y-86374500D01*
X86067121Y-86372776D01*
X86067094Y-86373062D01*
X86059332Y-86372327D01*
X85991172Y-86374469D01*
X85989225Y-86374500D01*
X85960650Y-86374500D01*
X85959929Y-86374590D01*
X85953757Y-86375369D01*
X85947945Y-86375826D01*
X85901373Y-86377290D01*
X85901372Y-86377290D01*
X85882129Y-86382881D01*
X85863079Y-86386825D01*
X85843211Y-86389334D01*
X85843209Y-86389335D01*
X85799884Y-86406488D01*
X85794357Y-86408380D01*
X85749610Y-86421381D01*
X85749609Y-86421382D01*
X85732367Y-86431579D01*
X85714899Y-86440137D01*
X85696269Y-86447513D01*
X85696267Y-86447514D01*
X85658576Y-86474898D01*
X85653694Y-86478105D01*
X85613579Y-86501830D01*
X85599408Y-86516000D01*
X85584623Y-86528628D01*
X85568412Y-86540407D01*
X85538709Y-86576310D01*
X85534776Y-86580631D01*
X84640507Y-87474902D01*
X83777228Y-88338181D01*
X83715905Y-88371666D01*
X83689547Y-88374500D01*
X82379647Y-88374500D01*
X82312608Y-88354815D01*
X82266853Y-88302011D01*
X82255647Y-88250500D01*
X82255647Y-87628114D01*
X82255647Y-87628111D01*
X82235165Y-87485655D01*
X82194658Y-87347700D01*
X82134871Y-87216784D01*
X82057139Y-87095830D01*
X82057136Y-87095826D01*
X82057135Y-87095824D01*
X81962891Y-86987061D01*
X81962889Y-86987058D01*
X81854237Y-86892911D01*
X81854216Y-86892896D01*
X81733166Y-86815102D01*
X81733143Y-86815089D01*
X81601965Y-86755183D01*
X81600242Y-86754743D01*
X81464282Y-86714821D01*
X81464272Y-86714818D01*
X81336321Y-86696422D01*
X81321962Y-86694358D01*
X81321961Y-86694358D01*
X81265603Y-86694358D01*
X81265586Y-86694353D01*
X81214236Y-86694353D01*
X80785764Y-86694353D01*
X80734444Y-86694353D01*
X80734397Y-86694358D01*
X80678038Y-86694358D01*
X80544499Y-86713558D01*
X80535722Y-86714819D01*
X80397631Y-86755367D01*
X80397618Y-86755372D01*
X80266856Y-86815089D01*
X80266833Y-86815102D01*
X80145783Y-86892896D01*
X80145762Y-86892912D01*
X80037130Y-86987041D01*
X80037112Y-86987057D01*
X80037107Y-86987063D01*
X79998427Y-87031703D01*
X79939649Y-87069477D01*
X79904714Y-87074500D01*
X78382738Y-87074500D01*
X78367121Y-87072776D01*
X78367094Y-87073062D01*
X78359332Y-87072327D01*
X78291172Y-87074469D01*
X78289225Y-87074500D01*
X78260650Y-87074500D01*
X78259929Y-87074590D01*
X78253757Y-87075369D01*
X78247945Y-87075826D01*
X78201373Y-87077290D01*
X78201372Y-87077290D01*
X78182129Y-87082881D01*
X78163079Y-87086825D01*
X78143211Y-87089334D01*
X78099884Y-87106488D01*
X78094357Y-87108380D01*
X78068225Y-87115973D01*
X77998355Y-87115775D01*
X77945946Y-87084578D01*
X77918657Y-87057289D01*
X77918656Y-87057288D01*
X77825888Y-87000069D01*
X77769336Y-86965187D01*
X77769331Y-86965185D01*
X77726943Y-86951139D01*
X77602797Y-86910001D01*
X77602795Y-86910000D01*
X77500010Y-86899500D01*
X76499998Y-86899500D01*
X76499980Y-86899501D01*
X76397203Y-86910000D01*
X76397200Y-86910001D01*
X76230668Y-86965185D01*
X76230663Y-86965187D01*
X76081342Y-87057289D01*
X75957289Y-87181342D01*
X75942298Y-87205647D01*
X75876858Y-87311744D01*
X75874481Y-87315597D01*
X75822533Y-87362321D01*
X75768942Y-87374500D01*
X74582743Y-87374500D01*
X74567122Y-87372775D01*
X74567096Y-87373061D01*
X74559333Y-87372326D01*
X74491153Y-87374469D01*
X74489206Y-87374500D01*
X74460649Y-87374500D01*
X74453766Y-87375369D01*
X74447949Y-87375826D01*
X74401373Y-87377290D01*
X74382129Y-87382881D01*
X74363079Y-87386825D01*
X74343211Y-87389334D01*
X74299884Y-87406488D01*
X74294358Y-87408379D01*
X74249614Y-87421379D01*
X74249610Y-87421381D01*
X74232366Y-87431579D01*
X74214905Y-87440133D01*
X74196274Y-87447510D01*
X74196262Y-87447517D01*
X74158570Y-87474902D01*
X74153687Y-87478109D01*
X74113580Y-87501829D01*
X74099414Y-87515995D01*
X74084624Y-87528627D01*
X74068414Y-87540404D01*
X74068411Y-87540407D01*
X74038714Y-87576304D01*
X74034782Y-87580625D01*
X73952229Y-87663180D01*
X73890907Y-87696666D01*
X73864547Y-87699500D01*
X73309298Y-87699500D01*
X73272432Y-87702401D01*
X73272426Y-87702402D01*
X73114606Y-87748254D01*
X73114603Y-87748255D01*
X72973137Y-87831917D01*
X72973129Y-87831923D01*
X72856923Y-87948129D01*
X72856917Y-87948137D01*
X72773255Y-88089603D01*
X72773254Y-88089606D01*
X72727402Y-88247426D01*
X72727401Y-88247432D01*
X72724500Y-88284298D01*
X72724500Y-88715701D01*
X72727401Y-88752567D01*
X72727402Y-88752573D01*
X72773253Y-88910393D01*
X72788918Y-88936881D01*
X72806098Y-89004606D01*
X72788918Y-89063119D01*
X72773253Y-89089606D01*
X72727402Y-89247426D01*
X72727401Y-89247432D01*
X72724500Y-89284298D01*
X72724500Y-89715701D01*
X72727401Y-89752567D01*
X72727402Y-89752573D01*
X72773254Y-89910393D01*
X72773255Y-89910396D01*
X72856917Y-90051862D01*
X72856923Y-90051870D01*
X72973129Y-90168076D01*
X72973132Y-90168078D01*
X72973135Y-90168081D01*
X73022426Y-90197232D01*
X73070109Y-90248299D01*
X73082613Y-90317041D01*
X73055968Y-90381630D01*
X73046986Y-90391644D01*
X72014358Y-91424272D01*
X72000729Y-91436051D01*
X71981468Y-91450390D01*
X71947898Y-91490397D01*
X71944253Y-91494376D01*
X71938407Y-91500223D01*
X71918618Y-91525251D01*
X71917481Y-91526647D01*
X71868694Y-91584790D01*
X71864729Y-91590819D01*
X71864682Y-91590788D01*
X71860630Y-91597147D01*
X71860679Y-91597177D01*
X71856889Y-91603321D01*
X71824812Y-91672110D01*
X71824027Y-91673731D01*
X71789957Y-91741572D01*
X71787488Y-91748357D01*
X71787432Y-91748336D01*
X71784960Y-91755450D01*
X71785015Y-91755469D01*
X71782743Y-91762325D01*
X71767391Y-91836670D01*
X71767001Y-91838428D01*
X71749499Y-91912279D01*
X71748661Y-91919454D01*
X71748601Y-91919447D01*
X71747835Y-91926945D01*
X71747895Y-91926951D01*
X71747265Y-91934140D01*
X71749474Y-92010030D01*
X71749500Y-92011833D01*
X71749500Y-92636455D01*
X71729815Y-92703494D01*
X71677011Y-92749249D01*
X71607853Y-92759193D01*
X71544297Y-92730168D01*
X71507794Y-92675459D01*
X71480374Y-92592712D01*
X71459814Y-92530666D01*
X71367712Y-92381344D01*
X71243656Y-92257288D01*
X71094334Y-92165186D01*
X70951046Y-92117705D01*
X70893603Y-92077933D01*
X70866780Y-92013417D01*
X70879095Y-91944642D01*
X70926638Y-91893442D01*
X70951045Y-91882295D01*
X71094334Y-91834814D01*
X71243656Y-91742712D01*
X71367712Y-91618656D01*
X71459814Y-91469334D01*
X71514999Y-91302797D01*
X71525500Y-91200009D01*
X71525499Y-90399992D01*
X71517025Y-90317041D01*
X71514999Y-90297203D01*
X71514998Y-90297200D01*
X71494325Y-90234814D01*
X71459814Y-90130666D01*
X71367712Y-89981344D01*
X71243656Y-89857288D01*
X71094334Y-89765186D01*
X70927797Y-89710001D01*
X70927795Y-89710000D01*
X70825010Y-89699500D01*
X69424998Y-89699500D01*
X69424981Y-89699501D01*
X69322203Y-89710000D01*
X69322200Y-89710001D01*
X69155668Y-89765185D01*
X69155663Y-89765187D01*
X69006342Y-89857289D01*
X68882289Y-89981342D01*
X68790187Y-90130663D01*
X68790185Y-90130668D01*
X68742206Y-90275460D01*
X68702433Y-90332905D01*
X68637917Y-90359728D01*
X68569141Y-90347413D01*
X68517942Y-90299870D01*
X68500500Y-90236456D01*
X68500500Y-87763544D01*
X68520185Y-87696505D01*
X68572989Y-87650750D01*
X68642147Y-87640806D01*
X68705703Y-87669831D01*
X68742206Y-87724540D01*
X68790185Y-87869331D01*
X68790187Y-87869336D01*
X68799474Y-87884393D01*
X68882288Y-88018656D01*
X69006344Y-88142712D01*
X69155666Y-88234814D01*
X69322203Y-88289999D01*
X69424991Y-88300500D01*
X70825008Y-88300499D01*
X70927797Y-88289999D01*
X71094334Y-88234814D01*
X71243656Y-88142712D01*
X71367712Y-88018656D01*
X71459814Y-87869334D01*
X71514999Y-87702797D01*
X71525500Y-87600009D01*
X71525499Y-86799992D01*
X71523173Y-86777226D01*
X71514999Y-86697203D01*
X71514998Y-86697200D01*
X71507794Y-86675460D01*
X71459814Y-86530666D01*
X71367712Y-86381344D01*
X71243656Y-86257288D01*
X71094334Y-86165186D01*
X70927797Y-86110001D01*
X70927795Y-86110000D01*
X70825010Y-86099500D01*
X69424998Y-86099500D01*
X69424981Y-86099501D01*
X69322203Y-86110000D01*
X69322200Y-86110001D01*
X69155668Y-86165185D01*
X69155663Y-86165187D01*
X69006342Y-86257289D01*
X68882289Y-86381342D01*
X68790187Y-86530663D01*
X68790185Y-86530668D01*
X68775061Y-86576310D01*
X68742394Y-86674894D01*
X68742206Y-86675460D01*
X68702433Y-86732905D01*
X68637917Y-86759728D01*
X68569141Y-86747413D01*
X68517942Y-86699870D01*
X68500500Y-86636456D01*
X68500500Y-79124500D01*
X68520185Y-79057461D01*
X68572989Y-79011706D01*
X68624500Y-79000500D01*
X120375500Y-79000500D01*
X120442539Y-79020185D01*
G37*
%TD.AperFunction*%
%TA.AperFunction,Conductor*%
G36*
X86837185Y-87645185D02*
G01*
X86882940Y-87697989D01*
X86892884Y-87767147D01*
X86875684Y-87814598D01*
X86865644Y-87830873D01*
X86865641Y-87830880D01*
X86810494Y-87997302D01*
X86810493Y-87997309D01*
X86800000Y-88100013D01*
X86800000Y-88250000D01*
X89204134Y-88250000D01*
X89256344Y-88221490D01*
X89326036Y-88226474D01*
X89370384Y-88254974D01*
X90767995Y-89652586D01*
X92155228Y-91039819D01*
X92188713Y-91101142D01*
X92183729Y-91170834D01*
X92141857Y-91226767D01*
X92076393Y-91251184D01*
X92067547Y-91251500D01*
X89279307Y-91251500D01*
X89212268Y-91231815D01*
X89166513Y-91179011D01*
X89156569Y-91109853D01*
X89161601Y-91088496D01*
X89189999Y-91002797D01*
X89200500Y-90900009D01*
X89200499Y-90099992D01*
X89195582Y-90051862D01*
X89189999Y-89997203D01*
X89189998Y-89997200D01*
X89173840Y-89948438D01*
X89134814Y-89830666D01*
X89042712Y-89681344D01*
X88948695Y-89587327D01*
X88915210Y-89526004D01*
X88920194Y-89456312D01*
X88948695Y-89411964D01*
X89042317Y-89318342D01*
X89134356Y-89169124D01*
X89134358Y-89169119D01*
X89189505Y-89002697D01*
X89189506Y-89002690D01*
X89199999Y-88899986D01*
X89200000Y-88899973D01*
X89200000Y-88750000D01*
X86800001Y-88750000D01*
X86800001Y-88899986D01*
X86810494Y-89002697D01*
X86865641Y-89169119D01*
X86865643Y-89169124D01*
X86957684Y-89318345D01*
X87051304Y-89411965D01*
X87084789Y-89473288D01*
X87079805Y-89542980D01*
X87051305Y-89587327D01*
X86957286Y-89681346D01*
X86951580Y-89690598D01*
X86899632Y-89737322D01*
X86846042Y-89749500D01*
X84414711Y-89749500D01*
X84347672Y-89729815D01*
X84301917Y-89677011D01*
X84291973Y-89607853D01*
X84320998Y-89544297D01*
X84351591Y-89518767D01*
X84386420Y-89498170D01*
X84400589Y-89483999D01*
X84415379Y-89471368D01*
X84431587Y-89459594D01*
X84461299Y-89423676D01*
X84465212Y-89419376D01*
X86222771Y-87661819D01*
X86284095Y-87628334D01*
X86310453Y-87625500D01*
X86770146Y-87625500D01*
X86837185Y-87645185D01*
G37*
%TD.AperFunction*%
%TA.AperFunction,Conductor*%
G36*
X99895022Y-85645185D02*
G01*
X99940777Y-85697989D01*
X99945689Y-85710495D01*
X99965186Y-85769333D01*
X99965187Y-85769336D01*
X99999999Y-85825776D01*
X100057288Y-85918656D01*
X100181344Y-86042712D01*
X100315597Y-86125519D01*
X100362321Y-86177465D01*
X100374500Y-86231057D01*
X100374500Y-86689545D01*
X100354815Y-86756584D01*
X100338181Y-86777226D01*
X100156208Y-86959199D01*
X100143951Y-86969020D01*
X100144134Y-86969241D01*
X100138122Y-86974214D01*
X100091432Y-87023932D01*
X100090079Y-87025329D01*
X100069889Y-87045519D01*
X100069877Y-87045532D01*
X100065621Y-87051017D01*
X100061837Y-87055447D01*
X100029937Y-87089418D01*
X100029936Y-87089420D01*
X100020284Y-87106976D01*
X100009610Y-87123226D01*
X99997329Y-87139061D01*
X99997324Y-87139068D01*
X99978815Y-87181838D01*
X99976245Y-87187084D01*
X99953803Y-87227906D01*
X99948822Y-87247307D01*
X99942521Y-87265710D01*
X99934562Y-87284102D01*
X99934561Y-87284105D01*
X99927271Y-87330127D01*
X99926087Y-87335846D01*
X99914501Y-87380972D01*
X99914500Y-87380982D01*
X99914500Y-87401016D01*
X99912973Y-87420415D01*
X99910915Y-87433411D01*
X99909840Y-87440196D01*
X99910531Y-87447510D01*
X99914225Y-87486583D01*
X99914500Y-87492421D01*
X99914500Y-88019308D01*
X99894815Y-88086347D01*
X99842011Y-88132102D01*
X99772853Y-88142046D01*
X99727380Y-88126041D01*
X99701915Y-88110981D01*
X99680398Y-88098256D01*
X99680396Y-88098255D01*
X99680394Y-88098254D01*
X99522573Y-88052402D01*
X99522567Y-88052401D01*
X99485701Y-88049500D01*
X99485694Y-88049500D01*
X99054306Y-88049500D01*
X99054298Y-88049500D01*
X99017432Y-88052401D01*
X99017426Y-88052402D01*
X98859606Y-88098254D01*
X98859603Y-88098255D01*
X98718140Y-88181915D01*
X98711974Y-88186699D01*
X98710174Y-88184379D01*
X98660913Y-88211230D01*
X98591225Y-88206193D01*
X98558992Y-88185461D01*
X98557722Y-88187100D01*
X98551552Y-88182314D01*
X98410196Y-88098717D01*
X98410193Y-88098716D01*
X98252494Y-88052900D01*
X98252497Y-88052900D01*
X98250000Y-88052703D01*
X98250000Y-90997294D01*
X98250001Y-90997295D01*
X98252488Y-90997100D01*
X98252494Y-90997099D01*
X98360904Y-90965603D01*
X98430773Y-90965802D01*
X98489443Y-91003744D01*
X98518287Y-91067382D01*
X98519499Y-91084676D01*
X98519500Y-91127497D01*
X98499817Y-91194537D01*
X98447014Y-91240293D01*
X98395500Y-91251500D01*
X97391962Y-91251500D01*
X97324923Y-91231815D01*
X97279168Y-91179011D01*
X97269224Y-91109853D01*
X97278158Y-91078259D01*
X97291180Y-91048167D01*
X97293749Y-91042924D01*
X97309108Y-91014986D01*
X97316197Y-91002092D01*
X97321177Y-90982691D01*
X97327480Y-90964284D01*
X97329556Y-90959487D01*
X97374247Y-90905780D01*
X97440880Y-90884761D01*
X97506477Y-90902004D01*
X97589801Y-90951281D01*
X97747514Y-90997100D01*
X97747511Y-90997100D01*
X97749998Y-90997295D01*
X97750000Y-90997295D01*
X97750000Y-88052703D01*
X97747503Y-88052900D01*
X97589806Y-88098716D01*
X97589803Y-88098717D01*
X97448449Y-88182313D01*
X97442283Y-88187097D01*
X97440389Y-88184655D01*
X97391580Y-88211239D01*
X97321894Y-88206179D01*
X97289227Y-88185159D01*
X97288031Y-88186702D01*
X97281862Y-88181917D01*
X97142501Y-88099500D01*
X97140398Y-88098256D01*
X97140397Y-88098255D01*
X97140396Y-88098255D01*
X97140393Y-88098254D01*
X96982573Y-88052402D01*
X96982567Y-88052401D01*
X96945701Y-88049500D01*
X96945694Y-88049500D01*
X96514306Y-88049500D01*
X96514298Y-88049500D01*
X96477432Y-88052401D01*
X96477426Y-88052402D01*
X96319606Y-88098254D01*
X96319601Y-88098256D01*
X96273577Y-88125474D01*
X96205853Y-88142655D01*
X96139591Y-88120495D01*
X96095829Y-88066028D01*
X96086519Y-88022636D01*
X96085724Y-87997302D01*
X96085531Y-87991150D01*
X96085500Y-87989204D01*
X96085500Y-87042742D01*
X96087224Y-87027122D01*
X96086939Y-87027095D01*
X96087673Y-87019333D01*
X96085531Y-86951139D01*
X96085500Y-86949192D01*
X96085500Y-86920656D01*
X96085500Y-86920650D01*
X96084631Y-86913779D01*
X96084173Y-86907952D01*
X96082710Y-86861373D01*
X96077119Y-86842130D01*
X96073173Y-86823078D01*
X96070664Y-86803208D01*
X96053504Y-86759867D01*
X96051624Y-86754379D01*
X96038618Y-86709610D01*
X96028422Y-86692370D01*
X96019861Y-86674894D01*
X96012487Y-86656270D01*
X96012486Y-86656268D01*
X95985079Y-86618545D01*
X95981888Y-86613686D01*
X95976130Y-86603950D01*
X95962340Y-86580631D01*
X95958172Y-86573583D01*
X95958165Y-86573574D01*
X95944006Y-86559415D01*
X95931368Y-86544619D01*
X95921232Y-86530668D01*
X95919594Y-86528413D01*
X95914061Y-86523836D01*
X95883688Y-86498709D01*
X95879376Y-86494786D01*
X95796770Y-86412180D01*
X95763285Y-86350857D01*
X95768269Y-86281165D01*
X95810141Y-86225232D01*
X95875605Y-86200815D01*
X95884432Y-86200499D01*
X96400008Y-86200499D01*
X96400016Y-86200498D01*
X96400019Y-86200498D01*
X96457198Y-86194657D01*
X96502797Y-86189999D01*
X96669334Y-86134814D01*
X96818656Y-86042712D01*
X96912322Y-85949045D01*
X96973641Y-85915563D01*
X97043333Y-85920547D01*
X97087676Y-85949044D01*
X97181344Y-86042712D01*
X97330666Y-86134814D01*
X97497203Y-86189999D01*
X97599991Y-86200500D01*
X98400008Y-86200499D01*
X98400016Y-86200498D01*
X98400019Y-86200498D01*
X98457198Y-86194657D01*
X98502797Y-86189999D01*
X98669334Y-86134814D01*
X98818656Y-86042712D01*
X98942712Y-85918656D01*
X99034814Y-85769334D01*
X99054311Y-85710493D01*
X99094084Y-85653051D01*
X99158600Y-85626228D01*
X99172017Y-85625500D01*
X99827983Y-85625500D01*
X99895022Y-85645185D01*
G37*
%TD.AperFunction*%
%TA.AperFunction,Conductor*%
G36*
X105256587Y-87645185D02*
G01*
X105277229Y-87661819D01*
X105458914Y-87843504D01*
X105492399Y-87904827D01*
X105487415Y-87974519D01*
X105445543Y-88030452D01*
X105380079Y-88054869D01*
X105348945Y-88053165D01*
X105347501Y-88052901D01*
X105345000Y-88052703D01*
X105345000Y-90997294D01*
X105345001Y-90997295D01*
X105347486Y-90997100D01*
X105505198Y-90951281D01*
X105646550Y-90867686D01*
X105652717Y-90862903D01*
X105654630Y-90865369D01*
X105703222Y-90838802D01*
X105772917Y-90843749D01*
X105805762Y-90864853D01*
X105806969Y-90863298D01*
X105813132Y-90868078D01*
X105813135Y-90868081D01*
X105954602Y-90951744D01*
X105991490Y-90962461D01*
X106112426Y-90997597D01*
X106112429Y-90997597D01*
X106112431Y-90997598D01*
X106149306Y-91000500D01*
X106149314Y-91000500D01*
X106580686Y-91000500D01*
X106580694Y-91000500D01*
X106617569Y-90997598D01*
X106617574Y-90997596D01*
X106622258Y-90996741D01*
X106691744Y-91004054D01*
X106746246Y-91047773D01*
X106768459Y-91114018D01*
X106751331Y-91181756D01*
X106732235Y-91206396D01*
X106725455Y-91213176D01*
X106664137Y-91246664D01*
X106637770Y-91249500D01*
X100144500Y-91249500D01*
X100077461Y-91229815D01*
X100031706Y-91177011D01*
X100020500Y-91125500D01*
X100020500Y-91085199D01*
X100040185Y-91018160D01*
X100092989Y-90972405D01*
X100162147Y-90962461D01*
X100179089Y-90966121D01*
X100287431Y-90997598D01*
X100324306Y-91000500D01*
X100324314Y-91000500D01*
X100755686Y-91000500D01*
X100755694Y-91000500D01*
X100792569Y-90997598D01*
X100792571Y-90997597D01*
X100792573Y-90997597D01*
X100863959Y-90976857D01*
X100950398Y-90951744D01*
X101091865Y-90868081D01*
X101091870Y-90868076D01*
X101098026Y-90863301D01*
X101099922Y-90865745D01*
X101148642Y-90839142D01*
X101218334Y-90844126D01*
X101250708Y-90864932D01*
X101251974Y-90863301D01*
X101258139Y-90868084D01*
X101312134Y-90900016D01*
X101399602Y-90951744D01*
X101436490Y-90962461D01*
X101557426Y-90997597D01*
X101557429Y-90997597D01*
X101557431Y-90997598D01*
X101594306Y-91000500D01*
X101594314Y-91000500D01*
X102025686Y-91000500D01*
X102025694Y-91000500D01*
X102062569Y-90997598D01*
X102062571Y-90997597D01*
X102062573Y-90997597D01*
X102133959Y-90976857D01*
X102220398Y-90951744D01*
X102361865Y-90868081D01*
X102478081Y-90751865D01*
X102561744Y-90610398D01*
X102607598Y-90452569D01*
X102610500Y-90415694D01*
X102610500Y-89775000D01*
X104295000Y-89775000D01*
X104295000Y-90415649D01*
X104297899Y-90452489D01*
X104297900Y-90452495D01*
X104343716Y-90610193D01*
X104343717Y-90610196D01*
X104427314Y-90751552D01*
X104427321Y-90751561D01*
X104543438Y-90867678D01*
X104543447Y-90867685D01*
X104684801Y-90951281D01*
X104842514Y-90997100D01*
X104842511Y-90997100D01*
X104844998Y-90997295D01*
X104845000Y-90997295D01*
X104845000Y-89775000D01*
X104295000Y-89775000D01*
X102610500Y-89775000D01*
X102610500Y-89275000D01*
X104295000Y-89275000D01*
X104845000Y-89275000D01*
X104845000Y-88052703D01*
X104842503Y-88052900D01*
X104684806Y-88098716D01*
X104684803Y-88098717D01*
X104543447Y-88182314D01*
X104543438Y-88182321D01*
X104427321Y-88298438D01*
X104427314Y-88298447D01*
X104343717Y-88439803D01*
X104343716Y-88439806D01*
X104297900Y-88597504D01*
X104297899Y-88597510D01*
X104295000Y-88634350D01*
X104295000Y-89275000D01*
X102610500Y-89275000D01*
X102610500Y-88634306D01*
X102607598Y-88597431D01*
X102602132Y-88578618D01*
X102570972Y-88471365D01*
X102561744Y-88439602D01*
X102561741Y-88439597D01*
X102559950Y-88435457D01*
X102551386Y-88366114D01*
X102581672Y-88303149D01*
X102586046Y-88298543D01*
X103222771Y-87661819D01*
X103284095Y-87628334D01*
X103310453Y-87625500D01*
X105189548Y-87625500D01*
X105256587Y-87645185D01*
G37*
%TD.AperFunction*%
%TD*%
D30*
X104000000Y-90000000D03*
X86500000Y-88500000D03*
X72000000Y-89000000D03*
X90000000Y-90500000D03*
X104000000Y-88500000D03*
X85000000Y-86000000D03*
X89500000Y-100500000D03*
X115000000Y-99000000D03*
X89500000Y-99000000D03*
X104500000Y-100500000D03*
X105000000Y-98000000D03*
X103000000Y-88500000D03*
X113500000Y-90500000D03*
X99000000Y-86324500D03*
X90000000Y-89500000D03*
X105500000Y-96500000D03*
X72500000Y-87500000D03*
X115000000Y-97000000D03*
X75500000Y-85500000D03*
X99000000Y-87500000D03*
X90168062Y-97331938D03*
X74500000Y-97500000D03*
X113000000Y-97000000D03*
X97500000Y-87500000D03*
X72000000Y-96500000D03*
X72000000Y-90500000D03*
X74500000Y-87000000D03*
X103000000Y-90000000D03*
X73000000Y-97500000D03*
X86000000Y-85000000D03*
X85500000Y-89000000D03*
X97472126Y-86280670D03*
X84000000Y-87000000D03*
X79000000Y-96000000D03*
X100000000Y-102000000D03*
X100000000Y-82000000D03*
X108500000Y-97000000D03*
X89768750Y-95731250D03*
X113000000Y-93500000D03*
X104000000Y-82000000D03*
X97500000Y-93000000D03*
X94500000Y-96275500D03*
X89000000Y-85000000D03*
X90000000Y-86487701D03*
X94500000Y-87500000D03*
X103000000Y-92849500D03*
M02*
