%TF.GenerationSoftware,KiCad,Pcbnew,7.0.5*%
%TF.CreationDate,2024-03-20T19:06:25+01:00*%
%TF.ProjectId,anemometer,616e656d-6f6d-4657-9465-722e6b696361,rev?*%
%TF.SameCoordinates,Original*%
%TF.FileFunction,Copper,L2,Bot*%
%TF.FilePolarity,Positive*%
%FSLAX46Y46*%
G04 Gerber Fmt 4.6, Leading zero omitted, Abs format (unit mm)*
G04 Created by KiCad (PCBNEW 7.0.5) date 2024-03-20 19:06:25*
%MOMM*%
%LPD*%
G01*
G04 APERTURE LIST*
G04 Aperture macros list*
%AMRoundRect*
0 Rectangle with rounded corners*
0 $1 Rounding radius*
0 $2 $3 $4 $5 $6 $7 $8 $9 X,Y pos of 4 corners*
0 Add a 4 corners polygon primitive as box body*
4,1,4,$2,$3,$4,$5,$6,$7,$8,$9,$2,$3,0*
0 Add four circle primitives for the rounded corners*
1,1,$1+$1,$2,$3*
1,1,$1+$1,$4,$5*
1,1,$1+$1,$6,$7*
1,1,$1+$1,$8,$9*
0 Add four rect primitives between the rounded corners*
20,1,$1+$1,$2,$3,$4,$5,0*
20,1,$1+$1,$4,$5,$6,$7,0*
20,1,$1+$1,$6,$7,$8,$9,0*
20,1,$1+$1,$8,$9,$2,$3,0*%
%AMFreePoly0*
4,1,19,0.500000,-0.750000,0.000000,-0.750000,0.000000,-0.744911,-0.071157,-0.744911,-0.207708,-0.704816,-0.327430,-0.627875,-0.420627,-0.520320,-0.479746,-0.390866,-0.500000,-0.250000,-0.500000,0.250000,-0.479746,0.390866,-0.420627,0.520320,-0.327430,0.627875,-0.207708,0.704816,-0.071157,0.744911,0.000000,0.744911,0.000000,0.750000,0.500000,0.750000,0.500000,-0.750000,0.500000,-0.750000,
$1*%
%AMFreePoly1*
4,1,19,0.000000,0.744911,0.071157,0.744911,0.207708,0.704816,0.327430,0.627875,0.420627,0.520320,0.479746,0.390866,0.500000,0.250000,0.500000,-0.250000,0.479746,-0.390866,0.420627,-0.520320,0.327430,-0.627875,0.207708,-0.704816,0.071157,-0.744911,0.000000,-0.744911,0.000000,-0.750000,-0.500000,-0.750000,-0.500000,0.750000,0.000000,0.750000,0.000000,0.744911,0.000000,0.744911,
$1*%
G04 Aperture macros list end*
%TA.AperFunction,SMDPad,CuDef*%
%ADD10RoundRect,0.250000X0.475000X-0.337500X0.475000X0.337500X-0.475000X0.337500X-0.475000X-0.337500X0*%
%TD*%
%TA.AperFunction,SMDPad,CuDef*%
%ADD11RoundRect,0.250000X0.450000X-0.350000X0.450000X0.350000X-0.450000X0.350000X-0.450000X-0.350000X0*%
%TD*%
%TA.AperFunction,SMDPad,CuDef*%
%ADD12FreePoly0,0.000000*%
%TD*%
%TA.AperFunction,SMDPad,CuDef*%
%ADD13FreePoly1,0.000000*%
%TD*%
%TA.AperFunction,SMDPad,CuDef*%
%ADD14RoundRect,0.250000X0.350000X0.450000X-0.350000X0.450000X-0.350000X-0.450000X0.350000X-0.450000X0*%
%TD*%
%TA.AperFunction,SMDPad,CuDef*%
%ADD15RoundRect,0.250000X0.337500X0.475000X-0.337500X0.475000X-0.337500X-0.475000X0.337500X-0.475000X0*%
%TD*%
%TA.AperFunction,SMDPad,CuDef*%
%ADD16RoundRect,0.250000X-0.350000X-0.450000X0.350000X-0.450000X0.350000X0.450000X-0.350000X0.450000X0*%
%TD*%
%TA.AperFunction,SMDPad,CuDef*%
%ADD17RoundRect,0.250000X-0.450000X0.350000X-0.450000X-0.350000X0.450000X-0.350000X0.450000X0.350000X0*%
%TD*%
%TA.AperFunction,SMDPad,CuDef*%
%ADD18RoundRect,0.250000X-0.475000X0.337500X-0.475000X-0.337500X0.475000X-0.337500X0.475000X0.337500X0*%
%TD*%
%TA.AperFunction,ViaPad*%
%ADD19C,0.800000*%
%TD*%
%TA.AperFunction,ViaPad*%
%ADD20C,1.000000*%
%TD*%
%TA.AperFunction,Conductor*%
%ADD21C,0.250000*%
%TD*%
%TA.AperFunction,Conductor*%
%ADD22C,0.500000*%
%TD*%
%ADD23C,0.350000*%
G04 APERTURE END LIST*
%TA.AperFunction,EtchedComponent*%
%TO.C,EN_Filter1*%
G36*
X96250000Y-102300000D02*
G01*
X95750000Y-102300000D01*
X95750000Y-101700000D01*
X96250000Y-101700000D01*
X96250000Y-102300000D01*
G37*
%TD.AperFunction*%
%TA.AperFunction,EtchedComponent*%
%TO.C,EN_Filter2*%
G36*
X96250000Y-82300000D02*
G01*
X95750000Y-82300000D01*
X95750000Y-81700000D01*
X96250000Y-81700000D01*
X96250000Y-82300000D01*
G37*
%TD.AperFunction*%
%TD*%
D10*
%TO.P,C1,1*%
%TO.N,Net-(C1-Pad1)*%
X96000000Y-99037500D03*
%TO.P,C1,2*%
%TO.N,GND*%
X96000000Y-96962500D03*
%TD*%
D11*
%TO.P,R7,1*%
%TO.N,Net-(EN_Filter1-B)*%
X103500000Y-99000000D03*
%TO.P,R7,2*%
%TO.N,GND*%
X103500000Y-97000000D03*
%TD*%
D12*
%TO.P,EN_Filter1,1,A*%
%TO.N,Net-(EN_Filter1-A)*%
X95350000Y-102000000D03*
D13*
%TO.P,EN_Filter1,2,B*%
%TO.N,Net-(EN_Filter1-B)*%
X96650000Y-102000000D03*
%TD*%
D14*
%TO.P,R9,1*%
%TO.N,Net-(C3-Pad1)*%
X93000000Y-85000000D03*
%TO.P,R9,2*%
%TO.N,Net-(EN_4Stage2-B)*%
X91000000Y-85000000D03*
%TD*%
D15*
%TO.P,C2,1*%
%TO.N,Net-(EN_Filter1-B)*%
X100887500Y-99000000D03*
%TO.P,C2,2*%
%TO.N,Net-(C1-Pad1)*%
X98812500Y-99000000D03*
%TD*%
D16*
%TO.P,R18,1*%
%TO.N,Net-(EN_4Stage2-B)*%
X91000000Y-87000000D03*
%TO.P,R18,2*%
%TO.N,Net-(EN_4Stage2-A)*%
X93000000Y-87000000D03*
%TD*%
%TO.P,R17,1*%
%TO.N,Net-(EN_4Stage2-A)*%
X94000000Y-91000000D03*
%TO.P,R17,2*%
%TO.N,Sig1*%
X96000000Y-91000000D03*
%TD*%
D17*
%TO.P,R10,1*%
%TO.N,Net-(EN_Filter2-B)*%
X103500000Y-85000000D03*
%TO.P,R10,2*%
%TO.N,GND*%
X103500000Y-87000000D03*
%TD*%
D18*
%TO.P,C3,1*%
%TO.N,Net-(C3-Pad1)*%
X96000000Y-84962500D03*
%TO.P,C3,2*%
%TO.N,GND*%
X96000000Y-87037500D03*
%TD*%
D12*
%TO.P,EN_Filter2,1,A*%
%TO.N,Net-(EN_4Stage2-B)*%
X95350000Y-82000000D03*
D13*
%TO.P,EN_Filter2,2,B*%
%TO.N,Net-(EN_Filter2-B)*%
X96650000Y-82000000D03*
%TD*%
D14*
%TO.P,R6,1*%
%TO.N,Net-(C1-Pad1)*%
X93000000Y-99000000D03*
%TO.P,R6,2*%
%TO.N,Net-(EN_Filter1-A)*%
X91000000Y-99000000D03*
%TD*%
D15*
%TO.P,C4,1*%
%TO.N,Net-(EN_Filter2-B)*%
X101037500Y-85000000D03*
%TO.P,C4,2*%
%TO.N,Net-(C3-Pad1)*%
X98962500Y-85000000D03*
%TD*%
D19*
%TO.N,GND*%
X104000000Y-90000000D03*
X86500000Y-88500000D03*
X114500000Y-95500000D03*
X72000000Y-89000000D03*
X90000000Y-90500000D03*
X104000000Y-88500000D03*
X113000000Y-95500000D03*
X85000000Y-86000000D03*
X89500000Y-100500000D03*
X115000000Y-85000000D03*
X89500000Y-99000000D03*
X104500000Y-100500000D03*
X105000000Y-98000000D03*
X103000000Y-88500000D03*
X119500000Y-99000000D03*
X119000000Y-100000000D03*
X99000000Y-86324500D03*
X90000000Y-89500000D03*
X113000000Y-97000000D03*
X115000000Y-83000000D03*
X105500000Y-96500000D03*
X72500000Y-87500000D03*
X75500000Y-85500000D03*
X99000000Y-87500000D03*
X114500000Y-97000000D03*
X90168062Y-97331938D03*
X74500000Y-97500000D03*
X97500000Y-87500000D03*
X72000000Y-96500000D03*
X117500000Y-97000000D03*
X72000000Y-90500000D03*
X74500000Y-87000000D03*
X103000000Y-90000000D03*
X73000000Y-97500000D03*
X86000000Y-85000000D03*
X85500000Y-89000000D03*
X113000000Y-87000000D03*
X97472126Y-86280670D03*
X84000000Y-87000000D03*
X79000000Y-96000000D03*
%TO.N,Net-(EN_Filter1-B)*%
X100000000Y-102000000D03*
%TO.N,Net-(EN_Filter2-B)*%
X100000000Y-82000000D03*
D20*
%TO.N,+5V*%
X108500000Y-97000000D03*
X89768750Y-95731250D03*
X113000000Y-93500000D03*
X104000000Y-82000000D03*
X97500000Y-93000000D03*
D19*
%TO.N,Net-(EN_Filter1-A)*%
X94500000Y-96275500D03*
%TO.N,Net-(EN_4Stage2-A)*%
X94500000Y-87500000D03*
%TO.N,Net-(EN_4Stage2-B)*%
X89000000Y-85000000D03*
X90000000Y-86487701D03*
%TO.N,Sig1*%
X103000000Y-92849500D03*
%TD*%
D21*
%TO.N,Net-(C1-Pad1)*%
X95812500Y-99000000D02*
X95850000Y-98962500D01*
X95887500Y-99000000D02*
X95850000Y-98962500D01*
X93000000Y-99000000D02*
X98812500Y-99000000D01*
%TO.N,Net-(EN_Filter1-B)*%
X100887500Y-101112500D02*
X100887500Y-99000000D01*
X100000000Y-102000000D02*
X100887500Y-101112500D01*
X103500000Y-99000000D02*
X100887500Y-99000000D01*
X100000000Y-102000000D02*
X96650000Y-102000000D01*
%TO.N,Net-(C3-Pad1)*%
X98618750Y-85000000D02*
X95731250Y-85000000D01*
X95731250Y-85000000D02*
X95693750Y-84962500D01*
X95656250Y-85000000D02*
X95693750Y-84962500D01*
X92693750Y-85000000D02*
X95656250Y-85000000D01*
%TO.N,Net-(EN_Filter2-B)*%
X100000000Y-82000000D02*
X101037500Y-83037500D01*
X103693750Y-85000000D02*
X100693750Y-85000000D01*
X100000000Y-82000000D02*
X96650000Y-82000000D01*
X101037500Y-83037500D02*
X101037500Y-85000000D01*
D22*
%TO.N,+5V*%
X98000000Y-95000000D02*
X98500000Y-95500000D01*
X96000000Y-93000000D02*
X98000000Y-95000000D01*
X107000000Y-85000000D02*
X107000000Y-95500000D01*
X89768750Y-94231250D02*
X91000000Y-93000000D01*
X112000000Y-93500000D02*
X108500000Y-97000000D01*
X97500000Y-93000000D02*
X97500000Y-94500000D01*
X89768750Y-95731250D02*
X89768750Y-94231250D01*
X98500000Y-95500000D02*
X107000000Y-95500000D01*
X91000000Y-93000000D02*
X96000000Y-93000000D01*
X104000000Y-82000000D02*
X107000000Y-85000000D01*
X113000000Y-93500000D02*
X112000000Y-93500000D01*
X97500000Y-94500000D02*
X98000000Y-95000000D01*
X107000000Y-95500000D02*
X108500000Y-97000000D01*
D21*
%TO.N,Net-(EN_Filter1-A)*%
X95350000Y-102000000D02*
X92500000Y-102000000D01*
X94500000Y-96275500D02*
X93724500Y-96275500D01*
X92500000Y-102000000D02*
X91000000Y-100500000D01*
X93724500Y-96275500D02*
X91000000Y-99000000D01*
X91000000Y-100500000D02*
X91000000Y-99000000D01*
%TO.N,Net-(EN_4Stage2-A)*%
X93000000Y-89000000D02*
X93000000Y-87000000D01*
X93000000Y-87000000D02*
X94000000Y-87000000D01*
X94000000Y-87000000D02*
X94500000Y-87500000D01*
X93000000Y-90000000D02*
X94000000Y-91000000D01*
X93000000Y-89000000D02*
X93000000Y-90000000D01*
%TO.N,Net-(EN_4Stage2-B)*%
X90000000Y-86487701D02*
X90487701Y-86487701D01*
X91000000Y-85000000D02*
X89000000Y-85000000D01*
X90693750Y-85000000D02*
X91000000Y-84693750D01*
X91000000Y-83500000D02*
X91000000Y-85000000D01*
X90487701Y-86487701D02*
X91000000Y-87000000D01*
X95350000Y-82000000D02*
X92500000Y-82000000D01*
X92500000Y-82000000D02*
X91000000Y-83500000D01*
%TO.N,Sig1*%
X101150500Y-91000000D02*
X103000000Y-92849500D01*
X96000000Y-91000000D02*
X101150500Y-91000000D01*
%TD*%
%TA.AperFunction,Conductor*%
%TO.N,GND*%
G36*
X120442539Y-79020185D02*
G01*
X120488294Y-79072989D01*
X120499500Y-79124500D01*
X120499500Y-104875500D01*
X120479815Y-104942539D01*
X120427011Y-104988294D01*
X120375500Y-104999500D01*
X68624500Y-104999500D01*
X68557461Y-104979815D01*
X68511706Y-104927011D01*
X68500500Y-104875500D01*
X68500500Y-99500001D01*
X89899500Y-99500001D01*
X89899501Y-99500019D01*
X89910000Y-99602796D01*
X89910001Y-99602799D01*
X89945689Y-99710496D01*
X89965186Y-99769334D01*
X90057288Y-99918656D01*
X90181344Y-100042712D01*
X90315597Y-100125519D01*
X90362321Y-100177465D01*
X90374500Y-100231057D01*
X90374500Y-100417255D01*
X90372775Y-100432872D01*
X90373061Y-100432899D01*
X90372326Y-100440666D01*
X90374469Y-100508846D01*
X90374500Y-100510793D01*
X90374500Y-100539343D01*
X90374501Y-100539360D01*
X90375368Y-100546231D01*
X90375826Y-100552050D01*
X90377290Y-100598624D01*
X90377291Y-100598627D01*
X90382880Y-100617867D01*
X90386824Y-100636911D01*
X90389336Y-100656791D01*
X90406490Y-100700119D01*
X90408382Y-100705647D01*
X90421382Y-100750390D01*
X90429924Y-100764835D01*
X90431580Y-100767634D01*
X90440138Y-100785103D01*
X90447514Y-100803732D01*
X90474898Y-100841423D01*
X90478106Y-100846307D01*
X90501827Y-100886416D01*
X90501833Y-100886424D01*
X90515990Y-100900580D01*
X90528628Y-100915376D01*
X90540405Y-100931586D01*
X90540406Y-100931587D01*
X90576309Y-100961288D01*
X90580620Y-100965210D01*
X91803665Y-102188256D01*
X91999197Y-102383788D01*
X92009022Y-102396051D01*
X92009243Y-102395869D01*
X92014211Y-102401874D01*
X92063932Y-102448566D01*
X92065332Y-102449923D01*
X92085523Y-102470115D01*
X92085527Y-102470118D01*
X92085529Y-102470120D01*
X92091011Y-102474373D01*
X92095443Y-102478157D01*
X92129418Y-102510062D01*
X92146976Y-102519714D01*
X92163235Y-102530395D01*
X92179064Y-102542673D01*
X92221838Y-102561182D01*
X92227056Y-102563738D01*
X92267908Y-102586197D01*
X92287316Y-102591180D01*
X92305717Y-102597480D01*
X92324104Y-102605437D01*
X92367488Y-102612308D01*
X92370119Y-102612725D01*
X92375839Y-102613909D01*
X92420981Y-102625500D01*
X92441016Y-102625500D01*
X92460414Y-102627026D01*
X92480194Y-102630159D01*
X92480195Y-102630160D01*
X92480195Y-102630159D01*
X92480196Y-102630160D01*
X92526583Y-102625775D01*
X92532422Y-102625500D01*
X94336242Y-102625500D01*
X94403281Y-102645185D01*
X94449036Y-102697988D01*
X94465095Y-102733153D01*
X94465105Y-102733171D01*
X94542896Y-102854216D01*
X94542899Y-102854220D01*
X94542903Y-102854226D01*
X94542908Y-102854231D01*
X94542912Y-102854237D01*
X94548897Y-102861144D01*
X94637057Y-102962887D01*
X94637060Y-102962890D01*
X94745830Y-103057139D01*
X94806307Y-103096004D01*
X94866778Y-103134868D01*
X94866780Y-103134868D01*
X94866784Y-103134871D01*
X94997700Y-103194658D01*
X95135655Y-103235165D01*
X95278111Y-103255647D01*
X95278114Y-103255647D01*
X95850000Y-103255647D01*
X95921961Y-103250500D01*
X95959270Y-103239544D01*
X96011848Y-103235784D01*
X96150000Y-103255647D01*
X96150003Y-103255647D01*
X96721886Y-103255647D01*
X96721889Y-103255647D01*
X96864345Y-103235165D01*
X97002300Y-103194658D01*
X97133216Y-103134871D01*
X97254170Y-103057139D01*
X97254174Y-103057136D01*
X97362943Y-102962887D01*
X97451103Y-102861144D01*
X97457088Y-102854237D01*
X97457090Y-102854233D01*
X97457097Y-102854226D01*
X97534904Y-102733155D01*
X97550964Y-102697986D01*
X97596719Y-102645184D01*
X97663758Y-102625500D01*
X99296252Y-102625500D01*
X99363291Y-102645185D01*
X99388400Y-102666526D01*
X99394126Y-102672885D01*
X99394130Y-102672889D01*
X99547265Y-102784148D01*
X99547270Y-102784151D01*
X99720192Y-102861142D01*
X99720197Y-102861144D01*
X99905354Y-102900500D01*
X99905355Y-102900500D01*
X100094644Y-102900500D01*
X100094646Y-102900500D01*
X100279803Y-102861144D01*
X100452730Y-102784151D01*
X100605871Y-102672888D01*
X100732533Y-102532216D01*
X100827179Y-102368284D01*
X100885674Y-102188256D01*
X100903321Y-102020345D01*
X100929905Y-101955732D01*
X100938952Y-101945636D01*
X101271286Y-101613302D01*
X101283548Y-101603480D01*
X101283365Y-101603259D01*
X101289373Y-101598288D01*
X101289377Y-101598286D01*
X101336149Y-101548477D01*
X101337391Y-101547197D01*
X101357620Y-101526970D01*
X101361873Y-101521486D01*
X101365650Y-101517063D01*
X101397562Y-101483082D01*
X101407214Y-101465523D01*
X101417889Y-101449272D01*
X101430174Y-101433436D01*
X101448686Y-101390652D01*
X101451242Y-101385435D01*
X101473697Y-101344592D01*
X101478680Y-101325180D01*
X101484977Y-101306791D01*
X101492938Y-101288395D01*
X101500229Y-101242353D01*
X101501408Y-101236662D01*
X101513000Y-101191519D01*
X101513000Y-101171483D01*
X101514527Y-101152082D01*
X101517660Y-101132304D01*
X101513275Y-101085915D01*
X101513000Y-101080077D01*
X101513000Y-100248347D01*
X101532685Y-100181308D01*
X101571901Y-100142810D01*
X101693656Y-100067712D01*
X101817712Y-99943656D01*
X101909814Y-99794334D01*
X101937595Y-99710495D01*
X101977368Y-99653051D01*
X102041884Y-99626228D01*
X102055301Y-99625500D01*
X102268942Y-99625500D01*
X102335981Y-99645185D01*
X102374479Y-99684401D01*
X102457288Y-99818656D01*
X102581344Y-99942712D01*
X102730666Y-100034814D01*
X102897203Y-100089999D01*
X102999991Y-100100500D01*
X104000008Y-100100499D01*
X104000016Y-100100498D01*
X104000019Y-100100498D01*
X104056302Y-100094748D01*
X104102797Y-100089999D01*
X104269334Y-100034814D01*
X104418656Y-99942712D01*
X104542712Y-99818656D01*
X104634814Y-99669334D01*
X104689999Y-99502797D01*
X104700500Y-99400009D01*
X104700499Y-98599992D01*
X104689999Y-98497203D01*
X104634814Y-98330666D01*
X104542712Y-98181344D01*
X104448695Y-98087327D01*
X104415210Y-98026004D01*
X104420194Y-97956312D01*
X104448695Y-97911964D01*
X104542317Y-97818342D01*
X104634356Y-97669124D01*
X104634358Y-97669119D01*
X104689505Y-97502697D01*
X104689506Y-97502690D01*
X104699999Y-97399986D01*
X104700000Y-97399973D01*
X104700000Y-97250000D01*
X102300001Y-97250000D01*
X102300001Y-97399986D01*
X102310494Y-97502697D01*
X102365641Y-97669119D01*
X102365643Y-97669124D01*
X102457684Y-97818345D01*
X102551304Y-97911965D01*
X102584789Y-97973288D01*
X102579805Y-98042980D01*
X102551305Y-98087326D01*
X102457288Y-98181344D01*
X102382861Y-98302011D01*
X102374481Y-98315597D01*
X102322533Y-98362321D01*
X102268942Y-98374500D01*
X102055301Y-98374500D01*
X101988262Y-98354815D01*
X101942507Y-98302011D01*
X101937596Y-98289507D01*
X101909814Y-98205666D01*
X101817712Y-98056344D01*
X101693656Y-97932288D01*
X101544334Y-97840186D01*
X101377797Y-97785001D01*
X101377795Y-97785000D01*
X101275010Y-97774500D01*
X100499998Y-97774500D01*
X100499980Y-97774501D01*
X100397203Y-97785000D01*
X100397200Y-97785001D01*
X100230668Y-97840185D01*
X100230663Y-97840187D01*
X100081342Y-97932289D01*
X99957285Y-98056346D01*
X99955537Y-98059182D01*
X99953829Y-98060717D01*
X99952807Y-98062011D01*
X99952585Y-98061836D01*
X99903589Y-98105905D01*
X99834626Y-98117126D01*
X99770544Y-98089282D01*
X99744463Y-98059182D01*
X99742714Y-98056346D01*
X99618657Y-97932289D01*
X99618656Y-97932288D01*
X99469334Y-97840186D01*
X99302797Y-97785001D01*
X99302795Y-97785000D01*
X99200010Y-97774500D01*
X98424998Y-97774500D01*
X98424980Y-97774501D01*
X98322203Y-97785000D01*
X98322200Y-97785001D01*
X98155668Y-97840185D01*
X98155663Y-97840187D01*
X98006342Y-97932289D01*
X97882289Y-98056342D01*
X97790187Y-98205663D01*
X97790185Y-98205668D01*
X97762405Y-98289504D01*
X97722632Y-98346949D01*
X97658116Y-98373772D01*
X97644699Y-98374500D01*
X97225218Y-98374500D01*
X97158179Y-98354815D01*
X97119679Y-98315597D01*
X97067712Y-98231344D01*
X96943656Y-98107288D01*
X96940342Y-98105243D01*
X96938546Y-98103248D01*
X96937989Y-98102807D01*
X96938064Y-98102711D01*
X96893618Y-98053297D01*
X96882397Y-97984334D01*
X96910240Y-97920252D01*
X96940348Y-97894165D01*
X96943342Y-97892318D01*
X97067315Y-97768345D01*
X97159356Y-97619124D01*
X97159358Y-97619119D01*
X97214505Y-97452697D01*
X97214506Y-97452690D01*
X97224999Y-97349986D01*
X97225000Y-97349973D01*
X97225000Y-97212500D01*
X95874000Y-97212500D01*
X95806961Y-97192815D01*
X95761206Y-97140011D01*
X95750000Y-97088500D01*
X95750000Y-95875000D01*
X96250000Y-95875000D01*
X96250000Y-96712500D01*
X97224999Y-96712500D01*
X97224999Y-96575028D01*
X97224998Y-96575013D01*
X97214505Y-96472302D01*
X97159358Y-96305880D01*
X97159356Y-96305875D01*
X97067315Y-96156654D01*
X96943345Y-96032684D01*
X96794124Y-95940643D01*
X96794119Y-95940641D01*
X96627697Y-95885494D01*
X96627690Y-95885493D01*
X96524986Y-95875000D01*
X96250000Y-95875000D01*
X95750000Y-95875000D01*
X95475029Y-95875000D01*
X95475010Y-95875001D01*
X95397702Y-95882899D01*
X95329009Y-95870129D01*
X95278125Y-95822248D01*
X95277844Y-95821766D01*
X95232533Y-95743284D01*
X95105871Y-95602612D01*
X95105870Y-95602611D01*
X94952734Y-95491351D01*
X94952729Y-95491348D01*
X94779807Y-95414357D01*
X94779802Y-95414355D01*
X94634000Y-95383365D01*
X94594646Y-95375000D01*
X94405354Y-95375000D01*
X94372897Y-95381898D01*
X94220197Y-95414355D01*
X94220192Y-95414357D01*
X94047270Y-95491348D01*
X94047265Y-95491351D01*
X93894130Y-95602610D01*
X93894123Y-95602617D01*
X93889684Y-95607547D01*
X93830196Y-95644192D01*
X93791629Y-95647521D01*
X93791631Y-95647582D01*
X93790524Y-95647616D01*
X93785865Y-95648019D01*
X93783834Y-95647826D01*
X93715653Y-95649969D01*
X93713706Y-95650000D01*
X93685149Y-95650000D01*
X93678266Y-95650869D01*
X93672449Y-95651326D01*
X93625873Y-95652790D01*
X93606629Y-95658381D01*
X93587579Y-95662325D01*
X93567711Y-95664834D01*
X93524384Y-95681988D01*
X93518858Y-95683879D01*
X93474114Y-95696879D01*
X93474110Y-95696881D01*
X93456866Y-95707079D01*
X93439405Y-95715633D01*
X93420774Y-95723010D01*
X93420762Y-95723017D01*
X93383070Y-95750402D01*
X93378187Y-95753609D01*
X93338080Y-95777329D01*
X93323914Y-95791495D01*
X93309124Y-95804127D01*
X93292914Y-95815904D01*
X93292911Y-95815907D01*
X93263210Y-95851809D01*
X93259277Y-95856131D01*
X91352227Y-97763181D01*
X91290904Y-97796666D01*
X91264546Y-97799500D01*
X90599998Y-97799500D01*
X90599980Y-97799501D01*
X90497203Y-97810000D01*
X90497200Y-97810001D01*
X90330668Y-97865185D01*
X90330663Y-97865187D01*
X90181342Y-97957289D01*
X90057289Y-98081342D01*
X89965187Y-98230663D01*
X89965185Y-98230666D01*
X89965186Y-98230666D01*
X89910001Y-98397203D01*
X89910001Y-98397204D01*
X89910000Y-98397204D01*
X89899500Y-98499983D01*
X89899500Y-99500001D01*
X68500500Y-99500001D01*
X68500500Y-85000000D01*
X88094540Y-85000000D01*
X88114326Y-85188256D01*
X88114327Y-85188259D01*
X88172818Y-85368277D01*
X88172821Y-85368284D01*
X88267467Y-85532216D01*
X88353529Y-85627797D01*
X88394129Y-85672888D01*
X88547265Y-85784148D01*
X88547270Y-85784151D01*
X88720192Y-85861142D01*
X88720197Y-85861144D01*
X88905354Y-85900500D01*
X88905355Y-85900500D01*
X89084439Y-85900500D01*
X89151478Y-85920185D01*
X89197233Y-85972989D01*
X89207177Y-86042147D01*
X89191826Y-86086498D01*
X89184068Y-86099935D01*
X89172821Y-86119416D01*
X89172818Y-86119423D01*
X89114327Y-86299441D01*
X89114326Y-86299445D01*
X89094540Y-86487701D01*
X89114326Y-86675957D01*
X89114327Y-86675960D01*
X89172818Y-86855978D01*
X89172821Y-86855985D01*
X89267467Y-87019917D01*
X89368132Y-87131716D01*
X89394129Y-87160589D01*
X89547265Y-87271849D01*
X89547270Y-87271852D01*
X89720197Y-87348845D01*
X89801283Y-87366080D01*
X89862762Y-87399270D01*
X89896539Y-87460433D01*
X89899500Y-87487361D01*
X89899500Y-87499997D01*
X89899501Y-87500019D01*
X89910000Y-87602796D01*
X89910001Y-87602799D01*
X89938319Y-87688256D01*
X89965186Y-87769334D01*
X90057288Y-87918656D01*
X90181344Y-88042712D01*
X90330666Y-88134814D01*
X90497203Y-88189999D01*
X90599991Y-88200500D01*
X91400008Y-88200499D01*
X91400016Y-88200498D01*
X91400019Y-88200498D01*
X91456302Y-88194748D01*
X91502797Y-88189999D01*
X91669334Y-88134814D01*
X91818656Y-88042712D01*
X91912319Y-87949049D01*
X91973642Y-87915564D01*
X92043334Y-87920548D01*
X92087680Y-87949048D01*
X92181344Y-88042712D01*
X92315597Y-88125519D01*
X92362321Y-88177465D01*
X92374500Y-88231057D01*
X92374500Y-89917255D01*
X92372775Y-89932872D01*
X92373061Y-89932899D01*
X92372326Y-89940666D01*
X92374469Y-90008846D01*
X92374500Y-90010793D01*
X92374500Y-90039343D01*
X92374501Y-90039360D01*
X92375368Y-90046231D01*
X92375826Y-90052050D01*
X92377290Y-90098624D01*
X92377291Y-90098627D01*
X92382880Y-90117867D01*
X92386824Y-90136911D01*
X92389336Y-90156792D01*
X92406490Y-90200119D01*
X92408382Y-90205647D01*
X92421381Y-90250388D01*
X92431580Y-90267634D01*
X92440138Y-90285103D01*
X92447514Y-90303732D01*
X92474898Y-90341423D01*
X92478106Y-90346307D01*
X92501827Y-90386416D01*
X92501833Y-90386424D01*
X92515990Y-90400580D01*
X92528628Y-90415376D01*
X92540405Y-90431586D01*
X92540406Y-90431587D01*
X92576309Y-90461288D01*
X92580620Y-90465210D01*
X92721940Y-90606530D01*
X92863181Y-90747771D01*
X92896666Y-90809094D01*
X92899500Y-90835452D01*
X92899500Y-91500001D01*
X92899501Y-91500019D01*
X92910000Y-91602796D01*
X92910001Y-91602799D01*
X92965185Y-91769331D01*
X92965186Y-91769334D01*
X93055380Y-91915563D01*
X93057289Y-91918657D01*
X93176451Y-92037819D01*
X93209936Y-92099142D01*
X93204952Y-92168834D01*
X93163080Y-92224767D01*
X93097616Y-92249184D01*
X93088770Y-92249500D01*
X91063705Y-92249500D01*
X91045735Y-92248191D01*
X91021972Y-92244710D01*
X90976890Y-92248655D01*
X90969933Y-92249264D01*
X90964532Y-92249500D01*
X90956283Y-92249500D01*
X90924589Y-92253204D01*
X90922821Y-92253385D01*
X90905405Y-92254909D01*
X90847199Y-92260001D01*
X90840133Y-92261461D01*
X90840121Y-92261404D01*
X90832754Y-92263038D01*
X90832768Y-92263094D01*
X90825745Y-92264758D01*
X90754424Y-92290715D01*
X90752724Y-92291306D01*
X90680666Y-92315185D01*
X90674119Y-92318238D01*
X90674094Y-92318186D01*
X90667314Y-92321468D01*
X90667340Y-92321520D01*
X90660882Y-92324763D01*
X90597483Y-92366460D01*
X90595965Y-92367428D01*
X90531346Y-92407287D01*
X90525677Y-92411770D01*
X90525641Y-92411724D01*
X90519798Y-92416484D01*
X90519835Y-92416528D01*
X90514309Y-92421164D01*
X90462213Y-92476381D01*
X90460957Y-92477674D01*
X89283108Y-93655522D01*
X89269479Y-93667301D01*
X89250218Y-93681640D01*
X89216648Y-93721647D01*
X89213003Y-93725626D01*
X89207157Y-93731473D01*
X89187368Y-93756501D01*
X89186231Y-93757897D01*
X89137444Y-93816040D01*
X89133479Y-93822069D01*
X89133432Y-93822038D01*
X89129380Y-93828397D01*
X89129429Y-93828427D01*
X89125639Y-93834571D01*
X89093562Y-93903360D01*
X89092777Y-93904981D01*
X89058707Y-93972822D01*
X89056238Y-93979607D01*
X89056182Y-93979586D01*
X89053710Y-93986700D01*
X89053765Y-93986719D01*
X89051493Y-93993575D01*
X89036141Y-94067920D01*
X89035751Y-94069678D01*
X89018249Y-94143529D01*
X89017411Y-94150704D01*
X89017351Y-94150697D01*
X89016585Y-94158195D01*
X89016645Y-94158201D01*
X89016015Y-94165390D01*
X89018224Y-94241280D01*
X89018250Y-94243083D01*
X89018250Y-95024271D01*
X88998565Y-95091310D01*
X88990103Y-95102936D01*
X88932841Y-95172710D01*
X88932836Y-95172717D01*
X88839938Y-95346516D01*
X88782725Y-95535120D01*
X88763409Y-95731250D01*
X88782725Y-95927379D01*
X88839938Y-96115983D01*
X88932836Y-96289782D01*
X88932840Y-96289789D01*
X89057866Y-96442133D01*
X89210210Y-96567159D01*
X89210217Y-96567163D01*
X89384016Y-96660061D01*
X89384019Y-96660061D01*
X89384023Y-96660064D01*
X89572618Y-96717274D01*
X89768750Y-96736591D01*
X89964882Y-96717274D01*
X90153477Y-96660064D01*
X90327288Y-96567160D01*
X90479633Y-96442133D01*
X90604660Y-96289788D01*
X90651111Y-96202882D01*
X90697561Y-96115983D01*
X90697561Y-96115982D01*
X90697564Y-96115977D01*
X90754774Y-95927382D01*
X90774091Y-95731250D01*
X90754774Y-95535118D01*
X90697564Y-95346523D01*
X90697561Y-95346519D01*
X90697561Y-95346516D01*
X90604663Y-95172717D01*
X90604661Y-95172715D01*
X90604660Y-95172712D01*
X90575984Y-95137770D01*
X90547397Y-95102936D01*
X90520084Y-95038626D01*
X90519250Y-95024271D01*
X90519250Y-94593479D01*
X90538935Y-94526440D01*
X90555569Y-94505798D01*
X91274548Y-93786819D01*
X91335871Y-93753334D01*
X91362229Y-93750500D01*
X95637770Y-93750500D01*
X95704809Y-93770185D01*
X95725451Y-93786819D01*
X96906141Y-94967509D01*
X96916482Y-94980202D01*
X96916528Y-94980164D01*
X96921173Y-94985699D01*
X96976363Y-95037768D01*
X96977657Y-95039025D01*
X97924270Y-95985638D01*
X97936051Y-95999270D01*
X97950388Y-96018528D01*
X97990409Y-96052111D01*
X97994397Y-96055766D01*
X98000217Y-96061586D01*
X98000222Y-96061590D01*
X98000223Y-96061591D01*
X98025263Y-96081390D01*
X98026644Y-96082515D01*
X98084786Y-96131302D01*
X98084787Y-96131302D01*
X98084789Y-96131304D01*
X98090818Y-96135270D01*
X98090785Y-96135319D01*
X98097147Y-96139372D01*
X98097179Y-96139321D01*
X98103319Y-96143108D01*
X98103323Y-96143111D01*
X98132366Y-96156654D01*
X98172137Y-96175200D01*
X98173760Y-96175986D01*
X98241562Y-96210038D01*
X98248357Y-96212511D01*
X98248336Y-96212567D01*
X98255457Y-96215043D01*
X98255476Y-96214986D01*
X98262319Y-96217253D01*
X98262327Y-96217257D01*
X98336748Y-96232623D01*
X98338371Y-96232983D01*
X98412279Y-96250500D01*
X98412280Y-96250500D01*
X98412284Y-96250501D01*
X98419453Y-96251339D01*
X98419446Y-96251398D01*
X98426944Y-96252164D01*
X98426950Y-96252105D01*
X98434139Y-96252734D01*
X98434143Y-96252733D01*
X98434144Y-96252734D01*
X98462229Y-96251916D01*
X98510032Y-96250526D01*
X98511835Y-96250500D01*
X102220557Y-96250500D01*
X102287596Y-96270185D01*
X102333351Y-96322989D01*
X102343295Y-96392147D01*
X102338263Y-96413504D01*
X102310494Y-96497302D01*
X102310493Y-96497309D01*
X102300000Y-96600013D01*
X102300000Y-96600026D01*
X102299999Y-96750000D01*
X104699999Y-96750000D01*
X104699999Y-96600028D01*
X104699998Y-96600013D01*
X104689506Y-96497304D01*
X104661737Y-96413505D01*
X104659335Y-96343676D01*
X104695066Y-96283634D01*
X104757587Y-96252441D01*
X104779443Y-96250500D01*
X106637770Y-96250500D01*
X106704809Y-96270185D01*
X106725451Y-96286819D01*
X107469405Y-97030773D01*
X107502890Y-97092096D01*
X107505127Y-97106298D01*
X107513975Y-97196129D01*
X107513976Y-97196132D01*
X107560647Y-97349986D01*
X107571188Y-97384733D01*
X107664086Y-97558532D01*
X107664090Y-97558539D01*
X107789116Y-97710883D01*
X107941460Y-97835909D01*
X107941467Y-97835913D01*
X108115266Y-97928811D01*
X108115269Y-97928811D01*
X108115273Y-97928814D01*
X108303868Y-97986024D01*
X108500000Y-98005341D01*
X108696132Y-97986024D01*
X108884727Y-97928814D01*
X108900746Y-97920252D01*
X108971632Y-97882361D01*
X109058538Y-97835910D01*
X109210883Y-97710883D01*
X109335910Y-97558538D01*
X109428814Y-97384727D01*
X109486024Y-97196132D01*
X109494872Y-97106298D01*
X109521031Y-97041513D01*
X109530584Y-97030782D01*
X112243354Y-94318012D01*
X112304675Y-94284529D01*
X112374367Y-94289513D01*
X112409698Y-94309842D01*
X112441460Y-94335909D01*
X112441467Y-94335913D01*
X112615266Y-94428811D01*
X112615269Y-94428811D01*
X112615273Y-94428814D01*
X112803868Y-94486024D01*
X113000000Y-94505341D01*
X113196132Y-94486024D01*
X113384727Y-94428814D01*
X113558538Y-94335910D01*
X113710883Y-94210883D01*
X113835910Y-94058538D01*
X113918410Y-93904192D01*
X113928811Y-93884733D01*
X113928811Y-93884732D01*
X113928814Y-93884727D01*
X113986024Y-93696132D01*
X114005341Y-93500000D01*
X113986024Y-93303868D01*
X113928814Y-93115273D01*
X113928811Y-93115269D01*
X113928811Y-93115266D01*
X113835913Y-92941467D01*
X113835909Y-92941460D01*
X113710883Y-92789116D01*
X113558539Y-92664090D01*
X113558532Y-92664086D01*
X113384733Y-92571188D01*
X113384727Y-92571186D01*
X113196132Y-92513976D01*
X113196129Y-92513975D01*
X113000000Y-92494659D01*
X112803870Y-92513975D01*
X112615266Y-92571188D01*
X112441467Y-92664086D01*
X112441460Y-92664090D01*
X112371687Y-92721353D01*
X112307377Y-92748666D01*
X112293022Y-92749500D01*
X112063705Y-92749500D01*
X112045735Y-92748191D01*
X112021972Y-92744710D01*
X111976890Y-92748655D01*
X111969933Y-92749264D01*
X111964532Y-92749500D01*
X111956283Y-92749500D01*
X111924589Y-92753204D01*
X111922821Y-92753385D01*
X111905405Y-92754909D01*
X111847199Y-92760001D01*
X111840133Y-92761461D01*
X111840121Y-92761404D01*
X111832752Y-92763038D01*
X111832766Y-92763095D01*
X111825738Y-92764760D01*
X111754406Y-92790723D01*
X111752705Y-92791314D01*
X111680675Y-92815182D01*
X111674128Y-92818236D01*
X111674102Y-92818182D01*
X111667306Y-92821472D01*
X111667332Y-92821524D01*
X111660879Y-92824764D01*
X111597443Y-92866486D01*
X111595923Y-92867455D01*
X111531347Y-92907286D01*
X111525682Y-92911766D01*
X111525646Y-92911720D01*
X111519798Y-92916484D01*
X111519835Y-92916528D01*
X111514309Y-92921164D01*
X111462212Y-92976382D01*
X111460957Y-92977675D01*
X108587681Y-95850951D01*
X108526358Y-95884436D01*
X108456666Y-95879452D01*
X108412319Y-95850951D01*
X107786819Y-95225451D01*
X107753334Y-95164128D01*
X107750500Y-95137770D01*
X107750500Y-85063705D01*
X107751809Y-85045735D01*
X107752129Y-85043547D01*
X107755289Y-85021977D01*
X107753366Y-85000000D01*
X107750736Y-84969934D01*
X107750500Y-84964528D01*
X107750500Y-84956296D01*
X107750500Y-84956291D01*
X107746795Y-84924602D01*
X107746618Y-84922876D01*
X107739999Y-84847203D01*
X107739999Y-84847201D01*
X107738539Y-84840129D01*
X107738597Y-84840116D01*
X107736965Y-84832757D01*
X107736906Y-84832772D01*
X107735241Y-84825751D01*
X107735241Y-84825745D01*
X107709267Y-84754382D01*
X107708691Y-84752723D01*
X107684814Y-84680666D01*
X107684810Y-84680659D01*
X107681760Y-84674118D01*
X107681815Y-84674091D01*
X107678533Y-84667313D01*
X107678480Y-84667340D01*
X107675236Y-84660881D01*
X107633529Y-84597470D01*
X107632560Y-84595949D01*
X107592710Y-84531342D01*
X107588234Y-84525682D01*
X107588281Y-84525644D01*
X107583519Y-84519799D01*
X107583474Y-84519838D01*
X107578831Y-84514305D01*
X107523616Y-84462212D01*
X107522356Y-84460989D01*
X105030593Y-81969225D01*
X104997108Y-81907902D01*
X104994871Y-81893697D01*
X104986024Y-81803868D01*
X104928814Y-81615273D01*
X104928811Y-81615269D01*
X104928811Y-81615266D01*
X104835913Y-81441467D01*
X104835909Y-81441460D01*
X104710883Y-81289116D01*
X104558539Y-81164090D01*
X104558532Y-81164086D01*
X104384733Y-81071188D01*
X104384727Y-81071186D01*
X104196132Y-81013976D01*
X104196129Y-81013975D01*
X104000000Y-80994659D01*
X103803870Y-81013975D01*
X103615266Y-81071188D01*
X103441467Y-81164086D01*
X103441460Y-81164090D01*
X103289116Y-81289116D01*
X103164090Y-81441460D01*
X103164086Y-81441467D01*
X103071188Y-81615266D01*
X103013975Y-81803870D01*
X102994659Y-82000000D01*
X103013975Y-82196129D01*
X103071188Y-82384733D01*
X103164086Y-82558532D01*
X103164090Y-82558539D01*
X103289116Y-82710883D01*
X103441460Y-82835909D01*
X103441467Y-82835913D01*
X103615266Y-82928811D01*
X103615269Y-82928811D01*
X103615273Y-82928814D01*
X103803868Y-82986024D01*
X103893697Y-82994871D01*
X103958485Y-83021031D01*
X103969225Y-83030593D01*
X106213181Y-85274548D01*
X106246666Y-85335871D01*
X106249500Y-85362229D01*
X106249500Y-94625500D01*
X106229815Y-94692539D01*
X106177011Y-94738294D01*
X106125500Y-94749500D01*
X98862229Y-94749500D01*
X98795190Y-94729815D01*
X98774548Y-94713181D01*
X98654846Y-94593479D01*
X98499777Y-94438409D01*
X98286818Y-94225450D01*
X98253333Y-94164127D01*
X98250499Y-94137769D01*
X98250499Y-93972817D01*
X98250499Y-93706973D01*
X98270184Y-93639938D01*
X98278639Y-93628321D01*
X98335910Y-93558538D01*
X98428814Y-93384727D01*
X98486024Y-93196132D01*
X98505341Y-93000000D01*
X98486024Y-92803868D01*
X98428814Y-92615273D01*
X98428811Y-92615269D01*
X98428811Y-92615266D01*
X98335913Y-92441467D01*
X98335909Y-92441460D01*
X98210883Y-92289116D01*
X98058539Y-92164090D01*
X98058532Y-92164086D01*
X97884733Y-92071188D01*
X97884727Y-92071186D01*
X97696132Y-92013976D01*
X97696129Y-92013975D01*
X97500000Y-91994659D01*
X97303870Y-92013975D01*
X97115260Y-92071190D01*
X97111454Y-92072767D01*
X97041984Y-92080231D01*
X96979507Y-92048952D01*
X96943859Y-91988861D01*
X96946357Y-91919036D01*
X96958466Y-91893114D01*
X97034814Y-91769334D01*
X97054311Y-91710493D01*
X97094084Y-91653051D01*
X97158600Y-91626228D01*
X97172017Y-91625500D01*
X100840048Y-91625500D01*
X100907087Y-91645185D01*
X100927729Y-91661819D01*
X102061038Y-92795129D01*
X102094523Y-92856452D01*
X102096678Y-92869848D01*
X102104205Y-92941460D01*
X102114326Y-93037756D01*
X102114327Y-93037759D01*
X102172818Y-93217777D01*
X102172821Y-93217784D01*
X102267467Y-93381716D01*
X102270184Y-93384733D01*
X102394129Y-93522388D01*
X102547265Y-93633648D01*
X102547270Y-93633651D01*
X102720192Y-93710642D01*
X102720197Y-93710644D01*
X102905354Y-93750000D01*
X102905355Y-93750000D01*
X103094644Y-93750000D01*
X103094646Y-93750000D01*
X103279803Y-93710644D01*
X103452730Y-93633651D01*
X103605871Y-93522388D01*
X103732533Y-93381716D01*
X103827179Y-93217784D01*
X103885674Y-93037756D01*
X103905460Y-92849500D01*
X103885674Y-92661244D01*
X103827179Y-92481216D01*
X103732533Y-92317284D01*
X103605871Y-92176612D01*
X103605870Y-92176611D01*
X103452734Y-92065351D01*
X103452729Y-92065348D01*
X103279807Y-91988357D01*
X103279802Y-91988355D01*
X103134000Y-91957365D01*
X103094646Y-91949000D01*
X103094645Y-91949000D01*
X103035452Y-91949000D01*
X102968413Y-91929315D01*
X102947771Y-91912681D01*
X101651303Y-90616212D01*
X101641480Y-90603950D01*
X101641259Y-90604134D01*
X101636286Y-90598122D01*
X101586566Y-90551432D01*
X101585166Y-90550075D01*
X101564976Y-90529884D01*
X101559486Y-90525625D01*
X101555061Y-90521847D01*
X101521082Y-90489938D01*
X101521080Y-90489936D01*
X101521077Y-90489935D01*
X101503529Y-90480288D01*
X101487263Y-90469604D01*
X101471436Y-90457327D01*
X101471435Y-90457326D01*
X101471433Y-90457325D01*
X101428668Y-90438818D01*
X101423422Y-90436248D01*
X101382593Y-90413803D01*
X101382592Y-90413802D01*
X101363193Y-90408822D01*
X101344781Y-90402518D01*
X101326398Y-90394562D01*
X101326392Y-90394560D01*
X101280374Y-90387272D01*
X101274652Y-90386087D01*
X101229521Y-90374500D01*
X101229519Y-90374500D01*
X101209484Y-90374500D01*
X101190086Y-90372973D01*
X101182662Y-90371797D01*
X101170305Y-90369840D01*
X101170304Y-90369840D01*
X101123916Y-90374225D01*
X101118078Y-90374500D01*
X97172017Y-90374500D01*
X97104978Y-90354815D01*
X97059223Y-90302011D01*
X97054311Y-90289505D01*
X97034814Y-90230666D01*
X96942712Y-90081344D01*
X96818656Y-89957288D01*
X96669334Y-89865186D01*
X96502797Y-89810001D01*
X96502795Y-89810000D01*
X96400010Y-89799500D01*
X95599998Y-89799500D01*
X95599980Y-89799501D01*
X95497203Y-89810000D01*
X95497200Y-89810001D01*
X95330668Y-89865185D01*
X95330663Y-89865187D01*
X95181342Y-89957289D01*
X95087681Y-90050951D01*
X95026358Y-90084436D01*
X94956666Y-90079452D01*
X94912319Y-90050951D01*
X94818657Y-89957289D01*
X94818656Y-89957288D01*
X94669334Y-89865186D01*
X94502797Y-89810001D01*
X94502795Y-89810000D01*
X94400016Y-89799500D01*
X94400009Y-89799500D01*
X93749500Y-89799500D01*
X93682461Y-89779815D01*
X93636706Y-89727011D01*
X93625500Y-89675500D01*
X93625500Y-88231057D01*
X93645185Y-88164018D01*
X93684402Y-88125519D01*
X93703785Y-88113563D01*
X93771177Y-88095123D01*
X93837841Y-88116045D01*
X93861032Y-88136130D01*
X93894128Y-88172887D01*
X93894130Y-88172889D01*
X94047265Y-88284148D01*
X94047270Y-88284151D01*
X94220192Y-88361142D01*
X94220197Y-88361144D01*
X94405354Y-88400500D01*
X94405355Y-88400500D01*
X94594644Y-88400500D01*
X94594646Y-88400500D01*
X94779803Y-88361144D01*
X94952730Y-88284151D01*
X95105871Y-88172888D01*
X95153359Y-88120146D01*
X95212842Y-88083500D01*
X95282699Y-88084829D01*
X95284511Y-88085414D01*
X95372302Y-88114505D01*
X95372309Y-88114506D01*
X95475019Y-88124999D01*
X95749999Y-88124999D01*
X95750000Y-88124998D01*
X95750000Y-87287500D01*
X96250000Y-87287500D01*
X96250000Y-88124999D01*
X96524972Y-88124999D01*
X96524986Y-88124998D01*
X96627697Y-88114505D01*
X96794119Y-88059358D01*
X96794124Y-88059356D01*
X96943345Y-87967315D01*
X97067315Y-87843345D01*
X97159356Y-87694124D01*
X97159358Y-87694119D01*
X97214505Y-87527697D01*
X97214506Y-87527690D01*
X97224999Y-87424986D01*
X97225000Y-87424973D01*
X97225000Y-87287500D01*
X96250000Y-87287500D01*
X95750000Y-87287500D01*
X95750000Y-87250000D01*
X102300001Y-87250000D01*
X102300001Y-87399986D01*
X102310494Y-87502697D01*
X102365641Y-87669119D01*
X102365643Y-87669124D01*
X102457684Y-87818345D01*
X102581654Y-87942315D01*
X102730875Y-88034356D01*
X102730880Y-88034358D01*
X102897302Y-88089505D01*
X102897309Y-88089506D01*
X103000019Y-88099999D01*
X103249999Y-88099999D01*
X103250000Y-88099998D01*
X103250000Y-87250000D01*
X103750000Y-87250000D01*
X103750000Y-88099999D01*
X103999972Y-88099999D01*
X103999986Y-88099998D01*
X104102697Y-88089505D01*
X104269119Y-88034358D01*
X104269124Y-88034356D01*
X104418345Y-87942315D01*
X104542315Y-87818345D01*
X104634356Y-87669124D01*
X104634358Y-87669119D01*
X104689505Y-87502697D01*
X104689506Y-87502690D01*
X104699999Y-87399986D01*
X104700000Y-87399973D01*
X104700000Y-87250000D01*
X103750000Y-87250000D01*
X103250000Y-87250000D01*
X102300001Y-87250000D01*
X95750000Y-87250000D01*
X95750000Y-86911500D01*
X95769685Y-86844461D01*
X95822489Y-86798706D01*
X95874000Y-86787500D01*
X97224999Y-86787500D01*
X97224999Y-86650028D01*
X97224998Y-86650013D01*
X97214505Y-86547302D01*
X97159358Y-86380880D01*
X97159356Y-86380875D01*
X97067315Y-86231654D01*
X96943344Y-86107683D01*
X96943341Y-86107681D01*
X96940339Y-86105829D01*
X96938713Y-86104021D01*
X96937677Y-86103202D01*
X96937817Y-86103024D01*
X96893617Y-86053880D01*
X96882397Y-85984917D01*
X96910243Y-85920836D01*
X96940344Y-85894754D01*
X96943656Y-85892712D01*
X97067712Y-85768656D01*
X97119680Y-85684402D01*
X97171627Y-85637679D01*
X97225218Y-85625500D01*
X97794699Y-85625500D01*
X97861738Y-85645185D01*
X97907493Y-85697989D01*
X97912403Y-85710492D01*
X97936811Y-85784148D01*
X97940185Y-85794331D01*
X97940187Y-85794336D01*
X97955188Y-85818656D01*
X98032288Y-85943656D01*
X98156344Y-86067712D01*
X98305666Y-86159814D01*
X98472203Y-86214999D01*
X98574991Y-86225500D01*
X99350008Y-86225499D01*
X99350016Y-86225498D01*
X99350019Y-86225498D01*
X99406302Y-86219748D01*
X99452797Y-86214999D01*
X99619334Y-86159814D01*
X99768656Y-86067712D01*
X99892712Y-85943656D01*
X99894461Y-85940819D01*
X99896169Y-85939283D01*
X99897193Y-85937989D01*
X99897414Y-85938163D01*
X99946406Y-85894096D01*
X100015368Y-85882872D01*
X100079451Y-85910713D01*
X100105537Y-85940817D01*
X100107288Y-85943656D01*
X100231344Y-86067712D01*
X100380666Y-86159814D01*
X100547203Y-86214999D01*
X100649991Y-86225500D01*
X101425008Y-86225499D01*
X101425016Y-86225498D01*
X101425019Y-86225498D01*
X101481302Y-86219748D01*
X101527797Y-86214999D01*
X101694334Y-86159814D01*
X101843656Y-86067712D01*
X101967712Y-85943656D01*
X102059814Y-85794334D01*
X102087595Y-85710495D01*
X102127368Y-85653051D01*
X102191884Y-85626228D01*
X102205301Y-85625500D01*
X102268942Y-85625500D01*
X102335981Y-85645185D01*
X102374479Y-85684401D01*
X102447636Y-85803007D01*
X102457289Y-85818657D01*
X102551304Y-85912672D01*
X102584789Y-85973995D01*
X102579805Y-86043687D01*
X102551305Y-86088034D01*
X102457682Y-86181657D01*
X102365643Y-86330875D01*
X102365641Y-86330880D01*
X102310494Y-86497302D01*
X102310493Y-86497309D01*
X102300000Y-86600013D01*
X102300000Y-86600026D01*
X102299999Y-86750000D01*
X104699999Y-86750000D01*
X104699999Y-86600028D01*
X104699998Y-86600013D01*
X104689505Y-86497302D01*
X104634358Y-86330880D01*
X104634356Y-86330875D01*
X104542315Y-86181654D01*
X104448695Y-86088034D01*
X104415210Y-86026711D01*
X104420194Y-85957019D01*
X104448691Y-85912676D01*
X104542712Y-85818656D01*
X104634814Y-85669334D01*
X104689999Y-85502797D01*
X104700500Y-85400009D01*
X104700499Y-84599992D01*
X104700241Y-84597470D01*
X104689999Y-84497203D01*
X104689998Y-84497200D01*
X104649339Y-84374500D01*
X104634814Y-84330666D01*
X104542712Y-84181344D01*
X104418656Y-84057288D01*
X104269334Y-83965186D01*
X104102797Y-83910001D01*
X104102795Y-83910000D01*
X104000010Y-83899500D01*
X102999998Y-83899500D01*
X102999980Y-83899501D01*
X102897203Y-83910000D01*
X102897200Y-83910001D01*
X102730668Y-83965185D01*
X102730663Y-83965187D01*
X102581342Y-84057289D01*
X102457289Y-84181342D01*
X102457287Y-84181344D01*
X102457288Y-84181344D01*
X102377498Y-84310706D01*
X102374481Y-84315597D01*
X102322533Y-84362321D01*
X102268942Y-84374500D01*
X102205301Y-84374500D01*
X102138262Y-84354815D01*
X102092507Y-84302011D01*
X102087596Y-84289507D01*
X102059814Y-84205666D01*
X101967712Y-84056344D01*
X101843656Y-83932288D01*
X101721902Y-83857190D01*
X101675179Y-83805243D01*
X101663000Y-83751652D01*
X101663000Y-83120242D01*
X101664724Y-83104622D01*
X101664439Y-83104595D01*
X101665173Y-83096833D01*
X101663031Y-83028639D01*
X101663000Y-83026692D01*
X101663000Y-82998156D01*
X101663000Y-82998150D01*
X101662131Y-82991279D01*
X101661673Y-82985452D01*
X101660964Y-82962887D01*
X101660210Y-82938873D01*
X101654619Y-82919630D01*
X101650673Y-82900578D01*
X101648164Y-82880708D01*
X101631004Y-82837367D01*
X101629124Y-82831879D01*
X101616118Y-82787110D01*
X101614366Y-82784148D01*
X101605923Y-82769871D01*
X101597361Y-82752394D01*
X101589987Y-82733770D01*
X101589552Y-82733171D01*
X101562579Y-82696045D01*
X101559388Y-82691186D01*
X101535672Y-82651083D01*
X101535665Y-82651074D01*
X101521506Y-82636915D01*
X101508868Y-82622119D01*
X101497094Y-82605913D01*
X101461188Y-82576209D01*
X101456876Y-82572286D01*
X100938960Y-82054369D01*
X100905475Y-81993046D01*
X100903323Y-81979668D01*
X100885674Y-81811744D01*
X100827179Y-81631716D01*
X100732533Y-81467784D01*
X100605871Y-81327112D01*
X100605870Y-81327111D01*
X100452734Y-81215851D01*
X100452729Y-81215848D01*
X100279807Y-81138857D01*
X100279802Y-81138855D01*
X100134000Y-81107865D01*
X100094646Y-81099500D01*
X99905354Y-81099500D01*
X99872897Y-81106398D01*
X99720197Y-81138855D01*
X99720192Y-81138857D01*
X99547270Y-81215848D01*
X99547265Y-81215851D01*
X99394130Y-81327110D01*
X99394126Y-81327114D01*
X99388400Y-81333474D01*
X99328913Y-81370121D01*
X99296252Y-81374500D01*
X97663758Y-81374500D01*
X97596719Y-81354815D01*
X97550964Y-81302012D01*
X97534904Y-81266846D01*
X97534904Y-81266845D01*
X97534899Y-81266838D01*
X97534894Y-81266828D01*
X97457103Y-81145783D01*
X97457101Y-81145781D01*
X97457097Y-81145774D01*
X97451103Y-81138857D01*
X97362958Y-81037130D01*
X97362941Y-81037111D01*
X97362940Y-81037110D01*
X97254170Y-80942861D01*
X97218937Y-80920218D01*
X97133221Y-80865131D01*
X97133217Y-80865129D01*
X97133216Y-80865129D01*
X97002300Y-80805342D01*
X96904158Y-80776525D01*
X96864342Y-80764834D01*
X96721889Y-80744353D01*
X96150000Y-80744353D01*
X96149997Y-80744353D01*
X96078040Y-80749499D01*
X96040728Y-80760455D01*
X95988149Y-80764215D01*
X95850000Y-80744353D01*
X95278111Y-80744353D01*
X95278110Y-80744353D01*
X95135658Y-80764834D01*
X95135656Y-80764834D01*
X94997700Y-80805342D01*
X94866784Y-80865129D01*
X94866782Y-80865129D01*
X94745828Y-80942862D01*
X94745824Y-80942864D01*
X94637061Y-81037108D01*
X94637058Y-81037110D01*
X94542911Y-81145762D01*
X94542896Y-81145783D01*
X94465105Y-81266828D01*
X94465095Y-81266846D01*
X94449036Y-81302012D01*
X94403281Y-81354816D01*
X94336242Y-81374500D01*
X92582737Y-81374500D01*
X92567120Y-81372776D01*
X92567093Y-81373062D01*
X92559331Y-81372327D01*
X92491171Y-81374469D01*
X92489224Y-81374500D01*
X92460650Y-81374500D01*
X92459929Y-81374590D01*
X92453757Y-81375369D01*
X92447945Y-81375826D01*
X92401378Y-81377290D01*
X92401367Y-81377292D01*
X92382134Y-81382879D01*
X92363094Y-81386822D01*
X92343217Y-81389334D01*
X92343210Y-81389335D01*
X92343208Y-81389336D01*
X92343206Y-81389336D01*
X92343205Y-81389337D01*
X92299868Y-81406494D01*
X92294342Y-81408386D01*
X92249611Y-81421382D01*
X92249608Y-81421383D01*
X92232363Y-81431581D01*
X92214901Y-81440135D01*
X92196272Y-81447511D01*
X92196267Y-81447513D01*
X92158564Y-81474906D01*
X92153682Y-81478112D01*
X92113580Y-81501828D01*
X92099408Y-81516000D01*
X92084623Y-81528628D01*
X92068412Y-81540407D01*
X92038709Y-81576310D01*
X92034777Y-81580631D01*
X90616208Y-82999199D01*
X90603951Y-83009020D01*
X90604134Y-83009241D01*
X90598122Y-83014214D01*
X90551432Y-83063932D01*
X90550079Y-83065329D01*
X90529889Y-83085519D01*
X90529877Y-83085532D01*
X90525621Y-83091017D01*
X90521837Y-83095447D01*
X90489937Y-83129418D01*
X90489936Y-83129420D01*
X90480284Y-83146976D01*
X90469610Y-83163226D01*
X90457329Y-83179061D01*
X90457324Y-83179068D01*
X90438815Y-83221838D01*
X90436245Y-83227084D01*
X90413803Y-83267906D01*
X90408822Y-83287307D01*
X90402521Y-83305710D01*
X90394562Y-83324102D01*
X90394561Y-83324105D01*
X90387271Y-83370127D01*
X90386087Y-83375846D01*
X90374501Y-83420972D01*
X90374500Y-83420982D01*
X90374500Y-83441016D01*
X90372973Y-83460415D01*
X90369840Y-83480194D01*
X90369840Y-83480195D01*
X90374225Y-83526583D01*
X90374500Y-83532421D01*
X90374500Y-83768942D01*
X90354815Y-83835981D01*
X90315598Y-83874479D01*
X90258011Y-83910000D01*
X90181342Y-83957289D01*
X90057289Y-84081342D01*
X89965187Y-84230663D01*
X89965186Y-84230666D01*
X89945689Y-84289505D01*
X89905916Y-84346949D01*
X89841400Y-84373772D01*
X89827983Y-84374500D01*
X89703748Y-84374500D01*
X89636709Y-84354815D01*
X89611600Y-84333474D01*
X89605873Y-84327114D01*
X89605869Y-84327110D01*
X89452734Y-84215851D01*
X89452729Y-84215848D01*
X89279807Y-84138857D01*
X89279802Y-84138855D01*
X89124779Y-84105905D01*
X89094646Y-84099500D01*
X88905354Y-84099500D01*
X88875221Y-84105905D01*
X88720197Y-84138855D01*
X88720192Y-84138857D01*
X88547270Y-84215848D01*
X88547265Y-84215851D01*
X88394129Y-84327111D01*
X88267466Y-84467785D01*
X88172821Y-84631715D01*
X88172818Y-84631722D01*
X88114327Y-84811740D01*
X88114326Y-84811744D01*
X88094540Y-85000000D01*
X68500500Y-85000000D01*
X68500500Y-79124500D01*
X68520185Y-79057461D01*
X68572989Y-79011706D01*
X68624500Y-79000500D01*
X120375500Y-79000500D01*
X120442539Y-79020185D01*
G37*
%TD.AperFunction*%
%TD*%
D23*
X104000000Y-90000000D03*
X86500000Y-88500000D03*
X114500000Y-95500000D03*
X72000000Y-89000000D03*
X90000000Y-90500000D03*
X104000000Y-88500000D03*
X113000000Y-95500000D03*
X85000000Y-86000000D03*
X89500000Y-100500000D03*
X115000000Y-85000000D03*
X89500000Y-99000000D03*
X104500000Y-100500000D03*
X105000000Y-98000000D03*
X103000000Y-88500000D03*
X119500000Y-99000000D03*
X119000000Y-100000000D03*
X99000000Y-86324500D03*
X90000000Y-89500000D03*
X113000000Y-97000000D03*
X115000000Y-83000000D03*
X105500000Y-96500000D03*
X72500000Y-87500000D03*
X75500000Y-85500000D03*
X99000000Y-87500000D03*
X114500000Y-97000000D03*
X90168062Y-97331938D03*
X74500000Y-97500000D03*
X97500000Y-87500000D03*
X72000000Y-96500000D03*
X117500000Y-97000000D03*
X72000000Y-90500000D03*
X74500000Y-87000000D03*
X103000000Y-90000000D03*
X73000000Y-97500000D03*
X86000000Y-85000000D03*
X85500000Y-89000000D03*
X113000000Y-87000000D03*
X97472126Y-86280670D03*
X84000000Y-87000000D03*
X79000000Y-96000000D03*
X100000000Y-102000000D03*
X100000000Y-82000000D03*
X108500000Y-97000000D03*
X89768750Y-95731250D03*
X113000000Y-93500000D03*
X104000000Y-82000000D03*
X97500000Y-93000000D03*
X94500000Y-96275500D03*
X94500000Y-87500000D03*
X89000000Y-85000000D03*
X90000000Y-86487701D03*
X103000000Y-92849500D03*
M02*
