M48
METRIC,TZ
T1C0.400
%
G90
G05
T1
X72000Y-89000
X72000Y-90500
X72000Y-96500
X72500Y-87500
X73000Y-97500
X74500Y-87000
X74500Y-97500
X75500Y-85500
X79000Y-96000
X84000Y-87000
X85000Y-86000
X85500Y-89000
X86000Y-85000
X86500Y-88500
X89000Y-85000
X89500Y-99000
X89500Y-100500
X89769Y-95731
X90000Y-86488
X90000Y-89500
X90000Y-90500
X90168Y-97332
X94500Y-87500
X94500Y-96276
X97472Y-86281
X97500Y-87500
X97500Y-93000
X99000Y-86325
X99000Y-87500
X100000Y-82000
X100000Y-102000
X103000Y-88500
X103000Y-90000
X103000Y-92849
X104000Y-82000
X104000Y-88500
X104000Y-90000
X104500Y-100500
X105000Y-98000
X105500Y-96500
X108500Y-97000
X113000Y-87000
X113000Y-93500
X113000Y-95500
X113000Y-97000
X114500Y-95500
X114500Y-97000
X115000Y-83000
X115000Y-85000
X117500Y-97000
X119000Y-100000
X119500Y-99000
T0
M30
